<?xml version="1.0" encoding="UTF-8"?>
<svg id="Camada_2" data-name="Camada 2" xmlns="http://www.w3.org/2000/svg" viewBox="0 0 326.23 397.25">
  <defs>
    <style>
      .cls-1, .cls-2, .cls-3, .cls-4, .cls-5, .cls-6, .cls-7, .cls-8, .cls-9, .cls-10, .cls-11, .cls-12, .cls-13, .cls-14 {
        stroke: #1d1d1b;
        stroke-miterlimit: 22.93;
      }

      .cls-1, .cls-2, .cls-3, .cls-4, .cls-7, .cls-10, .cls-11 {
        stroke-width: .72px;
      }

      .cls-1, .cls-2, .cls-4, .cls-15, .cls-5, .cls-7, .cls-8, .cls-9, .cls-10, .cls-16, .cls-11, .cls-12, .cls-13, .cls-14, .cls-17 {
        fill-rule: evenodd;
      }

      .cls-1, .cls-18, .cls-8, .cls-9, .cls-16 {
        fill: #1d1d1b;
      }

      .cls-2, .cls-15, .cls-12 {
        fill: #fff;
      }

      .cls-3, .cls-6 {
        fill: none;
      }

      .cls-4, .cls-5, .cls-13, .cls-14 {
        fill: #ffed00;
      }

      .cls-5 {
        stroke-width: .72px;
      }

      .cls-6 {
        stroke-width: .72px;
      }

      .cls-7 {
        fill: #e30613;
      }

      .cls-8 {
        stroke-width: .72px;
      }

      .cls-9 {
        stroke-width: .22px;
      }

      .cls-10, .cls-17 {
        fill: #008bd2;
      }

      .cls-11 {
        fill: #60a172;
      }

      .cls-12 {
        stroke-width: .72px;
      }

      .cls-13 {
        stroke-width: .72px;
      }

      .cls-14 {
        stroke-width: .72px;
      }
    </style>
  </defs>
  <g id="Camada_1-2" data-name="Camada 1">
    <g>
      <path class="cls-15" d="M60.03,304.6c1.51-9.12-1.84-12.91-6.61-15.14,8.4-3.39,15.93-2.57,20.99,10.19.36,9.14,2.93,15.51,9.59,17.76-12.93,23.35-52.81,5.19-60.61,21.76,2.92,1.12,5.83,2.24,8.75,3.37.14-.18.28-.36.42-.54,1.14.89,2.28,1.77,3.42,2.66-3.17,7.25-3.73,13.43-.2,17.93,3.6-.26,7.2-.51,10.79-.77-1.69-7.74-3.39-15.47-5.08-23.21,37.48-5.9,74.78,28.89,122.58,27.3,37.74-1.19,72.33-18.65,94.85-26.05,2.17-.71,4.64-.26,6.78-.5,30.49-8.29,8.48,16.04,12.71,24.06,3.82.51,8.53.45,13.86,0,4.27-10.09-14.99-22.05,8.59-25.21,2.02-8.85-32.33-4.86-46.53-11.93-21.1-8.15,4.03-13.12-.29-27.84,1.55-3.22,3.1-6.44,4.65-9.66,4.58-.55,8.73-.86,13.53-.98,19.17.42,36.94,6.61,52.94,20.22-7.06-.56-13.67-.42-19.87.36-.07.35-.14.7-.21,1.06,8.62,3.51,18.01,10.3,17.08,20.8-.02,2.91-8.95,9.47-8.5,16.03,17.83.89,5.31,13.65,8.82,20.45,3.58,9.17,1.92,15.58-6.91,18.19-27.67,10.47-57.49,5.94-62.16-10.24-7.42,2.66-14.92,4.77-21.68,7.96-47.98,22.62-99.99,17.1-159.69-8.09.76,4.53.06,7.57-2.47,8.76-24.43,9.38-45.44,7.75-64.07-1.51-11.87-6.06,1.23-12.45-2.83-20.79-2.15-8.1-1.16-11.94,7.88-13.35,1.67-9.52-7.57-12.41-7.18-20.45.98-13.21,22.01-22.16,48.04-21.86,2.87-.24,5.75-.49,8.62-.73h0Z"/>
      <path class="cls-15" d="M245.19,94.1c1.56-1.02,1.58-2.65-.36-5.05l5.25-9.99c5.75,1.92,6.76-2.72,3.03-4.64l13.92-25.13,2.83.5,10.7-20.99-7.47-3.83-3.23,5.55-5.25-2.22,2.22-5.85-8.27-3.23-6.86,16.55v4.14l-4.94-.81-3.23,8.27-3.53-1.61,3.03-8.98-5.65-3.43,7.37-19.98-8.17-2.83-2.22,6.96-6.66-2.02,1.72-7.26-13.32-3.53-2.12,7.37-5.45-1.11.71-6.86-8.68-.91-3.23,20.58-2.83,1.51h-2.52l-1.31,9.18-3.83-.5.2-8.88-3.43-2.32.81-22.4h-10.49v14.33h-5.45V.36h-12.71v14.93l-10.29-.3v-5.85l3.63-.91-.2-7.37-8.68.2,1.51,22-5.65,2.22,1.31,9.28-4.34.5-1.31-8.78-4.04-2.62-3.03-18.87c-3.63.1-6.96.71-10.39,1.72.3,2.02.61,4.04,1.01,6.05-1.82.3-3.63.61-5.35.91-.61-1.92-1.21-3.83-1.72-5.85-4.74.71-9.28,1.72-13.72,3.23.61,2.12,1.31,4.14,2.02,6.16-1.72.5-3.43.91-5.05,1.31-.71-1.92-1.41-3.94-2.12-5.95-3.63,1.31-6.46,2.42-8.68,3.53,2.32,6.46,4.64,12.92,6.96,19.37l-3.23,2.62,2.72,9.28-4.54,1.51-3.23-8.27-4.94.5-8.68-19.58c-2.22.5-4.44,1.31-6.66,2.83.71,2.22,1.41,4.34,2.12,6.46-1.51.71-3.03,1.41-4.54,2.22-1.11-2.02-2.22-4.04-3.23-6.05-3.23.91-5.85,2.12-8.27,3.83,2.83,6.05,5.65,12.21,8.48,18.36,1.72,1.41,3.63,2.02,5.65,1.72l13.22,24.62c-2.42,2.93-1.41,4.64,3.43,5.35,1.88,3.36,3.77,6.73,5.65,10.09-.69,1.25-1.18,2.44-.71,3.33h164.33Z"/>
      <path class="cls-3" d="M258.25,288.85c25.53-3.73,46.72,2.52,66.9,19.17-8.38-.5-14.23-.5-20.18.4"/>
      <path class="cls-11" d="M276.11,255.85c-.91-18.77-2.12-37.03-8.27-45.1v-3.94l8.68-.5.5-4.44-9.18-1.21v-6.46c3.03,1.01,9.08.5,11.1-1.82-3.83.1-7.57-1.61-11.1-4.04v-51.56c24.72,35.52,22.6,69.02,10.8,101.71-.91,5.75-1.72,11.5-2.52,17.36h0Z"/>
      <path class="cls-11" d="M288.93,175.13c-2.32-22.6-5.15-45.2-11.1-67.5-3.33.91-6.56,1.82-9.79,2.72v24.82c7.57,15.34,9.18,36.12,10.8,57.31,2.12.1,4.24.2,6.36.3v2.72c-1.82.61-3.63,1.31-5.35,2.02v7.16l6.05,1.01-.4,2.32-7.06,1.41c-1.31,31.58,0,58.83-10.09,93.94l11.1,1.72c.1-2.12,6.46,1.72,9.49.1-.61-13.22,5.45-32.09,7.87-39.96.71-2.32-4.74-.4-4.64-2.02.2-1.61-9.59,9.49-9.49,7.97,2.93-23.31,6.05-40.36,5.85-63.47l.4-32.59h0Z"/>
      <path class="cls-2" d="M58.56,94.2h209.48v149.34c-4.94,142.88-200.19,140.46-209.48,1.41V94.2h0Z"/>
      <polygon class="cls-10" points="58.56 94.2 164.72 94.2 164.72 212.06 58.56 212.06 58.56 94.2 58.56 94.2"/>
      <path class="cls-10" d="M268.04,212.06v31.48c-2.42,71.44-52.47,106.45-103.12,106.35l-.2-137.84h103.33Z"/>
      <path class="cls-7" d="M164.72,212.06l.2,137.84c-50.55-.1-101.71-35.42-106.35-104.94v-32.89h106.15Z"/>
      <path class="cls-14" d="M112.34,282.25c9.08-.18,16.41-2.12,16.36-4.32-.05-2.2-7.45-3.83-16.53-3.65-9.08.18-16.41,2.12-16.36,4.32.05,2.2,7.45,3.83,16.53,3.65h0Z"/>
      <path class="cls-4" d="M88.23,271.29l-25.43-37.94c10.19,3.03,17.25,8.78,22,15.54,3.53,6.66.91,13.02,5.95,22.1l-2.52.3h0Z"/>
      <path class="cls-4" d="M98.62,268.77c-3.73-6.16-8.17-10.39-11.3-18.47-1.92-8.48-1.41-16.85.71-25.53,6.16,6.86,10.49,14.73,13.82,22.5.3,8.37-1.31,14.13-1.92,21.09-.5.2-.91.3-1.31.4h0Z"/>
      <path class="cls-4" d="M110.43,266.75c-.2-4.84-2.72-7.47-6.05-9.38-.4-13.72,2.12-27.14,6.05-38.04,5.25,11.1,8.07,23.71,9.28,35.72-4.54,2.12-5.75,6.56-4.84,11.5-1.51.1-3.03.2-4.44.2h0Z"/>
      <path class="cls-4" d="M123.24,267.05c-.61-4.34-1.31-8.48-3.13-12.61,1.11-9.99,6.16-20.48,14.13-31.58,2.42,9.38,1.92,21.29.2,35.11-3.53,2.83-5.95,6.16-7.97,9.49-1.11-.2-2.22-.3-3.23-.4h0Z"/>
      <path class="cls-4" d="M136.26,269.88c8.17-13.42,16.35-26.84,24.62-40.36-10.49,5.75-20.08,12.81-25.63,24.02-.2,5.95-.81,11.1-1.61,15.74l2.62.61h0Z"/>
      <path class="cls-4" d="M85.91,271.79l8.48,8.48c10.49-4.44,22.1-5.65,35.92-2.12l7.87-7.47c-15.64-5.75-34.81-5.85-52.27,1.11h0Z"/>
      <path class="cls-4" d="M155.53,343.03c-2.83-4.14-5.75-5.45-6.86-2.62-.61,1.92-.91,2.42-3.03,1.01-1.92-1.31-3.43-2.93-5.35-4.04,0-1.92-.5-3.43-.5-5.35-1.61-1.11-3.13-2.22-4.64-3.23-.91-.91,1.01,5.15-2.42,4.54-5.25.71-.71-10.8-5.05-12.41l-44.5-43.89-1.31,6.56-17.15-32.09c24.22,23.81,48.43,47.63,72.65,71.54,13.32,1.82,13.62,4.64,9.59,7.87,1.21,2.52,4.54,3.33,8.68,3.33,5.25,6.96,4.84,7.27-.1,8.78h0Z"/>
      <polygon class="cls-4" points="157.15 252.02 138.18 283.6 137.57 276.23 93.07 322.14 90.05 319.22 157.15 252.02 157.15 252.02"/>
      <polygon class="cls-4" points="63.61 174.62 72.49 196.92 99.93 196.92 108.51 173.21 97.11 180.78 97.11 169.68 89.64 180.07 83.89 162.41 80.36 180.07 70.77 170.38 72.49 182.9 63.61 174.62 63.61 174.62"/>
      <line class="cls-3" x1="68.55" y1="186.93" x2="103.87" y2="186.93"/>
      <polygon class="cls-4" points="113.86 174.62 122.74 196.92 150.18 196.92 158.76 173.21 147.36 180.78 147.36 169.68 139.89 180.07 134.14 162.41 130.61 180.07 121.02 170.38 122.74 182.9 113.86 174.62 113.86 174.62"/>
      <line class="cls-3" x1="118.8" y1="186.93" x2="154.12" y2="186.93"/>
      <polygon class="cls-4" points="88.23 123.67 97.11 145.96 124.56 145.96 133.13 122.25 121.73 129.82 121.73 118.72 114.26 129.11 108.51 111.46 104.98 129.11 95.39 119.43 97.11 131.94 88.23 123.67 88.23 123.67"/>
      <line class="cls-3" x1="93.17" y1="135.98" x2="128.49" y2="135.98"/>
      <polygon class="cls-7" points="187.22 110.04 244.53 110.04 228.89 121.14 228.89 142.74 251.29 142.74 261.58 128.31 261.58 183.6 251.29 168.16 228.89 168.16 228.89 189.76 244.53 200.55 187.22 200.55 202.45 189.76 202.45 168.16 179.75 168.16 169.05 183.6 169.05 128.31 179.75 142.74 202.45 142.74 202.45 121.14 187.22 110.04 187.22 110.04"/>
      <polygon class="cls-2" points="210.73 120.44 219.2 120.44 219.2 151.01 250.18 151.01 250.18 159.59 219.2 159.59 219.2 190.46 210.73 190.46 210.73 159.59 180.46 159.59 180.46 151.01 210.73 151.01 210.73 120.44 210.73 120.44"/>
      <path class="cls-7" d="M218.9,234.46c-5.85-4.14-10.19.1-14.23,6.76l6.56,4.34-2.72,4.44,3.83,2.42,2.72-4.84,5.65,3.13c2.93-4.64,4.24-10.49,3.94-14.93-.2-3.33-7.67-14.13-13.72-8.98-1.51,2.32-.1,5.85,1.61,6.05,2.72.3,4.14,0,6.36,1.61h0ZM215.97,243.03c1.51,0,2.72-1.31,2.72-3.03s-1.21-3.03-2.72-3.03-2.72,1.31-2.72,3.03,1.21,3.03,2.72,3.03h0Z"/>
      <polygon class="cls-2" points="181.36 272.8 178.14 276.13 180.66 278.75 184.8 274.92 181.36 272.8 181.36 272.8"/>
      <path class="cls-2" d="M175.92,269.07l-2.22,2.42-4.34-11,10.8,1.41-2.22,3.53,5.75,1.61c0-.1.3-5.25,1.61-6.05l.2-.2v-28.05l3.43-.2v29.06l1.72,5.45,6.96-1.41-2.22-3.53,10.59-1.11-3.73,11-2.32-2.72-12.71,7.87-11.3-8.07h0Z"/>
      <path class="cls-2" d="M187.52,221.95c3.23,0,5.85,2.52,5.85,5.55s-2.62,5.65-5.85,5.65-5.85-2.52-5.85-5.65,2.62-5.55,5.85-5.55h0ZM187.52,227.7c1.41,0,2.62,1.21,2.62,2.62s-1.21,2.62-2.62,2.62-2.62-1.21-2.62-2.62,1.21-2.62,2.62-2.62h0Z"/>
      <path class="cls-2" d="M191.76,230.93l-2.72,1.61v17.25c4.24-4.54,5.55-7.97,4.34-10.09.91-3.33.71-6.36-1.61-8.78h0Z"/>
      <polygon class="cls-12" points="180.56 243.03 194.78 243.03 194.78 237.18 180.56 237.18 180.56 243.03 180.56 243.03"/>
      <path class="cls-2" d="M190.24,265.44c-1.82-5.95-16.75-11.6-4.94-22.2v10.09c1.82,3.43,12.11,8.58,4.94,12.11h0Z"/>
      <polygon class="cls-2" points="237.47 272.8 234.24 276.13 236.76 278.75 240.9 274.92 237.47 272.8 237.47 272.8"/>
      <path class="cls-2" d="M232.02,269.07l-2.22,2.42-4.34-11,10.8,1.41-2.22,3.53,5.75,1.61c0-.1.3-5.25,1.61-6.05l.2-.2v-28.05l3.43-.2v29.06l1.72,5.45,6.96-1.41-2.22-3.53,10.59-1.11-3.73,11-2.32-2.72-12.71,7.87-11.3-8.07h0Z"/>
      <path class="cls-2" d="M243.62,221.95c3.23,0,5.85,2.52,5.85,5.55s-2.62,5.65-5.85,5.65-5.85-2.52-5.85-5.65,2.62-5.55,5.85-5.55h0ZM243.62,227.7c1.41,0,2.62,1.21,2.62,2.62s-1.21,2.62-2.62,2.62-2.62-1.21-2.62-2.62,1.21-2.62,2.62-2.62h0Z"/>
      <path class="cls-2" d="M247.86,230.93l-2.72,1.61v17.25c4.24-4.54,5.55-7.97,4.34-10.09.91-3.33.71-6.36-1.61-8.78h0Z"/>
      <polygon class="cls-12" points="236.66 243.03 250.89 243.03 250.89 237.18 236.66 237.18 236.66 243.03 236.66 243.03"/>
      <path class="cls-2" d="M246.35,265.44c-1.82-5.95-16.75-11.6-4.94-22.2v10.09c1.82,3.43,12.11,8.58,4.94,12.11h0Z"/>
      <path class="cls-2" d="M164.82,292.18v10.59c11.3-2.52,20.18,4.24,34.51.5,24.82-8.27,33.8,5.15,52.47-1.11,1.21-2.22,2.52-4.94,4.04-7.77-15.03,6.05-33.5-8.27-51.86.5-9.69,1.72-23.31,4.64-39.15-2.72h0Z"/>
      <path class="cls-2" d="M164.92,308.52v7.47c13.72-3.23,24.52,4.74,38.44-.61,12.92-6.46,21.09,2.32,38.85.2l4.74-6.16c-16.95,1.72-28.25-7.27-42.08-2.02-15.34,6.86-23.11-3.43-39.96,1.11h0Z"/>
      <path class="cls-2" d="M164.92,320.93v7.27c10.9-2.32,19.58,3.83,31.78,1.11,11-4.34,21.09-3.83,30.88.2,1.72-1.61,3.43-3.13,5.15-4.64-9.28-5.35-20.79-7.67-37.44-2.22-9.99,2.72-18.06-3.43-30.37-1.72h0Z"/>
      <path class="cls-2" d="M164.92,334.35v7.27c11.91-.91,23.91-.4,36.02,2.42,5.65-2.42,11-5.05,16.14-7.97-9.38-4.04-17.96.1-26.94-.1-8.27-.2-10.8-3.63-25.23-1.61h0Z"/>
      <path class="cls-16" d="M83.79,94.5h160.44c-47.83-28.35-110.69-27.14-160.44,0h0Z"/>
      <path class="cls-6" d="M80.86,94.1h164.33c1.67-.78,1.56-3.57-.31-4.69-48.77-27.14-113.58-25.24-163.18,1.12-1.25,2.46-1.25,2.68-.83,3.57h0Z"/>
      <path class="cls-3" d="M81.57,90.77l-5.65-10.09c-4.84-.71-5.85-2.42-3.43-5.35l-13.22-24.62c-2.02.3-3.94-.3-5.65-1.72-2.83-6.16-5.65-12.31-8.48-18.36,2.42-1.72,5.05-2.93,8.27-3.83,1.01,2.02,2.12,4.04,3.23,6.05,1.51-.81,3.03-1.51,4.54-2.22-.71-2.12-1.41-4.24-2.12-6.46,2.22-1.51,4.44-2.32,6.66-2.83l8.68,19.58,4.94-.5,3.23,8.27,4.54-1.51-2.72-9.28,3.23-2.62c-2.32-6.46-4.64-12.92-6.96-19.37,2.22-1.11,5.05-2.22,8.68-3.53.71,2.02,1.41,4.04,2.12,5.95,1.61-.4,3.33-.81,5.05-1.31-.71-2.02-1.41-4.04-2.02-6.16,4.44-1.51,8.98-2.52,13.72-3.23.5,2.02,1.11,3.94,1.72,5.85,1.72-.3,3.53-.61,5.35-.91-.4-2.02-.71-4.04-1.01-6.05,3.43-1.01,6.76-1.61,10.39-1.72l3.03,18.87,4.04,2.62,1.31,8.78,4.34-.5-1.31-9.28,5.65-2.22-1.51-22,8.68-.2.2,7.37-3.63.91v5.85l10.29.3V.36h12.71v14.33h5.45V.36h10.49l-.81,22.4,3.43,2.32-.2,8.88,3.83.5,1.31-9.18h2.52l2.83-1.51,3.23-20.58,8.68.91-.71,6.86,5.45,1.11,2.12-7.37,13.32,3.53-1.72,7.26,6.66,2.02,2.22-6.96,8.17,2.83-7.37,19.98,5.65,3.43-3.03,8.98,3.53,1.61,3.23-8.27,4.94.81v-4.14l6.86-16.55,8.27,3.23-2.22,5.85,5.25,2.22,3.23-5.55,7.47,3.83-10.7,20.99-2.83-.5-13.92,25.13c3.73,1.92,2.72,6.56-3.03,4.64l-5.25,9.99M48.37,37.59c6.56-4.14,13.32-7.37,20.18-9.79M51.2,43.75c6.46-3.73,13.12-6.86,20.38-9.38"/>
      <path class="cls-16" d="M77.43,40.92c-.4-.91-3.43-.5-3.73-1.51-6.56,2.52-13.52,5.55-20.48,8.88,2.02,1.82,4.04,2.52,6.05,2.22,1.31-3.33,12.01-6.86,18.16-9.59h0Z"/>
      <path class="cls-3" d="M59.07,31.74l2.32,6.36M66.33,36.58l2.02,4.94M82.88,22.36c13.62-5.75,27.95-9.28,42.99-11.7M85.4,29.32c13.82-5.05,27.75-8.58,41.77-11.3"/>
      <path class="cls-16" d="M87.83,35.07c-.1-.4-.2-.3-.4-.81,12.41-4.34,26.13-7.77,39.96-10.59,1.41.91,2.83,1.82,4.34,2.62-15.74,2.42-31.58,6.46-47.12,12.21,1.11-1.21,2.22-2.32,3.23-3.43h0Z"/>
      <path class="cls-3" d="M87.83,20.44l2.12,7.37M103.57,15.19l2.42,7.47M119.21,11.76l1.72,7.37M114.26,20.64l1.51,5.45M96.5,25.69l1.51,4.94M62.9,57.27c13.62-6.16,27.24-11.5,40.97-15.44,3.73-1.11,7.57-2.12,11.2-3.03,11.4-2.72,22.8-4.64,34-5.55M150.99,40.72c-26.24,1.41-51.46,7.57-75.27,19.78M78.95,66.15c24.02-11.3,49.04-17.25,74.87-18.97"/>
      <path class="cls-2" d="M105.79,62.62c-2.12-6.16-6.76-18.36,2.62-23.11,11.71-3.33,12.31,11.2,14.43,18.77-6.05,1.72-11.1,2.72-17.05,4.34h0Z"/>
      <path class="cls-8" d="M109.46,61.61c-1.63-4.75-5.13-15.48.39-18.52,6.61-2.57,8.4,9.96,10.04,15.79-4.67,1.32-5.83,1.48-10.42,2.72h0Z"/>
      <path class="cls-3" d="M72.29,75.74c32.59-14.63,63.97-21.9,94.04-22.1,30.07-.2,58.73,7.27,86.78,20.89M75.31,80.38c32.59-15.44,60.95-21.8,91.02-22,30.07-.2,56,6.96,84.05,20.58M78.34,85.32c32.59-15.44,58.12-20.89,88.19-21.09,30.07-.2,53.08,6.05,81.13,19.68M83.59,63.93l2.32,5.85M64.42,45.46l4.14,9.38M70.67,42.64l19.58,18.47,2.62-27.14M76.02,51.32l3.73,7.47M85.1,47.89l2.12,7.16M96.3,43.75l2.12,6.96M98.42,32.75l3.03,9.48M107.3,30.33l1.92,8.88M117.59,27.5l2.22,9.79M122.84,36.58l1.92,6.76M90.25,61.31l2.22,5.85M96.3,58.48l3.03,6.76M127.08,50.31l1.72,6.96M135.96,49.2l1.31,6.26M146.25,47.68l.91,6.76M84.19,76.14l2.22,5.15M92.47,79.17l1.92,4.74M95.19,72l1.72,5.15M102.15,75.43l1.72,5.25M105.99,67.86l1.51,5.45M113.05,71.6l1.51,5.35M116.79,64.84l1.01,5.45M123.45,68.97l1.31,5.35M127.58,62.21l1.01,5.65M134.65,66.76l.81,5.45M138.98,60.5l.81,5.65M145.44,64.84l.61,5.85M149.98,58.78l.4,6.05M156.64,64.43l.2,5.55M162.39,58.28v5.65M167.34,63.93l.3,5.85M173.59,58.28l-.4,6.16M179.04,64.43l-.5,5.55M121.93,26.8l13.82,22.2,10.29-25.43"/>
      <path class="cls-2" d="M61.99,56.16l10.39,19.27,9.69-3.83c-3.23-7.16-7.87-20.69-20.08-15.44h0Z"/>
      <path class="cls-1" d="M64.32,60.7l8.07,14.73,5.85-2.32c-3.23-7.16-7.27-16.35-13.92-12.41h0Z"/>
      <path class="cls-16" d="M141.51,21.45c13.82-.71,27.55-.5,41.57.4l2.62,2.72c-15.03-.91-31.18-1.41-45.91-.1l2.22-1.51-.5-1.51h0Z"/>
      <path class="cls-3" d="M141.1,9.04h4.34M141.31,15.8l4.34-.5M173.9,8.43l10.09.61M173.9,14.89l10.09.71M178.84,8.84l-.71,6.26"/>
      <path class="cls-17" d="M163.91,2.28c8.48,0,15.54,11.6,15.54,25.83s-7.06,25.83-15.54,25.83-15.74-11.6-15.74-25.83,7.06-25.83,15.74-25.83h0Z"/>
      <path class="cls-13" d="M163.83,8.23c2.41,0,4.36,5.22,4.36,11.65s-1.95,11.65-4.36,11.65-4.36-5.22-4.36-11.65,1.95-11.65,4.36-11.65h0Z"/>
      <path class="cls-4" d="M152.71,19.43l.2,8.78,8.68,3.33c-.71-5.55-3.63-9.59-8.88-12.11h0Z"/>
      <path class="cls-4" d="M175.01,18.72l-.2,8.78-8.68,3.33c.71-5.55,3.63-9.59,8.88-12.11h0Z"/>
      <path class="cls-4" d="M162.7,34.67c-.61,1.82-1.21,3.73-1.82,5.65.71,2.72,1.92,4.34,3.63,5.85,1.41-1.51,2.22-3.63,3.13-5.65l-2.62-5.55-2.32-.3h0Z"/>
      <path class="cls-4" d="M159.67,34.16c-1.21,2.42-2.32,3.83-4.54,4.64,1.72,1.11,3.43,1.61,5.65,1.41.5-1.92,1.11-3.73,1.72-5.55-1.01-.2-1.92-.4-2.83-.5h0Z"/>
      <path class="cls-4" d="M167.74,33.66c1.01,2.12,2.93,3.33,4.94,4.24-1.92,2.62-3.53,2.72-5.05,2.62-.71-1.92-1.51-3.73-2.32-5.55,1.01-.5,1.51-.91,2.42-1.31h0Z"/>
      <path class="cls-5" d="M163.4,30.23c2.84,0,5.15,1.08,5.15,2.42s-2.3,2.42-5.15,2.42-5.15-1.08-5.15-2.42,2.3-2.42,5.15-2.42h0Z"/>
      <path class="cls-9" d="M163.91,2.28c8.48,0,15.54,11.6,15.54,25.83s-7.06,25.83-15.54,25.83-15.74-11.6-15.74-25.83,7.06-25.83,15.74-25.83h0ZM163.91,3.39c7.87,0,14.43,11.1,14.43,24.72s-6.56,24.72-14.43,24.72-14.63-11.1-14.63-24.72,6.56-24.72,14.63-24.72h0Z"/>
      <path class="cls-3" d="M162.5,12.67c-.61,1.61-.61,3.23-.4,4.84M199.22,9.74c15.03,2.22,29.46,5.65,42.88,10.8M198.42,17.11c14.53,1.72,28.35,5.05,41.57,10.19M203.77,10.55l-.61,6.96M220.21,14.08l-1.31,6.46M237.87,19.03l-1.51,6.56"/>
      <path class="cls-16" d="M197.31,23.37c15.24,2.02,28.46,5.25,40.26,9.59,1.82,1.21,3.63,2.52,5.45,3.83-.1.3-.2.71-.2,1.11-15.03-6.46-30.98-10.7-47.83-12.31.81-.81,1.61-1.51,2.32-2.22h0Z"/>
      <path class="cls-3" d="M179.04,28.11l6.86,19.78,15.14-21.9M209.21,18.62l-3.94,17.96M229.6,23.77l-5.15,17.15M178.54,33.96c20.08-1.31,62.96,10.6,84.26,22.3M176.42,40.92c9.48.1,18.57,1.21,27.35,3.03M174.1,47.68c9.38-.4,18.77.4,28.35,2.42M177.53,47.48l-.4,6.26M185.91,48.09l-.4,6.36M196.9,49l-.91,6.76"/>
      <path class="cls-2" d="M200.74,56.36l2.83-11.7c6.16-11.5,19.37-7.16,17.86,4.74l-2.52,11.3-18.16-4.34h0Z"/>
      <path class="cls-1" d="M204.67,56.87l2.83-11.7c3.53-6.66,11.5-3.53,9.99,2.52l-2.52,11.3-10.29-2.12h0Z"/>
      <polygon class="cls-16" points="251.19 39.61 266.83 48.69 270.06 49.3 271.17 47.58 251.69 36.28 251.19 39.61 251.19 39.61"/>
      <path class="cls-3" d="M233.63,33.25l1.92,26.74,19.17-18.47M255.83,24.98c7.06,2.72,14.33,5.95,21.69,10.49M253.31,31.03c7.37,2.32,14.43,5.85,21.19,10.19M221.52,48.19c9.59,2.32,18.97,5.85,28.25,11.3M220.72,53.94c9.49,2.72,18.16,6.26,26.03,10.8M201.75,35.78l-1.61,7.67M216.88,28.61l-2.52,8.78M227.88,42.34l-2.83,7.16M241,46.78l-2.72,6.86M266.53,30.23l-2.42,5.25M259.67,33.86l-3.33,6.26M269.25,38l-3.83,7.16M260.78,44.56l-4.14,8.07M251.39,50.91l-3.23,7.16M228.69,56.97l-1.92,5.85M235.55,59.79l-2.22,6.36M242.61,62.52l-2.12,6.05M184.19,59.19l-.5,5.85M189.94,65.54l-1.11,5.85M195.69,60.3l-1.11,6.05M200.94,67.16l-1.92,6.16M209.21,63.32l-1.72,4.94M212.75,70.29l-1.92,5.25M221.02,66.65l-1.41,4.94M224.85,73.82l-1.92,6.05M231.92,71.09l-2.12,4.64M234.44,77.96l-2.22,5.55M241.81,74.42l-2.12,5.45"/>
      <path class="cls-2" d="M244.33,70.29l8.78,4.34,10.7-19.58c-9.49-2.93-15.04,3.53-19.47,15.24h0Z"/>
      <path class="cls-16" d="M247.05,71.4l6.05,3.23,8.78-16.25c-6.86-2.32-9.08,1.72-14.83,13.02h0Z"/>
      <path class="cls-4" d="M35.15,267.35c1.51-12.51,1.51-23.61-2.32-34.91,2.02-6.76,1.72-19.88.61-29.16,3.43-2.22,3.73-18.36,0-29.67,2.42-4.34,3.13-31.08,1.11-40.77-1.51.4-1.72-.3-3.23,0-3.53,8.07-5.25,33.5-3.63,40.06-2.52,10.7-2.42,21.49-.5,32.49-2.12,10.09-.3,22,.91,31.08-1.72,14.33-.3,23.41,1.82,31.18-1.92,8.88-.5,15.94,4.04,21.39-3.94,3.33-2.12,10.29-.2,17.76,2.72-.3,4.54-.5,7.37-.71.2-5.65.1-11.3-3.23-17.96,1.41-6.96,1.01-14.13-2.72-20.79h0Z"/>
      <path class="cls-3" d="M33.54,288.54l4.14-.2M29.91,267.66l5.05-.5"/>
      <path class="cls-11" d="M18.91,139.31c.4-18.77,1.72-37.74,9.18-57.62,2.32-.71,4.84-.61,7.47-.5-.2,17.15-.3,34.31-.4,51.46-1.51.1-2.93.2-4.34.2-1.11-15.74-2.22-31.48-3.23-47.22.4,6.66.91,13.22,1.41,19.78-5.15,10.49-7.67,22.2-10.09,33.9h0Z"/>
      <path class="cls-11" d="M30.82,130.53c2.22-14.53,5.85-29.16,9.79-43.99,2.83,1.51,5.95,1.21,9.18.5-.5,16.45,1.82,31.89,6.36,46.72-7.06-12.51-12.92-27.04-15.54-45.61-.2,5.45,1.92,10.8,3.23,15.94-3.23.1-6.46,12.61-8.88,28.76-1.41-.1-2.83-.2-4.14-.2v-2.12h0Z"/>
      <path class="cls-11" d="M10.43,200.55c-2.62-18.67-.61-38.55,4.34-59.43,1.31-.81,2.72-1.61,4.14-2.52,6.96,4.24,13.62,10.59,18.06,15.24-2.02,3.13-6.86,2.52-9.38,2.72-4.14-4.94-8.27-9.89-12.31-14.93,2.22,2.93,4.54,5.85,6.86,8.68-5.65,5.65-7.37,38.55-11.7,50.25h0Z"/>
      <path class="cls-11" d="M33.54,173.61c-1.82-.91-3.73-1.21-5.75-.91,4.74-13.62,10.09-27.24,16.04-41.07,2.22-.5,4.54-.1,7.06,1.21-1.31,17.56.1,32.79,3.43,46.52-5.95-14.43-10.39-28.86-11.91-43.49.61,4.44,1.21,8.78,1.82,13.12-3.63,8.27-7.16,16.45-10.7,24.62h0Z"/>
      <path class="cls-11" d="M26.68,204.49c3.53-10.6,8.98-21.39,16.45-32.29,2.32.61,4.54,1.31,7.06,1.21,1.61,14.53,4.64,27.04,7.77,39.35-7.97-9.18-13.92-20.99-15.54-39.15.4,3.33.81,6.66,1.21,9.89-3.43,2.02-6.86,13.32-10.29,19.88-2.93-1.51-5.15-1.01-6.66,1.11h0Z"/>
      <path class="cls-11" d="M14.17,248.69c-2.12-14.43-3.33-29.87-3.23-47.63.71-1.51,2.83-2.62,6.36-3.53,6.86,11.5,11.81,23.11,15.54,34.81-1.51,1.61-3.03,3.13-4.54,4.64-4.34-13.02-11.3-24.12-16.45-36.43,2.32,5.05,4.54,9.38,6.86,15.03-1.92,12.21-2.22,22.2-1.41,31.08-1.11.71-2.12,1.41-3.13,2.02h0Z"/>
      <path class="cls-11" d="M36.06,268.06c-1.01-1.61-2.83.61-3.94-1.11,2.42-10.49,6.26-25.02,11.2-35.92,2.72-.2,5.65.71,8.68,2.72-.2,19.17,1.11,35.22,3.03,50.86-5.35-16.35-10.39-32.59-12.61-49.04.71,4.54,1.51,9.08,2.32,13.62-2.22,8.07-5.35,14.13-8.68,18.87h0Z"/>
      <path class="cls-11" d="M10.03,311.85c-2.02-16.55-2.22-35.72-1.11-57.62,2.42-2.12,4.84-2.12,7.27-.2,4.34,7.37,8.68,14.73,13.02,22.1.3,5.45,1.72,9.89,4.34,12.92-.61.81-1.11,1.61-1.61,2.32-4.74-6.46-9.89-13.22-15.54-23.71-1.72-3.33-.81-8.48-.2-13.42-.91,21.39-3.03,40.66-6.16,57.62h0Z"/>
      <path class="cls-3" d="M59.98,304.89c1.41-7.47-.61-12.61-6.56-15.44,9.79-3.94,15.94-1.41,20.99,10.19,0,11,4.54,15.84,9.59,17.76-14.53,24.22-54.19,4.64-60.74,22.1M66.84,292.28c9.69,19.07-22.7,9.38-41.77,16.35-13.32,3.83-20.99,9.89-21.69,18.57-.5,7.47,9.28,11.6,7.06,20.99,7.47,0,18.16-.71,21.69-5.65-13.52-4.44-22.8-10.29-20.79-17.36M9.42,347.87c-7.06,1.01-9.18,5.35-6.76,13.12,3.43,9.69-8.78,14.63,2.83,20.79,21.19,10.9,42.58,9.49,64.07,1.51,5.75-3.53,0-11.91,3.13-17.86,4.34-11.2-3.03-12.11-8.98-14.63-15.44-2.42-21.9-8.37-3.23-8.17M20.52,351c-24.42,2.42-9.79,10.49,15.84,11.6,27.55-1.21,38.14-8.58,22.91-9.99M32.33,341.82l3.63,2.83c-3.13,7.47-3.73,13.32-.3,17.56M44.24,338.29c47.22-4.74,79.51,43.29,154.69,22.3M71.98,374.51c72.15,29.77,117.86,27.65,163.36,6.46,6.46-2.32,12.92-4.54,19.37-6.76,6.26-8.48-11.6-21.39,9.48-24.32,19.47-.81,13.12-13.32-5.55-9.99-19.98,6.96-37.13,15.44-59.74,20.69M264.61,292.38c-9.38,8.07-1.41,11.3,13.32,12.51,11.81.81,20.38,1.21,31.38,6.56,5.95,2.93,9.89,6.76,11.91,12.11,4.94,10.29-6.76,11.81-7.57,22.7M253.91,298.03c4.44,14.93-20.48,20.28.4,28.25,15.44,7.67,45.1,2.72,46.32,11.2M312.04,317.5c10.09,11.2,2.52,17.25-13.02,21.19-20.48,3.33-3.13,12.71-6.76,24.72M303.36,340.71c-15.44,3.94-11.6,5.75,11.1,5.55,16.25,1.51,5.35,13.32,7.87,19.98,4.14,13.32.1,15.64-6.76,18.67-24.62,10.09-57.01,6.86-62.06-9.89M264.61,339.1c8.88-.71,19.88-5.15,16.55,7.57-3.13,7.57-3.13,12.51-2.72,17.15M272.88,348.28c1.21,3.53-3.63,5.05-6.86,6.86-9.59-.91-6.16,9.49,19.98,8.68,34.31-1.61,41.67-13.52,21.29-14.33"/>
      <path class="cls-11" d="M310.12,156.16c-3.13-9.38,3.13-24.32-.71-26.13l-12.11-1.01v-5.05l11.1-.71-1.31-21.39-7.77-.71v-4.74h7.06l-1.61-21.69-19.27.4c2.62,33.9,3.53,67.2,3.73,100.7l-.71,53.58,21.59-73.26h0Z"/>
      <path class="cls-11" d="M287.21,107.32l-8.37-1.01c3.23,22.2,7.87,43.49,10.09,66.8l-1.72-65.79h0Z"/>
      <path class="cls-11" d="M284.89,252.12c3.73-32.89,10.09-65.49,19.88-97.37l16.45,1.72c-3.93,7.57-5.35,15.94-5.05,25.13l-10.39-.71-.4,4.74,10.49,1.41.71,3.03v1.41c-.71,0,0,.3-.71.3v.71h-.3v.61c-.4,0-1.11,1.41-1.41,1.41,0,.3-.3,1.31-.3,1.31h-.4c-.3.4-.61,1.72-1.01,1.72v1.01c-1.01,0-.61,8.48-.61,9.49l-.4.4-.3.3h-1.31l-.71.3-8.07-1.01c-2.02,0-2.02,2.02-2.02,3.73h3.73l7.37,1.41c-3.13,17.15-5.05,34.41-5.35,51.86-4.84.5-8.68-.3-12.21-1.41-5.55,17.96-6.96,30.98-6.66,41.77-.4,0-3.43.3-3.73,0v-.3h-1.31v-.4h-1.41c1.31-17.66,3.53-35.22,5.45-52.57h0Z"/>
      <path class="cls-11" d="M308.1,222.65l15.54,3.73-2.02,8.07-11.2-1.31-1.01,2.32,10.8,5.15-5.35,20.69h-7.77l-1.01,2.32,8.07,3.13-4.34,16.95-9.48-1.01-1.61,3.73,10.09,4.34-3.73,18.67-15.54-3.73c-1.51-13.82,2.52-27.24,7.77-40.66l10.8-42.38h0Z"/>
      <path class="cls-3" d="M301.74,276.53l8.38,3.43M303.36,274.82l8.07,2.72M292.96,302.37l-3.43-.71M292.56,299.24l-3.03-.61M292.56,297.22l-2.62-1.01M293.27,294.9l-3.33-.71M293.97,293.49l-4.44-1.72M292.96,288.44l-2.42-1.01M295.29,284.41l-3.73-.71M295.99,280.67l-2.72-1.11M293.27,276.23c.71,0,1.01,0,1.31.3v.4h.4v.3h.3l.4.3M269.66,298.23l6.16,3.13M271.07,295.5c.61,0,1.01,0,1.31.4v.3l.3.4c-.3-.4,0,0,.71,0,0,.61,1.72,1.01,2.42,1.01M272.38,287.03c.3,0,1.01.4,1.01.71-.71-.71,0-.3.71,0v.71h.3v.71l.3.3c.4,0,.71.3,1.11.3,0,.71.3,0,.3.71h2.02M273.69,282.99c.4,0,1.01.71,1.41.71,0,.71.3,0,.3.71.4,0,2.02.61,2.42.61v.4h1.31M273.69,279.56c.4,0,1.41.71,1.41,1.41l.3.3h.71v.4c0-.4,0,0,.71,0v.3h1.31M274.7,273.21c0,1.01.71,1.31.71,1.61-.71-.61,0-.3.71,0l.71.71c-.71-.71,0,0,.61,0M275.81,268.77c0,.3,1.01,1.31,1.01,1.31-1.01-1.01,0,0,.61,0l.4.4M276.11,264.73c.3,0,2.02,1.01,2.02,1.61.3,0,1.72.4,1.72.71M276.42,261.3c.4,0,1.01.3,1.01.71.4,0,.71.3,1.01.3M276.42,257.26c.4,0,2.02,1.31,2.02,1.61.4,0,1.01.4,1.41.4M277.12,250.4c0,.4,2.32,2.42,2.32,2.42.4,0,1.01.3,1.41.3M277.43,246.06c0,.3.71,1.31,1.41,1.31M277.83,240.92c1.01.71,3.33,2.72,4.64,2.72M298.31,259.99l2.02,1.31h4.04M299.02,258.27c1.72.3,3.33.61,5.35.61M299.72,255.14c1.61.71,3.33.71,5.35.71M300.73,251.81c1.61.3,2.62,1.01,4.34,1.01M301.34,249.09c1.41.3,2.72,1.72,4.04,1.72M303.05,247.37c.3,0,2.02.4,2.02.71M302.75,241.62l-5.75-.3c.71.3,2.02.61,2.02,1.01l3.73-.71h0ZM303.36,237.18c-1.61,0-3.33-.3-5.05-.3,2.02,1.01,3.43,1.01,5.05.3h0ZM309.41,258.57l6.76.3M310.42,256.56h5.15l-2.72-1.72M285.3,274.31l-3.03.71M286.61,270.38l-3.33.91M287.82,266.34l-4.54-.1M286.1,263.62h-2.22"/>
      <path class="cls-16" d="M288.63,260.59h-4.84l4.14-30.88,2.72,1.51c.2.2-.3.5-.3.71-.5,0-.91,1.01-1.41,1.01.91-1.01.5,0,0,.3.2,0,.91.71,1.21.71,0,.3-.2.61-.3,1.01.3-.71.1-.4-.4,0,0,.1-.3.3-.5.3,0,.3.2.5.2.81.3.2.81.4,1.01.71-.2,0-1.21.3-1.21.81-.5.4-1.01,1.72,0,1.72l.2.71h.2v.3c-.4,0-1.41,1.01-1.72,1.01,0,.5.71.91.71,1.41.3,0,.81.61.81,1.01-1.01,0-1.51,1.11-1.51,2.02.2.2.3.3.5.3,0,.2.2.5.2.71-.2,0-.71.2-.71.3-.3,0-.5.2-.5.5.2,0,.71.5.71.5v.71c-.2,0-.5.3-.71.3,0,.5.71,1.01,1.01,1.01,0,.2.2.71.2,1.01-.91,0-3.03.71-1.92,1.61l.4.1c.1.4.3.71.3,1.21-.3.2-1.01.71-1.31.81v.4h-.2c-.2.1,2.02,2.62.2,2.62-.4-2.52,1.82,0,0,.4.1,0,.5.5.61.5l2.22,1.82h0Z"/>
      <path class="cls-16" d="M278.23,229.21l.5-19.68c.5-.1,1.72.91,2.22.91,0,2.52-2.22.3,0,2.52v.2h-1.21c0,.5.3,1.82.81,1.82,0,.3-.81.71-.81,1.51.5.3,1.82.91,2.22,1.21v.2c-.2.1-1.41.5-1.51.5,0,1.01,2.12,2.83,3.13,2.83v.5h-3.13c1.01,2.22,4.44,2.22,6.46,2.22,0,2.32-5.45-.2-7.37-.2,0,.5-.1,1.41-.1,2.02,1.61,0,3.43,1.51,3.43,3.23h-2.32l-2.32.2h0Z"/>
      <path class="cls-16" d="M270.36,215.79l3.83-.5c-.3,0-.71.5-.81.5h-.4l-.1.2c0,.2,0,.3-.2.3v1.11c.3.1,1.51.5,2.02.5-1.72-.4-.5,0,0,.3-.2,0-.5.3-.71.3,0,.2-.1.4-.3.4,0,.5-.3,1.31-.3,2.02.5.1,1.82,1.01,2.32,1.01v.5c-.81.1-1.01.61-1.72,1.01v1.31c.2,0,.5.2.71.2,0,1.01-.3,1.72-.3,2.72.5.5.61,2.32.3,3.13l-4.34-15.03h0Z"/>
      <path class="cls-16" d="M309.61,216.7l-3.13,13.32c-1.01-.2-6.05-1.21-6.05-1.82-.5-.2-.5-.4-.5-1.01,1.01,0,2.02-.4,3.03-.4,0,0,1.82-1.11,2.02-1.82.3-1.21.81-2.02.81-3.43-1.21-.3-3.73-.61-4.74-.61,0-.2-.5-.5-.61-.71v-1.21c1.51,0,4.64.2,5.85-.61v-.2l1.51-.81,1.82-.71h0Z"/>
      <path class="cls-16" d="M311.83,206v-1.11c0-1.01-.5-6.66,1.11-6.66v-1.01c-1.01,0-4.14-.1-3.13,0,.1,0,.81.4.81.4v.1l.3.2c-.1.3-1.82.5-2.12.5,0,.3.1,0,.1.3.4,0,.91.4,1.21.4l.2.1c0,.2-.4.5-.5.5-.4.91-2.22.91-3.03.91,2.62,0,.81,0,0,.3.81.2,2.62,0,2.62,1.31l-5.45.2v.5c1.61,0,3.83,1.01,5.35,1.01l.1.2c-.5.2-1.61.2-2.32.2,1.82,0,.71,0,0,.3l1.72.2v.1h.5c0,.4,1.01.71,1.11.71l1.41.3h0Z"/>
      <path class="cls-16" d="M289.33,180.37l-.71,1.51c0,.5.2,1.21.2,1.72,0,.3.1,1.11.1,1.51.5,2.32.2,7.27-.3,9.59-.71,2.93-.3,7.47-.3,10.49,0,3.33.61,6.96.61,10.09.71,0,1.41-1.01,1.41-1.61l-.2-.2-.2-.2c.2.2,0,0-.3,0,0-.5.5-1.01.5-1.51-.2,0-.2-.3-.2-.5.2-.1.5-.5.71-.5-.5.4-.2,0,0-.3-.3,0-.71-.3-1.01-.3,0-1.11,1.51-1.61,1.51-2.42-.3,0-1.01-.2-1.31-.2,0-.1,1.31-1.82,1.51-1.82-1.51,1.72-.2,0,0-.3-.4,0-1.01-.5-1.41-.5v-.91c.4-.3,1.41-1.31,1.41-1.72-.2,0-.91-.3-1.01-.3,0-1.01,1.82-1.72,1.82-2.72-.5-.1-1.51-.61-2.02-.61.3-.71,1.82-1.01,2.22-1.72-.5-.5-1.41-1.01-1.41-1.92,1.41-1.01.4-1.31.4-2.52.5-.3.3-2.12-.4-2.12v-.71c.4,0,.4-.5.71-.5,0-.5-1.31-3.03.2-3.03,0-1.21.1-1.01-.5-2.02-.2,0-.5-.4-.71-.4,0-.81.5-1.31.5-2.22-.2,0-.3-.1-.3-.3l-.4-.2-1.11-.61h0Z"/>
      <path class="cls-16" d="M297.91,180.37l1.01.3c0,1.01-1.01,1.92-1.01,3.23.1,0,.61.5.81.5,0,.2.2.5.3.5-.3-.3-.1,0,0,.3-.3.2-1.11.71-1.51.71-1.01,2.22,1.01,2.52,2.02,4.74-3.03,0-3.53.5-.5,2.52-2.83,0-3.33.5-3.33,3.23.81,0,2.83.2,2.83,1.31-1.01.2-2.12.2-3.13.2,0,.3-.2.81-.2,1.21.2-.91,0-.4,1.01.3v.5c-1.01.5-1.21.81-1.21,1.82.2,0,.5.2.71.2,0,.2-.5.5-.71.5v.71c1.21,0,2.52,2.02,4.04,2.02-2.83-2.02-1.51,0,0,.3h-4.34c.71.4,1.01.91,1.01,1.51-.81,0-2.02.71-2.72.91,0,.61.91.81.91,1.51h-.71l-.2.1c0,1.41,2.02,1.72,2.52,2.72-.61,0-1.61.91-2.32.91l-.2.1c0,.5.5,1.21.5,1.72-.3,0-.81.2-1.11.2,0,1.01,1.31,1.61,1.31,2.52-.5,0-1.31.2-1.82.2v.5c.1.1.3.3.3.5l.3.3c-.61,0-1.51.3-2.02.3,0,.91.91,2.02,1.41,2.52h-1.21c0,.5,1.51,1.41,1.51,2.12h-1.31c0,.61,1.11.81,1.11,1.51h-2.12c0,.81,1.51,1.31,1.51,2.32-1.01,0-2.22,1.21-3.23,1.21,0-1.92.3-3.73.81-5.45,1.72-6.56,1.72-14.33,3.53-20.99.4-1.31.4-3.53,1.01-4.64h.2c.71-1.21.5-3.43.81-4.74,1.01-3.03,1.01-7.47,2.42-10.29l1.01-2.72h0Z"/>
      <path class="cls-3" d="M267.84,180.98l4.84.5M267.64,174.62c.5-.91,1.51-1.01,2.32-1.21.71-.2,6.46-.3,6.46.2-5.75-.4,0-.5.3,0"/>
      <path class="cls-16" d="M278.94,192.38c-1.11-14.63-2.72-29.16-6.05-43.59.1,0,.5.5.5.5h.3c1.82,1.01,5.75.1,3.83,1.01v.1c-.3,0-.81.4-1.01.5-.3,0-1.11.2-1.31.4v.1l-.5.2c0,4.24,4.74,2.93,7.77,2.93,0-.2.3-.4.4-.4-.61,0-3.33,1.72-4.14,1.92-.71.1-1.72.1-2.32.1,0,1.21.1,4.44,2.02,4.44.5.71.81,2.22-.5,2.22,0,.1-.4.3-.71.3l-.2.2c0,2.12,2.93,1.82,4.44,1.82,0,.3-.2.71-.4,1.01l-3.53.2c0,1.11.5,1.11,1.21,1.82,0,1.41-1.21,2.52-.81,3.94.3,1.31,3.63,3.53,5.15,3.53,0,.2.2.3.3.3,0,.4,0,.71-.3,1.01h-4.14c0,.5-.2,1.41-.2,2.02.2,0,.3.2.3.4l6.26.3c0-.2.1-.2.3-.2-1.31,0-4.04,2.22-6.05,2.22,0,.71-.3,1.92-.3,2.72,2.22,0,1.51,2.52,1.51,4.04,1.72,0,2.83,1.01,4.34,1.51,0,.2.2.5.2.71-1.01,0-2.02-.5-3.03-.5,0,.3-.5,1.31-.3,1.72h.1v1.01h-.5l-2.62-.5h0Z"/>
      <path class="cls-16" d="M294.38,162.11c2.32,0,4.64-.2,6.66-1.01.2,0,.5-.4.71-.4,0-.3.2,0,.2-.3l.5-.2v-.1l.5-.2c0,.3-.2,1.51-.4,1.92h-.1c-.4.61-.71,2.12-.71,3.03-.3.3-1.21,2.83-1.21,3.53h-.5c0-.3-1.01-1.21-1.11-1.51-1.41,0-5.45-.4-3.43-1.21,1.01-.3,2.22-.81,3.43-.81l-4.54-2.72h0Z"/>
      <path class="cls-16" d="M304.57,155.05l-6.86,24.82c.3,0,2.22,0,2.22-.2v-1.01c.1-.2.5-.71.61-.71,0-.61-.3-1.01-.61-1.51h-.2s-.2-.5-.2-.61l.2-.2c-.2.2,0,0,.3,0,0-.3.4-.71.5-.71v-1.21h.91v-1.82c.1,0,.61-.2.61-.2v-.1c.5-.4.4-1.72.4-2.42h.61v-.1h.4c0-.91-.2-1.92-.2-2.62h.71v-1.61l.1-.2c1.72,0,1.92-2.52,1.92-3.73.91,0,.81-1.82.81-2.52h1.01c0-.71,1.82-2.02,1.82-2.83l-5.05-.5h0Z"/>
      <path class="cls-16" d="M318.49,162.41c0,.2-.1.91-.3.91,0,.3,0,2.02-.3,2.02,0,1.51-.91,3.23-1.41,4.34-.81.2-1.51-.3-2.32-.5-1.21-.3-6.36-.61-5.25-.61l.4-.4c1.82,0,4.04-.5,6.05-.5,1.31-2.72-2.02-1.82-3.94-1.82,1.72-.91,2.93-1.01,4.94-1.01,0-.4-.2-.91-.2-1.01-.2,0-.81-.5-1.01-.5.5,0,2.22-.2,2.22-.91h1.11Z"/>
      <path class="cls-16" d="M268.34,135.87c.3,0,1.51.4,1.51.5l9.38.2-7.57.71v.61c2.22,1.01,4.54,1.92,7.27,1.92-1.72,0-4.04.71-5.95.71,0,.81.5,1.51,1.21,1.82,0,2.72,7.06.5,8.07.5v.2c-.2.1-.3.3-.5.3-.5,1.21-6.36,2.32-7.77,2.32,0,.4-.1,0-.1.4-.2-.2-.4-1.01-.5-1.41h-.2c-1.01-1.11-2.72-3.33-3.33-4.84-.2-.4-1.01-2.02-1.21-2.02l-.3-1.92h0Z"/>
      <path class="cls-3" d="M269.86,125.58c2.32,0,4.34-.2,6.16-1.01M270.36,115.59c1.01,0,2.62.5,3.53-.1"/>
      <path class="cls-16" d="M287.41,113.47l1.41,50.65c2.12,0,1.51-1.01,1.51-2.22.61,2.22,0,1.21-.4,0,0-.61.71-1.01.71-1.72-.3,0-.5-.1-.71-.1,0-.4,0-1.01.5-1.01v-.5c-1.61,0,.5-2.42.71-2.52,0-.5-.81-.91-1.21-1.01,0-.91,1.21-.91,1.21-1.61-.3-.3-1.21-.81-1.21-1.31.5-.2,1.01-.81,1.51-1.01,0-.81-1.01-1.01-1.31-1.51.81-1.72,2.02-1.21.81-3.73,1.21,0,2.42.3,3.53.3-.5-.1-3.63-5.05-3.53-5.55.5-1.72.91-2.02.2-3.33v-.2h.2l-.71-.81c-.81-.91-.2-4.24-.2-4.24,0-.2.5-.71.71-.71,0-.3-.81-2.32-.2-2.32v-.5c-.3-.2-1.01-1.01-1.01-1.51l.2-.2h.3v-.2c.2,0,.4.2.4-.1l-.2.1c0-.81-.2-1.31-.71-1.31l-.1-.2c0-.71,1.01-1.82.61-2.52-.5-.81-1.01-2.22-.5-3.23,1.51,0,3.23.91,4.74.91,0-2.42-3.33-3.13-5.25-3.13.4-.61,1.92-1.31,2.72-1.31-2.32.71-.81,0,0-.3-.5-.4-1.31-1.01-2.02-1.21,0-.71.2-1.31.2-1.82h-2.02l-.91,1.01h0Z"/>
      <path class="cls-16" d="M309.41,150.3c0-4.24,1.21-8.17,1.21-12.21-4.14-.2-8.58,0-12.21-2.22-.4-.1-1.21-.5-1.51-.5.3.91,2.83,3.73,4.04,3.73v.71c-.4.3-.5.5-.5,1.01,2.32,1.21,7.47-.71,6.66,2.83-.61,2.93-6.56-1.11-7.87-1.11,0,1.82,3.53,2.52,4.84,2.52.4.3,2.42,1.01,3.03,1.01l.2.1v1.11l-.2.1c-.3,0-1.01.2-1.31.2,0,.71,1.01,1.01,1.61,1.21l.2.1,1.82,1.41h0Z"/>
      <path class="cls-16" d="M307.8,111.96l.5,10.29-8.37-.2c0-.71,4.64-2.22,5.55-2.22,0-.1.5-.5.5-1.01h-4.74c0-.71.81-1.01,1.31-1.21,1.92-.81.5-1.01,1.01-2.52.4,0,1.01-.61,1.41-.61v-.5c-.5,0-2.42-.4-2.52-.91.61-.1,2.62-.1,3.13-.5v-.1h.5l1.72-.5h0Z"/>
      <path class="cls-16" d="M305.98,88.25l-.71-8.27c-2.83,2.83-4.04,4.44-8.78,4.44.71,0,2.52,1.11,3.73,1.11v.91c-.81.81-3.03,1.82-4.34,1.31-.5-.2-1.51-1.51-2.02-1.51v1.72l.1.1c2.52,0,7.06,2.22,9.28,0h.2l.1-.1,2.42.3h0Z"/>
      <path class="cls-16" d="M285.3,75.03l2.32,37.44c.3-.2,3.23-.91,3.23-1.41-1.51,0-2.72-1.51-2.72-2.83.2-.2.5-.5.5-.91-.3,0,0-.1-.3-.1h.5c0-.71.61-1.01-.5-1.72,0-.2,1.61-1.72.5-1.72,0-.81,1.51-2.83-.5-2.83,0-.4.61-1.01.81-1.21.71-1.01-1.82-1.51.71-2.72,0-.3.1-.71.1-1.01-.3-.2-1.01-.81-1.31-.81,0-1.01.81-1.72.81-2.93-.81-.81-.81-1.31-.81-2.52.2,0,.71-.2.71-.2v-.1c.5-.4,2.12-1.72.1-1.72l-.1-.2c0-.5-.2-1.31-.2-2.02-.3-.1-.71-.61-1.21-.81l.2-3.43c.81-.1.81-1.51.2-2.12-.91-.91-.2-1.51-.2-2.62-.2,0-.5-.1-.71-.1,0-.4-.1,0-.1-.4l.1-1.31-2.12.3h0Z"/>
      <path class="cls-11" d="M273.09,330.52c.1,2.42.2,4.94.3,7.47,7.47-1.31,10.09,1.41,7.77,8.48-2.32,5.65-3.43,11.3-3.03,16.95h2.72c2.42-10.39,4.94-20.89,8.37-31.18-5.45-.61-10.8-1.21-16.14-1.72h0Z"/>
      <line class="cls-3" x1="280.15" y1="338.59" x2="280.15" y2="331.53"/>
      <path class="cls-18" d="M272.92,383.61l-3.02-.37,1.4-11.4c-1.23.9-2.63,1.5-4.19,1.81l.34-2.74c.82-.16,1.74-.54,2.75-1.15,1.01-.61,1.75-1.37,2.21-2.29l2.45.3-1.95,15.84h0ZM280.6,375.73c-.77-.37-1.32-.86-1.64-1.46-.33-.6-.47-1.25-.44-1.94.06-1.18.52-2.14,1.39-2.87.87-.73,2.06-1.06,3.59-.98,1.51.08,2.66.53,3.45,1.34.79.82,1.16,1.82,1.1,3-.04.74-.27,1.38-.68,1.94-.41.55-.97.96-1.68,1.23.86.4,1.5.95,1.93,1.65.42.7.61,1.5.56,2.38-.08,1.47-.61,2.63-1.59,3.5-.98.87-2.25,1.26-3.8,1.18-1.45-.08-2.63-.52-3.55-1.32-1.09-.96-1.59-2.21-1.51-3.77.05-.86.3-1.63.76-2.33.46-.69,1.16-1.21,2.1-1.55h0ZM281.39,372.69c-.03.61.11,1.09.44,1.44.33.36.77.55,1.34.58.58.03,1.05-.11,1.41-.44.36-.33.56-.79.59-1.4.03-.57-.12-1.04-.44-1.4-.33-.36-.77-.56-1.33-.59-.58-.03-1.06.12-1.42.44-.36.33-.56.78-.59,1.35h0ZM280.75,379.48c-.04.84.14,1.5.54,2,.4.49.93.75,1.57.79.63.03,1.16-.16,1.6-.59.43-.43.67-1.07.72-1.92.04-.74-.14-1.35-.53-1.83-.39-.47-.91-.73-1.56-.76-.74-.04-1.31.19-1.7.68-.39.49-.6,1.04-.64,1.64h0ZM289.42,380.27l2.9-.61c.16.74.46,1.29.91,1.65.44.36.96.52,1.54.47.63-.05,1.13-.34,1.52-.85.39-.51.54-1.17.47-1.98-.07-.76-.32-1.35-.77-1.76-.45-.41-.97-.59-1.56-.54-.39.03-.85.15-1.37.35l.12-2.5c.82-.05,1.44-.28,1.83-.7.4-.42.57-.94.52-1.56-.05-.53-.24-.94-.59-1.23-.35-.29-.78-.41-1.31-.37-.52.05-.95.26-1.28.66-.34.39-.52.94-.53,1.63l-2.84-.23c.11-.98.34-1.77.68-2.37.34-.61.85-1.1,1.52-1.49.68-.39,1.45-.62,2.32-.7,1.49-.13,2.73.24,3.71,1.11.81.71,1.26,1.56,1.34,2.54.12,1.39-.54,2.57-1.99,3.52.92.12,1.68.49,2.29,1.12.6.63.95,1.42,1.03,2.38.12,1.39-.28,2.62-1.21,3.69-.93,1.07-2.15,1.67-3.66,1.8-1.43.13-2.66-.18-3.67-.92-1.02-.74-1.66-1.77-1.92-3.09h0ZM301.49,379.23l2.92-.88c.21.66.57,1.14,1.07,1.45.49.31,1.02.42,1.56.31.62-.12,1.11-.48,1.44-1.07.33-.59.4-1.4.2-2.42-.19-.96-.54-1.63-1.07-2.03-.52-.4-1.13-.53-1.81-.39-.86.17-1.55.7-2.09,1.59l-2.5.12-.05-8.42,7.91-1.54.54,2.8-5.64,1.1.05,2.74c.6-.46,1.25-.76,1.95-.9,1.33-.26,2.55,0,3.65.79,1.11.79,1.82,1.95,2.12,3.49.25,1.28.1,2.5-.45,3.65-.75,1.57-2.02,2.53-3.82,2.88-1.44.28-2.69.12-3.75-.47-1.06-.6-1.81-1.53-2.23-2.8h0Z"/>
      <path class="cls-18" d="M99.39,375.18l-2.81-1.14-.06-3.71-5.12-2.08-2.11,2.82-2.74-1.12,9.65-12.28,2.73,1.11.47,16.4h0ZM96.47,367.58l-.03-6.03-3.46,4.61,3.49,1.42h0ZM100.84,375.12l4.21-14.49,2.55.93,2.49,11.6,2.81-9.67,2.43.88-4.21,14.48-2.63-.95-2.48-11.34-2.75,9.45-2.43-.88h0ZM120.92,375.8l.52-2.5,5.78,1.49-1.22,5.91c-.69.46-1.61.79-2.77.98-1.16.18-2.29.14-3.38-.14-1.39-.36-2.53-1-3.43-1.91-.9-.92-1.48-2.05-1.75-3.4-.27-1.35-.26-2.73.04-4.15.32-1.54.89-2.84,1.72-3.9.83-1.05,1.87-1.75,3.12-2.1.95-.27,2.06-.25,3.33.08,1.65.43,2.86,1.14,3.62,2.15.77,1.01,1.14,2.23,1.13,3.67l-2.78-.13c-.04-.78-.27-1.45-.7-2-.43-.55-1.03-.93-1.8-1.13-1.17-.3-2.19-.13-3.05.52-.86.65-1.46,1.8-1.8,3.43-.36,1.76-.29,3.17.23,4.23.52,1.06,1.34,1.74,2.48,2.03.56.15,1.15.17,1.77.07.61-.1,1.16-.28,1.64-.52l.39-1.88-3.07-.79h0ZM127.86,383.17l2.13-15.04,5.72,1.01c1.44.25,2.46.58,3.07.96.61.38,1.07.96,1.36,1.72.29.76.38,1.58.25,2.47-.16,1.13-.59,2.01-1.29,2.64-.7.63-1.65.94-2.86.92.53.49.96,1,1.28,1.52.32.53.72,1.43,1.2,2.71l1.23,3.23-3.25-.58-1.5-3.62c-.53-1.29-.9-2.11-1.12-2.46-.21-.35-.46-.61-.73-.77-.27-.16-.72-.3-1.35-.41l-.55-.1-.89,6.28-2.72-.48h0ZM131.81,374.97l2.01.36c1.3.23,2.13.32,2.47.25.34-.07.62-.23.85-.5.22-.27.37-.63.44-1.08.07-.51,0-.94-.19-1.29-.2-.35-.51-.61-.94-.77-.21-.07-.87-.2-1.98-.4l-2.12-.38-.54,3.81h0ZM153.39,387.13l-2.97-.41-.8-3.6-5.41-.74-1.49,3.28-2.9-.4,6.93-14.39,2.89.4,3.75,15.86h0ZM149.02,380.46l-1.25-5.87-2.44,5.36,3.69.51h0ZM159.33,372.17h5.03c1.13,0,2,.1,2.59.29.8.26,1.48.73,2.05,1.4.57.67,1.01,1.49,1.3,2.46.29.98.44,2.17.44,3.6,0,1.25-.14,2.33-.42,3.24-.34,1.11-.82,2-1.46,2.69-.48.52-1.12.93-1.93,1.22-.61.22-1.42.32-2.44.32h-5.17v-15.23h0ZM162.08,374.75v10.09h2.05c.77,0,1.32-.05,1.67-.15.44-.12.82-.33,1.11-.63.3-.3.53-.79.72-1.47.18-.68.28-1.61.28-2.79s-.1-2.08-.28-2.71c-.19-.63-.45-1.12-.78-1.48-.34-.35-.76-.59-1.28-.72-.38-.1-1.14-.15-2.26-.15h-1.23ZM172.22,379.83c-.1-1.55.03-2.86.38-3.95.26-.8.64-1.53,1.14-2.18.5-.65,1.05-1.16,1.67-1.5.82-.47,1.78-.74,2.89-.83,2-.16,3.65.41,4.94,1.71,1.29,1.29,2.01,3.18,2.17,5.65.15,2.46-.33,4.42-1.43,5.9-1.11,1.48-2.66,2.29-4.65,2.45-2.02.16-3.67-.41-4.95-1.69-1.28-1.29-1.99-3.14-2.14-5.56h0ZM175.04,379.51c.11,1.72.55,3,1.31,3.83.77.83,1.7,1.2,2.79,1.12,1.09-.09,1.96-.59,2.61-1.53.64-.94.91-2.28.8-4.04-.11-1.74-.53-3.01-1.27-3.82-.74-.8-1.67-1.16-2.8-1.07-1.13.09-2.02.59-2.66,1.52-.64.92-.9,2.25-.79,4h0ZM186.52,381.32l2.61-.71c.28.97.7,1.65,1.25,2.04.55.39,1.23.52,2.06.39.88-.14,1.51-.45,1.9-.94.39-.49.56-1,.49-1.56-.05-.36-.18-.65-.4-.87-.22-.22-.57-.39-1.06-.5-.33-.08-1.09-.18-2.26-.32-1.51-.17-2.6-.51-3.26-1.01-.93-.7-1.47-1.64-1.63-2.84-.1-.77,0-1.52.31-2.25.31-.73.8-1.33,1.49-1.79.69-.46,1.55-.78,2.59-.94,1.7-.27,3.02-.05,3.98.64.96.7,1.55,1.73,1.77,3.11l-2.71.56c-.21-.76-.54-1.28-.96-1.55-.43-.28-1.02-.36-1.79-.24-.79.12-1.39.4-1.79.84-.26.28-.36.61-.32,1,.05.36.22.64.52.85.38.27,1.26.48,2.63.61,1.37.14,2.4.35,3.08.62.68.28,1.24.71,1.68,1.3.44.59.72,1.37.84,2.32.11.86,0,1.71-.34,2.53-.34.82-.87,1.48-1.61,1.97-.74.49-1.7.83-2.87,1.01-1.71.27-3.07.03-4.09-.7-1.02-.74-1.73-1.94-2.12-3.6h0ZM205.42,383.03l-2.83-14.9,5.67-1.35c1.42-.34,2.48-.45,3.18-.34.7.11,1.3.47,1.82,1.06.52.59.86,1.33,1.03,2.21.21,1.12.09,2.11-.35,2.98-.45.86-1.24,1.53-2.38,2,.66.24,1.22.54,1.68.91.46.36,1.13,1.05,1.99,2.05l2.18,2.52-3.22.76-2.56-2.78c-.91-.99-1.52-1.61-1.83-1.85-.31-.24-.62-.38-.93-.43-.31-.04-.77,0-1.39.16l-.54.13,1.18,6.22-2.69.64h0ZM206.48,373.79l1.99-.47c1.29-.31,2.09-.56,2.39-.75.3-.2.51-.47.63-.81.12-.34.15-.73.06-1.18-.1-.5-.29-.88-.59-1.13-.3-.25-.67-.37-1.13-.34-.22.02-.88.16-1.97.42l-2.1.5.72,3.78h0ZM218.54,379.53l-3.75-14.64,9.71-3.11.64,2.48-7.06,2.26.83,3.25,6.57-2.11.63,2.46-6.57,2.11,1.02,3.98,7.31-2.35.63,2.47-9.96,3.19h0ZM230.54,375.65l-4.43-14.4,2.6-1,4.44,14.4-2.6,1h0ZM233.06,369.09l2.4-1.35c.47.88,1.01,1.43,1.63,1.68.61.24,1.3.2,2.09-.14.83-.35,1.38-.82,1.67-1.39.29-.57.34-1.12.16-1.64-.12-.34-.3-.58-.56-.74-.26-.16-.63-.24-1.14-.22-.34,0-1.1.1-2.27.26-1.51.21-2.63.15-3.38-.16-1.05-.45-1.77-1.23-2.15-2.36-.25-.73-.3-1.48-.15-2.27.15-.79.52-1.49,1.09-2.12.58-.63,1.36-1.15,2.33-1.57,1.6-.69,2.93-.81,4.01-.38,1.07.44,1.86,1.3,2.35,2.59l-2.52,1.23c-.36-.68-.78-1.11-1.25-1.27-.47-.17-1.07-.09-1.79.22-.75.32-1.27.74-1.58,1.27-.2.34-.23.69-.11,1.06.12.34.34.57.68.7.43.17,1.32.15,2.69-.06,1.36-.2,2.4-.26,3.12-.17.72.1,1.35.38,1.9.84.55.47.98,1.15,1.28,2.05.28.81.34,1.67.18,2.55-.16.89-.55,1.66-1.17,2.32-.62.66-1.49,1.23-2.59,1.71-1.61.69-2.98.81-4.13.35-1.15-.46-2.08-1.45-2.79-2.97h0Z"/>
      <path class="cls-18" d="M21.77,383.65l-3.1-.42,1.23-11.38c-1.25.88-2.66,1.46-4.25,1.74l.3-2.74c.83-.15,1.77-.51,2.8-1.1,1.03-.59,1.77-1.34,2.22-2.26l2.52.34-1.71,15.82h0ZM29.16,375.52c-.81-.36-1.39-.84-1.76-1.43-.37-.59-.55-1.24-.55-1.93,0-1.18.42-2.15,1.27-2.9.85-.74,2.05-1.09,3.61-1.04,1.55.05,2.75.48,3.6,1.28.86.8,1.28,1.8,1.28,2.98,0,.74-.2,1.39-.59,1.95-.39.56-.94.98-1.65,1.26.9.38,1.59.92,2.06,1.62.47.69.7,1.49.7,2.37,0,1.47-.48,2.65-1.44,3.53-.96.88-2.23,1.3-3.82,1.25-1.48-.05-2.71-.47-3.7-1.26-1.16-.94-1.74-2.19-1.74-3.75,0-.86.22-1.64.66-2.35.44-.7,1.13-1.23,2.06-1.59h0ZM29.81,372.48c0,.61.17,1.09.53,1.44.35.35.82.54,1.41.56.59.02,1.06-.13,1.42-.47.35-.33.53-.8.53-1.41,0-.57-.17-1.03-.53-1.39-.35-.36-.81-.54-1.39-.56-.6-.02-1.08.14-1.43.47-.35.34-.53.79-.53,1.36h0ZM29.52,379.27c0,.84.22,1.5.66,1.99.44.48.99.74,1.65.76.64.02,1.18-.19,1.6-.62.42-.44.63-1.08.63-1.94,0-.74-.22-1.35-.64-1.82-.43-.47-.97-.71-1.63-.73-.76-.03-1.33.21-1.7.71-.38.5-.56,1.05-.56,1.65h0ZM42.06,367.88c1.56-.16,2.86.26,3.9,1.26,1.23,1.19,2.06,3.28,2.49,6.28.43,2.99.21,5.2-.66,6.62-.72,1.17-1.85,1.83-3.42,1.99-1.56.16-2.91-.3-4.04-1.38-1.13-1.08-1.91-3.14-2.35-6.18-.43-2.98-.2-5.18.66-6.59.72-1.17,1.85-1.84,3.41-2h0ZM42.42,370.4c-.37.04-.69.19-.95.45-.26.27-.43.71-.5,1.33-.1.81-.02,2.14.25,3.99.27,1.86.55,3.12.83,3.79.29.68.6,1.11.92,1.31.32.2.67.28,1.04.24.38-.04.69-.19.95-.46.26-.26.43-.71.5-1.33.1-.8.02-2.13-.25-3.98-.27-1.86-.55-3.12-.83-3.8-.29-.67-.6-1.11-.92-1.32-.33-.2-.67-.29-1.05-.25h0ZM51.89,373.65c-.87-.13-1.56-.44-2.08-.92-.52-.48-.87-1.06-1.07-1.73-.33-1.15-.21-2.2.39-3.15.6-.95,1.65-1.61,3.15-1.98,1.49-.37,2.75-.27,3.79.28,1.04.55,1.73,1.4,2.06,2.55.21.71.2,1.4-.01,2.05-.21.65-.62,1.21-1.22,1.67.97.13,1.77.47,2.42,1.02.64.55,1.09,1.25,1.34,2.12.41,1.43.29,2.7-.37,3.81-.66,1.12-1.76,1.86-3.29,2.24-1.42.35-2.71.27-3.87-.23-1.37-.6-2.28-1.65-2.72-3.17-.24-.83-.25-1.65-.04-2.45.22-.8.72-1.5,1.52-2.1h0ZM51.64,370.52c.17.59.47,1.01.91,1.25.43.25.93.3,1.49.16.57-.14.98-.42,1.22-.83.24-.42.28-.92.11-1.51-.16-.56-.46-.96-.89-1.21-.44-.25-.93-.31-1.49-.17-.58.14-.98.42-1.23.84-.24.42-.28.91-.12,1.47h0ZM53.28,377.2c.24.82.63,1.4,1.19,1.75.56.35,1.15.45,1.78.29.62-.15,1.07-.5,1.35-1.04.28-.54.3-1.22.06-2.05-.21-.72-.59-1.25-1.13-1.59-.54-.34-1.13-.43-1.76-.27-.73.18-1.21.57-1.42,1.15-.22.59-.24,1.17-.07,1.75h0Z"/>
      <path class="cls-18" d="M264.64,324.47l-3.04-.16.6-11.47c-1.17.98-2.52,1.68-4.05,2.1l.14-2.76c.8-.22,1.7-.66,2.66-1.34.97-.68,1.65-1.49,2.05-2.44l2.47.13-.84,15.94h0ZM281.49,313.92l-2.96-.14c.03-.61-.09-1.08-.35-1.42-.25-.33-.62-.54-1.1-.61-.63-.1-1.21.1-1.75.6-.53.5-.99,1.65-1.39,3.43.89-.77,1.89-1.06,3.01-.88,1.26.2,2.26.85,3,1.95.74,1.1,1,2.4.76,3.92-.25,1.61-.93,2.82-2.03,3.64-1.09.82-2.38,1.11-3.86.88-1.58-.25-2.79-1.07-3.62-2.46-.82-1.39-1.02-3.49-.57-6.3.46-2.88,1.31-4.87,2.58-5.97,1.27-1.1,2.75-1.52,4.45-1.25,1.19.19,2.12.68,2.8,1.47.68.79,1.02,1.84,1.03,3.15h0ZM273.63,319.4c-.15.98-.05,1.77.31,2.37.36.6.84.95,1.42,1.05.56.09,1.05-.06,1.5-.43.44-.38.74-1.06.9-2.05.16-1.02.08-1.8-.24-2.34-.32-.54-.79-.86-1.39-.95-.58-.09-1.1.06-1.57.45-.47.39-.78,1.03-.92,1.92h0ZM292.17,324.95l-.49,2.79-10.52-1.85c.3-1.03.82-1.97,1.56-2.82.74-.84,2.08-1.9,4.03-3.16,1.58-1.02,2.56-1.73,2.94-2.12.52-.55.84-1.12.94-1.73.12-.67.03-1.21-.27-1.64-.3-.42-.76-.69-1.4-.8-.63-.11-1.16,0-1.59.3-.43.31-.76.9-.97,1.77l-2.94-.83c.47-1.62,1.24-2.71,2.3-3.26,1.07-.55,2.3-.71,3.72-.46,1.54.27,2.69.91,3.42,1.89.74.99.99,2.1.78,3.34-.12.7-.37,1.35-.73,1.95-.36.59-.88,1.19-1.55,1.79-.45.4-1.22.95-2.32,1.65-1.1.7-1.8,1.17-2.11,1.41-.3.24-.56.48-.76.72l5.96,1.05h0ZM299.48,329.57l.72-3.12-6.34-1.46.6-2.6,8.99-8.29,2.49.57-2.27,9.83,1.92.44-.6,2.61-1.92-.44-.72,3.12-2.87-.66h0ZM300.8,323.84l1.22-5.29-4.78,4.47,3.56.82h0Z"/>
      <path class="cls-18" d="M30.46,328.6l-2.94.79-2.97-11.09c-.81,1.3-1.87,2.38-3.2,3.25l-.72-2.67c.7-.46,1.41-1.15,2.12-2.1.71-.95,1.11-1.93,1.19-2.96l2.39-.64,4.13,15.42h0ZM34.55,323.59l3-.57c.14.67.45,1.19.91,1.56.46.36.97.52,1.52.47.63-.06,1.15-.36,1.54-.91.39-.56.55-1.35.46-2.39-.08-.97-.37-1.68-.85-2.13-.48-.45-1.07-.64-1.76-.58-.87.08-1.62.53-2.24,1.36l-2.49-.14.84-8.38,8.03-.7.25,2.84-5.73.5-.24,2.73c.65-.4,1.32-.63,2.03-.69,1.35-.12,2.53.27,3.55,1.17,1.02.9,1.6,2.13,1.74,3.69.11,1.3-.16,2.5-.83,3.59-.91,1.49-2.28,2.31-4.1,2.47-1.46.13-2.69-.16-3.68-.86-.99-.7-1.64-1.71-1.93-3.02h0ZM50.96,310.43c1.54-.13,2.78.31,3.74,1.33,1.14,1.2,1.85,3.31,2.11,6.31.26,2.99-.07,5.19-.99,6.6-.76,1.16-1.91,1.8-3.45,1.93-1.54.13-2.83-.35-3.88-1.45-1.05-1.1-1.7-3.17-1.97-6.21-.26-2.98.07-5.17.99-6.57.76-1.16,1.91-1.8,3.44-1.94h0ZM51.18,312.95c-.37.03-.68.18-.95.44-.27.26-.46.7-.56,1.32-.14.8-.13,2.13.03,3.99.16,1.86.37,3.13.61,3.8.25.68.53,1.12.83,1.33.31.2.64.29,1.01.26.37-.03.69-.18.95-.44.27-.26.46-.7.56-1.32.14-.8.13-2.12-.03-3.98-.16-1.86-.37-3.13-.62-3.81-.25-.68-.53-1.12-.83-1.33-.31-.21-.64-.3-1.01-.26h0ZM69.03,320.87l.59,2.77-10.45,2.22c-.11-1.07.02-2.13.39-3.19.37-1.06,1.22-2.54,2.56-4.44,1.08-1.53,1.72-2.56,1.93-3.07.28-.7.36-1.35.23-1.96-.14-.66-.43-1.14-.86-1.42-.43-.28-.96-.36-1.59-.22-.62.13-1.07.42-1.36.88-.29.45-.37,1.12-.24,2l-3.03.33c-.17-1.68.13-2.97.91-3.89.78-.91,1.87-1.52,3.27-1.82,1.53-.33,2.83-.17,3.88.47,1.05.64,1.71,1.58,1.97,2.81.15.7.16,1.39.05,2.08-.12.69-.37,1.43-.77,2.24-.26.54-.77,1.34-1.53,2.4-.76,1.06-1.23,1.76-1.42,2.1-.19.34-.34.65-.44.96l5.92-1.26h0Z"/>
      <path class="cls-4" d="M36.06,331.63c3.13.4,5.85.4,8.48,0,.71,5.05.71,9.59-.71,13.12,6.26,9.28,5.25,13.32,3.43,16.65-1.92.2-3.83.4-5.75.71-3.03-9.38-4.74-17.76,1.82-17.05-6.05,1.82-6.05-.3-6.86-4.44-.4-2.42-.4-5.65-.4-8.98h0Z"/>
    </g>
  </g>
</svg>