<?xml version="1.0" encoding="UTF-8"?>
<svg id="Camada_2" xmlns="http://www.w3.org/2000/svg" viewBox="0 0 589.3 255.14">
  <defs>
    <style>
      .cls-1 {
        fill: #fff;
      }
    </style>
  </defs>
  <g id="Camada_1-2" data-name="Camada_1">
    <path class="cls-1" d="M481.62,16.37l-6.07-13.58-6.07,13.58h12.14ZM482.6,18.53h-14.09l-3.03,6.76h-2.78l11.56-25.29h2.64l11.56,25.29h-2.82l-3.03-6.76ZM439.11,14.99c2.5,0,4.42-.55,5.74-1.66,1.33-1.11,1.99-2.66,1.99-4.66s-.66-3.62-1.99-4.71c-1.32-1.1-3.24-1.64-5.74-1.64h-6.72v12.68h6.72ZM446.98,25.29l-5.78-8.13c-.65.07-1.32.11-2.02.11h-6.79v8.02h-2.67V0h9.47c3.23,0,5.76.77,7.59,2.31,1.83,1.54,2.75,3.66,2.75,6.36,0,1.97-.5,3.64-1.5,5-1,1.36-2.43,2.34-4.28,2.94l6.18,8.67h-2.93ZM400.39,25.51c-3.28,0-5.83-.94-7.66-2.82-1.83-1.88-2.75-4.61-2.75-8.2V0h2.67v14.38c0,2.94.66,5.13,1.99,6.58,1.32,1.45,3.24,2.17,5.74,2.17s4.46-.72,5.78-2.17c1.32-1.45,1.99-3.64,1.99-6.58V0h2.6v14.49c0,3.59-.91,6.32-2.73,8.2-1.82,1.88-4.36,2.82-7.64,2.82ZM363.98,2.31h-8.89V0h20.45v2.31h-8.89v22.98h-2.67V2.31ZM337.25,0h2.67v25.29h-2.67V0ZM320.07,22.98v2.31h-17.88V0h17.34v2.31h-14.67v9h13.08v2.28h-13.08v9.39h15.21ZM271.09,2.31v9.94h13.08v2.31h-13.08v10.73h-2.67V0h17.34v2.31h-14.67ZM251.23,22.98v2.31h-17.88V0h17.34v2.31h-14.67v9h13.08v2.28h-13.08v9.39h15.21ZM205.72,14.99c2.5,0,4.42-.55,5.74-1.66,1.33-1.11,1.99-2.66,1.99-4.66s-.66-3.62-1.99-4.71c-1.32-1.1-3.24-1.64-5.74-1.64h-6.72v12.68h6.72ZM213.59,25.29l-5.78-8.13c-.65.07-1.32.11-2.02.11h-6.79v8.02h-2.67V0h9.47c3.23,0,5.76.77,7.59,2.31,1.83,1.54,2.75,3.66,2.75,6.36,0,1.97-.5,3.64-1.5,5-1,1.36-2.43,2.34-4.28,2.94l6.18,8.67h-2.93ZM169.24,14.96c2.5,0,4.42-.55,5.74-1.64,1.33-1.1,1.99-2.64,1.99-4.64s-.66-3.62-1.99-4.71c-1.32-1.1-3.24-1.64-5.74-1.64h-6.72v12.65h6.72ZM169.31,0c3.23,0,5.76.77,7.59,2.31,1.83,1.54,2.75,3.66,2.75,6.36s-.92,4.81-2.75,6.34c-1.83,1.53-4.36,2.29-7.59,2.29h-6.79v7.98h-2.67V0h9.47Z"/>
    <path class="cls-1" d="M345.03,132.59c8.48,0,15.43-2.86,20.87-8.58,5.44-5.72,8.16-13.38,8.16-22.99s-2.72-17.27-8.16-22.99c-5.44-5.72-12.4-8.58-20.87-8.58s-15.47,2.86-20.98,8.58c-5.51,5.72-8.26,13.39-8.26,22.99s2.76,17.27,8.26,22.99c5.51,5.72,12.5,8.58,20.98,8.58M207.08,185.73c1.88,2.38,3.86,4.67,5.96,6.86,11.75,12.26,26.87,21.37,44.01,25.92,25.19,6.69,50.71,2.65,71.6-9.28l-.02-.03c18.48-10.57,33.36-27.31,41.22-48.27.43-1.15.19-2.37-.65-3.27-.84-.9-2.04-1.23-3.22-.87-6.49,1.94-13.47,2.92-20.95,2.92-12.01,0-22.78-2.51-32.31-7.52-9.54-5.01-16.99-11.97-22.36-20.87-5.37-8.9-8.05-19-8.05-30.3s2.68-21.4,8.05-30.3c5.37-8.9,12.82-15.85,22.36-20.87,9.53-5.02,20.31-7.52,32.31-7.52s22.24,2.39,31.54,7.17v-2.26c0-1.74,1.42-3.16,3.17-3.16h24.64c1.74,0,3.17,1.42,3.17,3.16v75.58c0,7.75.53,33.17-6.87,51.88-10.87,27.46-30.68,49.41-55.14,63.4h-.07c-28.39,16.24-63.01,21.76-97.11,12.71-23.23-6.17-43.75-18.54-59.71-35.2-5.13-5.35-9.78-11.14-13.91-17.3-.38-.57-.43-1.24-.14-1.85.29-.62.83-1.01,1.51-1.09,9.81-1.12,19.47-4.44,28.5-10.06.83-.51,1.9-.33,2.5.44Z"/>
    <path class="cls-1" d="M453.86,53.22c3.07-2.72,6.64-4.94,10.73-6.66,5.85-2.46,12.49-3.85,19.9-4.17.89-.04,1.68.26,2.32.88.65.62.98,1.39.98,2.29v23.88c0,.91-.34,1.69-1,2.31-.66.62-1.47.71-2.37.85-30.15,4.53-34.34,32.29-34.34,56.83v25.43c0,1.74-1.42,3.17-3.17,3.17h-26.72c-1.74,0-3.17-1.42-3.17-3.17V47.18c0-1.74,1.42-3.17,3.17-3.17h25.24c1.74,0,3.17,1.42,3.17,3.17v3.67c0,1.27.71,2.36,1.87,2.89,1.16.52,2.45.33,3.4-.52"/>
    <path class="cls-1" d="M502.59,66.24c5.8-11.82,15.04-19.05,25.44-22.4,7.59-2.44,15.61-2.72,23.22-1.14,7.4,1.54,14.51,4.85,20.51,9.64,10.25,8.19,17.36,20.62,17.36,35.91v66.37c0,1.74-1.42,3.17-3.17,3.17h-67.69c-15.23,0-27.07-3.89-35.54-9.88-5.38-3.8-9.4-8.43-12.11-13.51-2.83-5.3-4.21-10.96-4.21-16.6,0-7.89,2.68-15.79,7.87-22.61.97-1.28,2.03-2.48,3.16-3.61,9.31-9.3,21.87-12.02,34.67-10.39,10.82,1.37,21.94,6.03,30.73,12.24,1.4.99,2.76,2.03,4.06,3.11.71.59,1.1,1.37,1.14,2.29.04.92-.27,1.73-.92,2.38l-17.16,17.18c-1.13,1.14-2.91,1.25-4.18.26-.44-.34-.89-.68-1.36-1.01-4.89-3.46-10.82-6.01-16.33-6.71-3.55-.45-6.62-.11-8.19,1.46-.15.15-.31.33-.48.56-1.16,1.53-1.77,3.22-1.77,4.86,0,1.03.22,2,.67,2.85.57,1.07,1.51,2.11,2.83,3.04,3.43,2.42,9.02,4,17.12,4h36.46c1.74,0,3.17-1.42,3.17-3.17v-36.28c0-5.52-2.46-9.92-6.01-12.76-2.13-1.7-4.63-2.87-7.21-3.41-2.37-.49-4.71-.45-6.75.2-2.5.8-4.85,2.66-6.65,5.76-.79,1.35-2.41,1.93-3.87,1.37l-23.09-8.82c-.86-.33-1.48-.94-1.82-1.8-.34-.86-.3-1.73.1-2.55"/>
    <path class="cls-1" d="M227.98,42.32c14.13,0,25.53,4.24,34.22,12.71,8.69,8.47,13.03,21.05,13.03,37.72v62.09c0,1.74-1.42,3.17-3.17,3.17h-26.72c-1.74,0-3.17-1.42-3.17-3.17v-57.01c0-9.04-1.98-15.79-5.93-20.24-3.96-4.45-9.68-6.67-17.16-6.67-8.33,0-14.97,2.58-19.92,7.73-4.95,5.16-7.42,12.82-7.42,22.99v33.8c0,.57-.23,1.07-.66,1.44-.04.03-.08.07-.12.1l.03.03c-8.07,6.85-17.18,9.89-26.07,9.38-1.59-.09-3.15-.29-4.69-.59-.9-.18-1.54-.95-1.54-1.86V47.18c0-1.74,1.42-3.17,3.16-3.17h25.24c1.74,0,3.17,1.42,3.17,3.17v2.95c0,1.24.66,2.3,1.78,2.85,1.11.54,2.36.41,3.34-.35,3.3-2.58,7.03-4.71,11.2-6.38,6.5-2.61,13.63-3.92,21.4-3.92"/>
    <path class="cls-1" d="M100.5,105.77l-19.43-44.47c-.51-1.18-1.61-1.89-2.89-1.9-1.28,0-2.38.71-2.9,1.88l-15.72,35.49c-.39.89-.34,1.82.16,2.66.5.83,1.3,1.33,2.26,1.4,8.76.67,17.47,2.4,25.94,5.29,2.95,1.01,5.87,2.15,8.74,3.44,1.11.5,2.35.27,3.22-.58.87-.86,1.1-2.1.62-3.21M.28,153.56L61.67,15.27c.52-1.17,1.61-1.88,2.89-1.88h29.78c1.28,0,2.38.71,2.9,1.88l60.83,137.49c.39.89,1.13,1.48,2.08,1.67,1.56.31,3.14.51,4.75.6,8.9.5,18-2.53,26.07-9.38l-.03-.03c.67-.57,1.33-1.16,1.97-1.76,1.12-1.05,2.86-1.05,3.98.01l19.66,18.72c.59.56.89,1.26.9,2.07,0,.81-.29,1.52-.87,2.09-1.41,1.39-2.83,2.68-4.24,3.89h-.06c-14.84,12.61-32.04,18.18-49.19,17.21-21.5-1.22-40.14-12.32-53.86-28.46-9.32-10.96-20.29-18.18-31.96-22.16-10.43-3.56-21.54-4.53-32.63-3.28-1.05.12-1.89.74-2.32,1.7l-9.07,20.46c-.52,1.17-1.61,1.88-2.89,1.88H3.18c-1.1,0-2.05-.51-2.65-1.44-.6-.93-.69-2-.24-3.01Z"/>
    <path class="cls-1" d="M583.6,223.22c-1.03,0-2.02-.12-2.97-.37-.95-.25-1.7-.56-2.25-.93l1.17-2.51c.55.34,1.21.62,1.96.84.76.22,1.5.33,2.23.33.81,0,1.38-.1,1.72-.29.34-.19.5-.46.5-.81,0-.28-.13-.5-.39-.64-.26-.14-.61-.25-1.04-.33-.43-.07-.91-.15-1.42-.22-.52-.07-1.04-.18-1.56-.3-.52-.13-1-.32-1.44-.57-.43-.25-.78-.6-1.04-1.03-.26-.43-.39-.99-.39-1.68,0-.76.22-1.44.66-2.02.44-.58,1.08-1.04,1.92-1.38.84-.34,1.84-.5,3.01-.5.82,0,1.66.09,2.51.27.85.18,1.56.44,2.13.79l-1.17,2.49c-.58-.34-1.17-.58-1.76-.71-.59-.13-1.16-.19-1.72-.19-.78,0-1.35.1-1.71.31-.36.21-.54.48-.54.81,0,.3.13.52.39.67.26.15.61.27,1.04.36.43.09.91.17,1.42.24.52.07,1.04.17,1.56.3.52.13,1,.33,1.42.57.43.25.77.58,1.04,1.01s.4.98.4,1.67c0,.75-.22,1.41-.67,1.99-.45.58-1.1,1.03-1.94,1.36-.85.33-1.87.49-3.08.49M571.37,223.22c-1.38,0-2.58-.27-3.62-.81-1.04-.54-1.84-1.27-2.41-2.21-.57-.93-.85-2-.85-3.2s.28-2.28.84-3.22c.56-.93,1.33-1.67,2.3-2.2.97-.53,2.07-.8,3.3-.8s2.25.25,3.2.75c.95.5,1.7,1.22,2.25,2.15.55.93.83,2.05.83,3.35,0,.13,0,.29-.02.46-.01.17-.03.33-.04.48h-9.8v-2.04h7.96l-1.35.61c0-.63-.13-1.17-.38-1.64-.25-.46-.61-.83-1.05-1.09-.45-.26-.97-.39-1.57-.39s-1.13.13-1.58.39c-.46.26-.81.63-1.07,1.1-.25.47-.38,1.03-.38,1.67v.54c0,.66.15,1.24.44,1.74.29.5.7.88,1.23,1.14.53.26,1.16.39,1.87.39.64,0,1.21-.1,1.69-.29.49-.19.93-.49,1.33-.88l1.86,2.02c-.55.63-1.25,1.11-2.09,1.45-.84.34-1.8.5-2.89.5ZM558.81,223.05v-2.47l.07-3.59-.22-3.57v-7.02h3.5v16.65h-3.34ZM555.64,220.35c.57,0,1.08-.13,1.55-.4.46-.27.83-.65,1.11-1.16.28-.5.42-1.1.42-1.78s-.14-1.3-.42-1.79c-.28-.49-.65-.88-1.11-1.14-.46-.27-.98-.4-1.55-.4s-1.11.13-1.57.4c-.46.27-.83.65-1.11,1.14-.28.49-.41,1.09-.41,1.79s.14,1.28.41,1.78c.28.5.65.89,1.11,1.16.46.27.99.4,1.57.4ZM555.04,223.22c-1.14,0-2.16-.26-3.07-.77-.91-.52-1.63-1.24-2.17-2.17-.53-.93-.8-2.02-.8-3.28s.27-2.37.8-3.3c.53-.93,1.25-1.65,2.17-2.15.91-.51,1.94-.76,3.07-.76,1.02,0,1.91.22,2.67.67.76.45,1.35,1.13,1.77,2.04.42.91.63,2.08.63,3.5s-.2,2.57-.61,3.49c-.4.92-.98,1.6-1.74,2.05-.76.45-1.66.67-2.73.67ZM539.65,223.22c-.94,0-1.75-.16-2.42-.48-.67-.32-1.19-.76-1.55-1.31-.36-.55-.54-1.17-.54-1.86s.18-1.35.53-1.88c.35-.54.91-.96,1.67-1.27.76-.31,1.76-.46,2.98-.46h3.21v2.04h-2.83c-.82,0-1.39.13-1.69.4-.31.27-.46.61-.46,1.01,0,.45.18.8.53,1.07.35.26.83.39,1.45.39s1.11-.14,1.57-.42c.46-.28.8-.68,1.01-1.22l.54,1.62c-.25.78-.72,1.37-1.39,1.77-.67.4-1.54.61-2.6.61ZM543.33,223.05v-2.36l-.22-.52v-4.22c0-.75-.23-1.33-.68-1.75-.46-.42-1.16-.63-2.1-.63-.64,0-1.27.1-1.9.3-.62.2-1.15.47-1.58.82l-1.26-2.45c.66-.46,1.45-.82,2.38-1.08.93-.25,1.87-.38,2.83-.38,1.84,0,3.27.43,4.29,1.3,1.02.87,1.53,2.22,1.53,4.06v6.89h-3.28ZM529.35,223.05v-2.47l.07-3.59-.22-3.57v-7.02h3.5v16.65h-3.34ZM526.18,220.35c.57,0,1.08-.13,1.55-.4.46-.27.83-.65,1.11-1.16.28-.5.42-1.1.42-1.78s-.14-1.3-.42-1.79c-.28-.49-.65-.88-1.11-1.14-.46-.27-.98-.4-1.55-.4s-1.11.13-1.57.4c-.46.27-.83.65-1.11,1.14-.28.49-.41,1.09-.41,1.79s.14,1.28.41,1.78c.28.5.65.89,1.11,1.16.46.27.99.4,1.57.4ZM525.58,223.22c-1.14,0-2.16-.26-3.07-.77-.91-.52-1.63-1.24-2.17-2.17-.53-.93-.8-2.02-.8-3.28s.27-2.37.8-3.3c.53-.93,1.25-1.65,2.17-2.15.91-.51,1.94-.76,3.07-.76,1.02,0,1.91.22,2.67.67.76.45,1.35,1.13,1.77,2.04.42.91.63,2.08.63,3.5s-.2,2.57-.61,3.49c-.4.92-.98,1.6-1.74,2.05-.76.45-1.66.67-2.73.67ZM515.39,209.29c-.64,0-1.17-.19-1.57-.56-.4-.37-.61-.84-.61-1.39s.2-1.02.61-1.39c.4-.37.93-.56,1.57-.56s1.17.18,1.57.53c.4.35.61.8.61,1.36,0,.58-.2,1.07-.59,1.45-.4.38-.92.57-1.58.57ZM513.69,223.05l-.04-12.07,3.48.02.02,12.05h-3.46ZM498.14,223.05v-12.07h3.34v3.34l-.63-1.01c.43-.81,1.05-1.43,1.86-1.86.81-.43,1.73-.65,2.76-.65.96,0,1.81.19,2.57.57.76.38,1.35.96,1.78,1.75.43.79.65,1.79.65,3.02v6.91h-3.5v-6.37c0-.97-.21-1.69-.64-2.15-.43-.46-1.03-.7-1.81-.7-.55,0-1.05.12-1.49.35-.44.23-.79.59-1.03,1.07-.25.48-.37,1.09-.37,1.84v5.97h-3.5ZM487.82,223.22c-1,0-1.9-.19-2.68-.58-.79-.39-1.39-.98-1.83-1.78-.43-.8-.65-1.82-.65-3.06v-6.82h3.5v6.3c0,1,.21,1.74.64,2.21.43.47,1.03.71,1.81.71.54,0,1.02-.12,1.44-.35.42-.23.75-.59.99-1.08.24-.49.36-1.1.36-1.83v-5.97h3.5v12.07h-3.32v-3.32l.61.96c-.4.84-1,1.47-1.78,1.9-.79.43-1.64.64-2.57.64ZM471.53,213.67v-2.69h8.37v2.69h-8.37ZM477.9,223.22c-1.42,0-2.53-.36-3.32-1.09-.79-.73-1.19-1.81-1.19-3.24v-10.59h3.5v10.54c0,.51.13.9.4,1.18.27.28.64.42,1.1.42.55,0,1.02-.15,1.41-.45l.94,2.47c-.36.25-.79.45-1.29.57-.5.13-1.02.19-1.56.19ZM462.96,223.05v-12.07h3.34v3.41l-.47-.99c.36-.85.93-1.5,1.73-1.94.79-.44,1.76-.66,2.89-.66v3.23c-.15-.01-.28-.03-.4-.03-.12,0-.25-.01-.38-.01-.96,0-1.73.27-2.32.82-.59.55-.89,1.39-.89,2.55v5.7h-3.5ZM454.01,220.35c.58,0,1.11-.13,1.57-.4.46-.27.83-.65,1.1-1.16.27-.5.4-1.1.4-1.78s-.13-1.3-.4-1.79c-.27-.49-.64-.88-1.1-1.14-.46-.27-.99-.4-1.59-.4s-1.08.13-1.55.4c-.46.27-.83.65-1.11,1.14-.28.49-.42,1.09-.42,1.79s.14,1.28.42,1.78c.28.5.64.89,1.1,1.17.46.28.98.41,1.58.39ZM454.01,223.22c-1.3-.01-2.45-.29-3.43-.82-.99-.53-1.76-1.26-2.33-2.19-.57-.93-.85-2-.85-3.21-.02-1.21.27-2.28.85-3.22.58-.93,1.37-1.67,2.36-2.2.99-.53,2.12-.79,3.39-.77,1.29-.01,2.43.24,3.43.77,1,.53,1.78,1.26,2.34,2.2.56.93.84,2.01.84,3.22.01,1.2-.26,2.26-.83,3.2-.57.93-1.35,1.67-2.36,2.2-1,.53-2.14.8-3.41.82ZM439.31,220.35c.58,0,1.1-.13,1.56-.4.46-.27.82-.65,1.1-1.16.28-.5.42-1.1.42-1.78s-.14-1.3-.42-1.79c-.28-.49-.64-.88-1.1-1.14-.46-.27-.98-.4-1.56-.4s-1.11.13-1.57.4c-.46.27-.83.65-1.1,1.14-.27.49-.4,1.09-.4,1.79s.13,1.28.4,1.78c.27.5.64.89,1.1,1.16.46.27.99.4,1.57.4ZM432.78,227.4v-16.42h3.34v2.47l-.07,3.59.22,3.57v6.8h-3.5ZM439.92,223.22c-1.02,0-1.91-.22-2.67-.67-.76-.45-1.36-1.13-1.78-2.05-.43-.92-.64-2.08-.64-3.49s.2-2.59.61-3.5c.4-.91.99-1.59,1.75-2.04.76-.45,1.68-.67,2.74-.67,1.14,0,2.16.26,3.06.77.9.52,1.62,1.24,2.15,2.17.53.93.8,2.02.8,3.28s-.27,2.37-.8,3.3c-.53.93-1.25,1.65-2.15,2.15-.9.51-1.93.76-3.06.76ZM423.83,220.35c.58,0,1.11-.13,1.57-.4.46-.27.83-.65,1.1-1.16.27-.5.4-1.1.4-1.78s-.13-1.3-.4-1.79c-.27-.49-.64-.88-1.1-1.14-.46-.27-.99-.4-1.59-.4s-1.08.13-1.55.4c-.46.27-.83.65-1.11,1.14-.28.49-.42,1.09-.42,1.79s.14,1.28.42,1.78c.28.5.64.89,1.1,1.17.46.28.98.41,1.58.39ZM423.83,223.22c-1.3-.01-2.45-.29-3.43-.82-.99-.53-1.76-1.26-2.33-2.19-.57-.93-.85-2-.85-3.21-.02-1.21.27-2.28.85-3.22.58-.93,1.37-1.67,2.36-2.2.99-.53,2.12-.79,3.39-.77,1.29-.01,2.43.24,3.43.77,1,.53,1.78,1.26,2.34,2.2.56.93.84,2.01.84,3.22.01,1.2-.26,2.26-.83,3.2-.57.93-1.35,1.67-2.36,2.2-1,.53-2.14.8-3.41.82ZM554.48,194.09c.58,0,1.11-.13,1.57-.4.46-.27.83-.65,1.1-1.16.27-.5.4-1.1.4-1.78s-.13-1.3-.4-1.79c-.27-.49-.64-.88-1.1-1.14-.46-.27-.99-.4-1.59-.4s-1.08.13-1.55.4c-.46.27-.83.65-1.11,1.14-.28.49-.42,1.09-.42,1.79s.14,1.28.42,1.78c.28.5.64.89,1.1,1.17.46.28.98.41,1.58.39ZM554.48,196.96c-1.3-.01-2.45-.29-3.43-.82-.99-.53-1.76-1.26-2.33-2.19-.57-.93-.85-2-.85-3.21-.02-1.21.27-2.28.85-3.22.58-.93,1.37-1.67,2.36-2.2.99-.53,2.12-.79,3.39-.77,1.29-.01,2.43.24,3.43.77,1,.53,1.78,1.26,2.34,2.2.56.93.84,2.01.84,3.22.01,1.2-.26,2.26-.83,3.2-.57.93-1.35,1.67-2.36,2.2-1,.53-2.14.8-3.41.82ZM542.16,196.78v-2.47l.07-3.59-.22-3.57v-7.02h3.5v16.65h-3.34ZM538.99,194.09c.57,0,1.08-.13,1.55-.4.46-.27.83-.65,1.11-1.16.28-.5.42-1.1.42-1.78s-.14-1.3-.42-1.79c-.28-.49-.65-.88-1.11-1.14-.46-.27-.98-.4-1.55-.4s-1.11.13-1.57.4c-.46.27-.83.65-1.11,1.14-.28.49-.42,1.09-.42,1.79s.14,1.28.42,1.78c.28.5.65.89,1.11,1.16.46.27.99.4,1.57.4ZM538.39,196.96c-1.14,0-2.16-.26-3.07-.77-.91-.52-1.63-1.24-2.17-2.17-.53-.93-.8-2.02-.8-3.28s.27-2.37.8-3.3c.53-.93,1.25-1.65,2.17-2.15.91-.51,1.94-.76,3.07-.76,1.02,0,1.91.22,2.67.67s1.35,1.13,1.77,2.04c.42.91.63,2.08.63,3.5s-.2,2.57-.61,3.49c-.4.92-.98,1.6-1.74,2.05-.76.45-1.66.67-2.73.67ZM517.61,196.78v-12.07h3.34v3.34l-.63-1.01c.43-.81,1.05-1.43,1.86-1.86.81-.43,1.73-.65,2.76-.65.96,0,1.81.19,2.57.57.76.38,1.35.96,1.78,1.75.43.79.65,1.79.65,3.02v6.91h-3.5v-6.37c0-.97-.21-1.69-.64-2.15-.43-.46-1.03-.7-1.81-.7-.55,0-1.05.12-1.49.35-.44.23-.79.59-1.03,1.07-.25.48-.37,1.09-.37,1.84v5.97h-3.5ZM512.61,183.02c-.64,0-1.17-.19-1.57-.56-.4-.37-.61-.84-.61-1.39s.2-1.02.61-1.39c.4-.37.93-.56,1.57-.56s1.17.18,1.57.53c.4.35.61.8.61,1.36,0,.58-.2,1.07-.59,1.45-.4.38-.92.57-1.58.57ZM510.91,196.78l-.04-12.07,3.48.02.02,12.05h-3.46ZM500.54,196.96c-1,0-1.9-.19-2.68-.58-.79-.39-1.39-.98-1.83-1.78-.43-.8-.65-1.82-.65-3.06v-6.82h3.5v6.3c0,1,.21,1.74.64,2.21.43.47,1.03.71,1.81.71.54,0,1.02-.12,1.44-.35.42-.23.75-.59.99-1.08.24-.49.36-1.1.36-1.83v-5.97h3.5v12.07h-3.32v-3.32l.61.96c-.4.84-1,1.47-1.78,1.9-.79.43-1.64.64-2.57.64ZM485.78,196.78v-12.07h3.34v3.41l-.47-.99c.36-.85.93-1.5,1.73-1.94.79-.44,1.76-.66,2.89-.66v3.23c-.15-.01-.28-.03-.4-.03-.12,0-.25-.01-.38-.01-.96,0-1.73.27-2.32.82-.59.55-.89,1.39-.89,2.55v5.7h-3.5ZM474.58,187.4v-2.69h8.37v2.69h-8.37ZM480.95,196.96c-1.42,0-2.53-.36-3.32-1.09-.79-.73-1.19-1.81-1.19-3.24v-10.59h3.5v10.54c0,.51.13.9.4,1.18.27.28.64.42,1.1.42.55,0,1.02-.15,1.41-.45l.94,2.47c-.36.25-.79.44-1.29.57-.5.13-1.02.19-1.56.19ZM468.16,196.96c-1.03,0-2.02-.12-2.97-.37-.95-.25-1.7-.56-2.25-.93l1.17-2.51c.55.34,1.21.62,1.96.84.76.22,1.5.33,2.23.33.81,0,1.38-.1,1.72-.29.34-.19.5-.46.5-.81,0-.28-.13-.5-.39-.64-.26-.14-.61-.25-1.04-.33-.43-.07-.91-.15-1.42-.22-.52-.07-1.04-.18-1.56-.3-.52-.13-1-.32-1.44-.57-.43-.25-.78-.6-1.04-1.03-.26-.43-.39-.99-.39-1.68,0-.76.22-1.44.66-2.02.44-.58,1.08-1.04,1.92-1.38.84-.34,1.84-.5,3.01-.5.82,0,1.66.09,2.51.27.85.18,1.56.44,2.13.79l-1.17,2.49c-.58-.34-1.17-.58-1.76-.71-.59-.13-1.16-.19-1.72-.19-.78,0-1.35.1-1.71.31-.36.21-.54.48-.54.81,0,.3.13.52.39.67.26.15.61.27,1.04.36.43.09.91.17,1.42.24.52.07,1.04.17,1.56.3.52.13,1,.33,1.42.57.43.25.77.58,1.04,1.01s.4.98.4,1.67c0,.75-.22,1.41-.67,1.99-.45.58-1.1,1.03-1.94,1.36-.85.33-1.87.49-3.08.49ZM448.6,196.78v-12.07h3.34v3.34l-.63-1.01c.43-.81,1.05-1.43,1.86-1.86.81-.43,1.73-.65,2.76-.65.96,0,1.81.19,2.57.57.76.38,1.35.96,1.78,1.75.43.79.65,1.79.65,3.02v6.91h-3.5v-6.37c0-.97-.21-1.69-.64-2.15-.43-.46-1.03-.7-1.81-.7-.55,0-1.05.12-1.49.35-.44.23-.79.59-1.03,1.07-.25.48-.37,1.09-.37,1.84v5.97h-3.5ZM439.65,194.09c.58,0,1.11-.13,1.57-.4.46-.27.83-.65,1.1-1.16.27-.5.4-1.1.4-1.78s-.13-1.3-.4-1.79c-.27-.49-.64-.88-1.1-1.14-.46-.27-.99-.4-1.59-.4s-1.08.13-1.55.4c-.46.27-.83.65-1.11,1.14-.28.49-.42,1.09-.42,1.79s.14,1.28.42,1.78c.28.5.64.89,1.1,1.17.46.28.98.41,1.58.39ZM439.65,196.96c-1.3-.01-2.45-.29-3.43-.82-.99-.53-1.76-1.26-2.33-2.19-.57-.93-.85-2-.85-3.21-.02-1.21.27-2.28.85-3.22.58-.93,1.37-1.67,2.36-2.2.99-.53,2.12-.79,3.39-.77,1.29-.01,2.43.24,3.43.77,1,.53,1.78,1.26,2.34,2.2.56.93.84,2.01.84,3.22.01,1.2-.26,2.26-.83,3.2-.57.93-1.35,1.67-2.36,2.2-1,.53-2.14.8-3.41.82ZM425.85,197.05c-1.21,0-2.34-.2-3.38-.59-1.04-.4-1.94-.96-2.7-1.69-.76-.73-1.36-1.59-1.78-2.58-.43-.99-.64-2.07-.64-3.25s.21-2.27.64-3.25c.43-.99,1.02-1.85,1.79-2.58.77-.73,1.67-1.3,2.7-1.69,1.03-.4,2.16-.59,3.39-.59,1.36,0,2.59.24,3.69.71,1.1.47,2.02,1.16,2.77,2.08l-2.33,2.15c-.54-.61-1.14-1.07-1.79-1.38-.66-.31-1.38-.46-2.15-.46-.73,0-1.41.12-2.02.36-.61.24-1.14.58-1.59,1.03-.45.45-.8.98-1.04,1.59-.25.61-.37,1.29-.37,2.04s.12,1.43.37,2.04c.25.61.59,1.14,1.04,1.59.45.45.98.79,1.59,1.03.61.24,1.29.36,2.02.36.78,0,1.5-.15,2.15-.46.66-.31,1.26-.77,1.79-1.4l2.33,2.15c-.75.91-1.67,1.61-2.77,2.09-1.1.48-2.34.72-3.71.72Z"/>
  </g>
</svg>