<?xml version="1.0" encoding="UTF-8"?>
<!DOCTYPE svg PUBLIC "-//W3C//DTD SVG 1.1//EN" "http://www.w3.org/Graphics/SVG/1.1/DTD/svg11.dtd">
<!-- Creator: CorelDRAW (Versão de avaliação) -->
<svg xmlns="http://www.w3.org/2000/svg" xml:space="preserve" version="1.1" style="shape-rendering:geometricPrecision; text-rendering:geometricPrecision; image-rendering:optimizeQuality; fill-rule:evenodd; clip-rule:evenodd"
viewBox="0 0 10602.19 1871.97"
 xmlns:xlink="http://www.w3.org/1999/xlink"
 xmlns:xodm="http://www.corel.com/coreldraw/odm/2003">
 <defs>
  <style type="text/css">
   <![CDATA[
    .fil0 {fill:#FF4C86}
    .fil3 {fill:#2D2A2B;fill-rule:nonzero}
    .fil1 {fill:black;fill-rule:nonzero}
    .fil2 {fill:#FF4C86;fill-rule:nonzero}
   ]]>
  </style>
 </defs>
 <g id="Camada_x0020_1">
  <metadata id="CorelCorpID_0Corel-Layer"/>
  <path class="fil0" d="M8284.73 1123.85l-15.69 -4.49c4.56,-8 15.46,-13.86 29.28,-15.23 -3.82,7.07 -8.01,12.57 -13.6,19.71zm-768.02 -336.51c1.47,-24.3 -34.51,-22.93 -41.44,-11.15 -7.93,13.47 1.7,18.04 14.05,18.19 14.83,0.17 19.68,1.08 27.4,-7.04zm-3564.15 446.44c11.94,12.19 49.11,14.08 44.21,-7.61 -2.44,-10.69 -13.86,-10.92 -26.67,-8.62 -12.57,2.25 -19.1,1.68 -17.53,16.23zm3774.38 -683.24c8.41,-7.33 9.18,-15.87 6.75,-31.62 -8.38,-7.26 -20.29,-13.37 -36.97,-11.17 -16.49,22.23 1.37,45.16 30.23,42.79zm-1049.64 -106.09c3.81,52.59 32.37,37.91 35.47,28.04 3.31,-10.51 -3.01,-10.25 -2.99,-23.03 0.04,-16.27 -5.69,-26.03 -25.01,-30.56 -22.37,-5.22 -25.44,17.88 -7.47,25.56zm-2189.13 981.7c8.96,-8.06 14.79,-16.77 2.48,-25.43 -9.64,-6.79 -100.42,-12.8 -106.19,13.91l6.27 8.2c14.63,2.27 34.6,-0.32 50.61,0.05 15.97,0.36 33.65,3.41 46.83,3.27zm-448.86 -874.16c16.79,-15.1 11.13,-78.08 37.14,-89.5 20.34,-2.33 9.24,71.02 8.94,77.4 -0.78,17.06 1.45,30.3 19.33,30.45 13.06,-12.85 11.67,-55.66 11.64,-80.34 -0.05,-25.67 -3.57,-42.11 -21.89,-51.01 -22.63,-11.02 -38.34,-1.95 -47.31,12.35 -8.45,13.44 -15.14,31.33 -17.72,50.01 -1.36,9.82 -1.79,21.91 -2.69,31.7 -1.25,13.19 -1.01,19.74 12.57,18.94zm583.78 -50.97c9.27,-30.62 -28.33,-22.98 -38.16,-37.63 -8.06,-18.62 16.89,-24.4 30.81,-28.81 22.43,-7.11 18.07,-16.86 28.36,-34.41 4.97,4.07 5.75,9.61 9.07,15.58 11.71,21.03 43.81,14.65 46.01,30.82 -2.03,13.58 -12.8,11.83 -15.52,22.26 -8.36,32.19 55.6,13.24 43.9,-28.65 -5.71,-20.47 -19.48,-28.94 -39.68,-34.6 -22.72,-6.36 -8.05,-36.14 -38.93,-36.34 -11.48,-0.05 -20.11,4.81 -26.22,11.21 -8.67,9.11 -7.97,17.49 -13.15,23.85 -5.87,7.21 -33.25,9.49 -46.53,27.4 -12.71,17.11 -9.72,40.96 3.76,54.42 8.62,8.61 42.34,20.97 56.28,14.91zm-477.36 207.13c-23.31,5.5 -24.62,31.47 5.89,29.91 -0.48,16.23 0.22,105.6 -3.68,111.64 -3.11,2.77 4.08,1.91 -7.91,2.91l-32.72 -0.22c-0.83,-21 2.62,-45.99 3.12,-67.39 0.28,-11.67 0.22,-23.35 0.35,-35.02 0.17,-15.82 3.1,-19.2 -5.92,-28.23 -16.19,-2.92 -17.16,4.53 -18.27,19.06 -0.8,10.55 -0.78,21.76 -0.92,33 -0.26,22.66 -1.03,45.54 -3.04,67.43 -2.44,26.43 -0.09,36.9 28.73,38.47 18.19,1 53.72,3.39 61.35,-8.96 8.11,-13.23 4.78,-107.48 7.26,-131.91 2.92,-28.75 -5.65,-37.4 -34.25,-30.68zm394.89 43.15c-2.07,-40.27 9.04,-77.57 -41.38,-67.04 -13.58,2.83 -35.73,8.74 -29.26,26.54 5.8,15.93 25.48,3.59 39.9,2.18 1.45,38.25 4.83,82.51 1.29,121.21 -17.36,6.97 -33.47,12.36 -56.05,12.1l0.28 -126.32c0.33,-16.69 3.21,-28.66 -16.23,-25.98 -9.09,9.25 -7.38,26.67 -7.72,43.16l-0.91 100.6c-0.63,21.13 -2.54,28.66 12.99,37.66 22.35,2.18 76.73,-10.92 89.28,-21.88 13.45,-11.78 9,-78.81 7.8,-102.22zm346.66 0.5c-0.44,-35.43 2.72,-81.59 -20.7,-97.63 -73.79,-50.54 -88.53,33.39 -48.87,16.73 11.19,-4.7 10.12,-3.2 21.34,1.75 17.96,7.89 16.97,8.96 18.62,41.69 1.02,20.18 4.82,97.22 -0.81,111.54 -6.82,9 -68.71,12.47 -76.3,12.16 -4.94,-44.84 4.94,-155.91 -11.46,-172.89l-10.94 0.72c-10.88,11.69 -5.36,32.12 -4.52,49.8 0.92,19.89 -0.93,37.42 -1.54,56.88 -0.59,18.46 -1.24,39.61 0.9,57.9 2.07,17.71 0.25,36.38 18.35,37.75 17.21,1.3 86.49,-9.05 102.13,-14.31 14.94,-5.04 13.62,-26.11 13.94,-45.29 0.33,-18.87 0.1,-37.94 -0.14,-56.81zm2864.15 654.3c0.94,-11.99 15.9,-39.18 21.58,-52.72 31.43,-74.67 35.43,-84.94 46.83,-171.14 1.96,-14.95 39.96,-251.9 10.42,-257.82 -14.21,1.75 -11.87,13.47 -11.16,27.74 2.2,45.14 1.61,62.23 -4.88,107.88 -12.26,85.81 -20.52,172.36 -52.97,248.58 -9.2,21.66 -46.9,95.71 -42.22,108.16 5.54,8.68 26.29,27.21 43.46,27.42 26.16,0.29 28.41,-16.66 55.63,-1.34 11.63,6.54 39.82,12.1 55.88,11.91l56.45 -10.69c13.86,-3.71 27.62,-31.05 -15.01,-28.77 -15.13,0.81 -49.17,18.22 -85.19,0.19 -51.72,-25.92 -55.42,13.81 -78.81,-9.39zm-3700.73 -359.11c23.84,-5.59 94.88,-19.11 117.25,-7.88 22.13,11.08 26,21.14 26.25,39.19 1.13,81.97 0.06,103.8 -8.27,187.95 -3.95,39.61 -2.92,84.62 -7.98,123.43 -3.18,24.38 2.13,36.7 27.39,37.06 20.33,0.28 45.7,0.95 65.6,0.37 24.76,-0.75 40.25,2.81 44.56,-20.71 3.89,-21.17 4.28,-87.58 8.94,-122.8 2.63,-19.86 10.04,-44.36 -5.51,-53.27 -12.02,-6.89 -45.71,-6.71 -54.99,1.12 -8.09,6.82 -5.04,18.05 2.82,21.96 7.04,3.52 23.38,2.03 31.79,2.22 -0.86,23.53 -5.59,47.38 -7.29,70.8 -1.11,15.67 1.44,58.86 -5.48,68.94 -5.54,5.77 -74.96,2.41 -80.01,2.09 2.12,-37.83 3.7,-80.67 7.91,-118.01 4.97,-44.01 21.56,-200.99 3.31,-234.34 -6.57,-12.03 -21.28,-23.06 -33.38,-30.21 -31.73,-18.86 -146.6,-2.31 -156.04,13.26 -14.76,24.34 -28.44,187.74 -24.27,227.26 3.57,34 -5.62,77.5 -10.79,111.13 -16.88,5.25 -56.61,4.18 -75.88,2.5 -5.14,-46.51 23.06,-241.69 7.54,-302.16 -3.63,-14.21 -14.24,-19.93 -28.81,-23.93 -13.48,-3.7 -29.04,-8.39 -44.01,-8.32 -16.07,0.05 -28.7,4.26 -42.41,9.33 -18,6.7 -20.2,7 -21.86,29.15 -2.46,33.7 -4.33,65.4 -7.14,98.14 -4.83,56.39 -2.22,112.36 -5.73,152.48 -1.41,16.17 -5.38,34.33 7.28,41.27 13.08,-2.21 11.75,-12.95 13.22,-27.59l21.7 -266.43c31.11,-9.93 47.56,-11.62 80.3,1.26 16.03,74.58 -15.69,267.41 -6.41,305.48 3.49,14.41 16.6,18.1 33.16,19.15 105.36,6.6 94.9,-9.15 101.96,-55.77 13.95,-92.17 -1.74,-159.17 25.27,-294.08zm482.34 -72.93c33.88,-8.64 30.05,-26.68 118.07,-27.64 72.93,-0.81 72.67,26.04 117.72,30.24 -0.9,7.55 -5.48,10.51 -8.09,18.94 -5.39,17.42 -1.29,57.4 -0.8,76.37 0.95,35.75 -2.74,70.77 -1.97,107.06 0.77,36.52 0.42,72.78 0.82,109.25 0.32,28.83 6.29,80.37 1.03,106.47l-10.47 2.47c-1.65,-89.41 -2.86,-180.54 -2.24,-270.73 0.32,-43.27 0.24,-87.69 -10.79,-127.11 -11.13,-39.78 -62.57,-26.35 -98.62,-20.25 -37.88,6.42 -78.34,16.07 -84.13,52.13 -6.8,42.45 -0.79,268.03 1,331.87 0.64,23.33 -5.67,48.85 20.1,47.67 13.75,-5.34 7.16,-37.17 7.08,-58.39 -0.08,-23.43 -0.38,-46.47 -0.86,-69.91 -0.95,-45.42 -2.18,-91.74 -1.99,-137.67 0.1,-22.28 1.74,-44.71 1.96,-67.72 0.48,-51.14 -2.01,-59.61 70.27,-69.24 23.51,-3.14 34.54,-9.98 57.39,-2.49 18.16,66.21 12.14,164.28 13.19,238.91 0.3,21.41 -1.31,42.16 -1.53,63.34 -0.21,20.35 2.33,40.92 2.37,61.21 0.01,16.45 -8.25,45 3.04,54.44 10.7,8.95 36.19,1.79 48.08,-3.69 26.9,-12.38 14.22,-77.96 13.72,-109.22 -0.68,-41.52 -0.63,-83.03 -1.18,-124.56 -0.58,-41.55 3.14,-80.88 1.75,-122.35 -0.55,-16.07 -4.99,-45.25 0.11,-59.76 5.93,-16.9 19.02,-18.12 15.33,-44.76 -12.59,-13.01 -22.9,-6.89 -41.97,-10.67 -11.14,-2.23 -25.13,-11.86 -36.11,-16.29 -46.8,-18.83 -133.1,-17.34 -178.03,8.25 -29.2,16.64 -28.39,5.42 -38.12,14.07 -20.81,18.57 -2.2,29.59 -1.28,32.62 0,0 0.45,339.9 -3.22,391.19 -1.36,19.04 -6.89,32.31 6.62,42.58 22.72,1.18 15.15,-24.48 15.11,-44.69 -0.05,-19.19 0.29,-38.88 1.29,-57.36 1.95,-36.74 2.6,-78.82 2.72,-115.21 0.09,-33.11 7.73,-213.38 2.64,-229.38zm-552.15 -288.5c-1.06,15.79 11.75,12.88 25.67,12.87 75.85,0 99.88,-5.64 172.48,-16.11 49.42,-7.13 150.84,-7.14 213.58,-14.35 44.06,-5.07 86.86,-14.45 131.85,-18.88 94.19,-9.29 183.17,-16.27 275.23,-29.35 44.52,-6.32 89.95,-11.98 133.84,-17.68l135.55 -17.99c0.7,56.69 -1.59,112.32 0.39,169.17 3.79,108.06 -9.26,228.67 -6.23,332.07 1.08,36.76 -0.99,144.21 1.05,168.24 -22.99,1.79 -42.92,1.79 -62.58,9.34 -16.59,6.35 -15.98,32.85 -15.99,53.41 -0.03,25.02 -2.97,112.3 10.26,128.98l9.08 -0.26c21.71,-17.88 1.15,-110.96 13.22,-143.76 7.92,-6.24 51.25,-16.84 64.12,-17.91 -1.21,18.57 -1.38,34.79 -1,53.37 0.13,7.27 -4.52,52.15 19.65,43.15 12.77,-10.69 8.34,-24.52 7.97,-45.11 -0.98,-54.05 -4.5,-54.89 18.39,-55.19l6.4 42.2c2.57,35.54 -5.73,76.69 19.08,71.37 12.76,-2.74 11.39,-18.55 11.41,-33.89 0.25,-146.71 -21.55,-99.42 -72.91,-108.63 5.45,-26.69 0.36,-90.13 0.81,-121.39 0.55,-39.54 1.25,-83.01 0.21,-122.35 -1.06,-39.83 3.1,-78.14 4.05,-117.95 2.26,-93.72 3.97,-212.12 2.16,-305.96 -0.49,-25.09 -6.66,-29.84 -32.18,-27.9 -33.54,2.55 -71.29,10.48 -105.81,15.26 -100.66,13.93 -228.49,33.71 -324.83,42.06 -74.07,6.45 -144.71,15.15 -216.16,26.86 -73.21,11.96 -147.41,14.36 -223.1,19.9 -48.63,3.56 -105,18.28 -161.51,20.04 -17.11,0.54 -43.82,-4.67 -54.16,6.35zm6240.11 997.4c-30.23,52.67 -51.8,109.09 -65.57,168.47 -2.79,12.05 -13.12,20.37 -25.49,20.54 -12.36,0.16 -22.91,-7.88 -26.01,-19.86 -45.86,-176.75 -85.25,-355.25 -114.35,-535.21 -89.06,73.38 -169.49,131.65 -220.12,151.23 -8.82,0.9 -16.12,0.09 -18.24,-8.27 -1.73,-6.89 0.21,-10.85 3.2,-14.15 113.01,-36.28 506.99,-395.45 696.43,-593.39 114.8,-127.99 136.34,-329.89 119.98,-495.16 -113.35,275.29 -702.16,855.84 -978.93,1050.91 -62.19,43.82 -110.01,78.97 -186.27,78.32 -18.12,-0.14 -88.62,-2.77 -103.22,-6.5 -7.37,-1.9 -12.47,-5.27 -18.65,-7.42 -8.09,-2.81 -17.26,-2.45 -26.63,-3.09 -22.66,-1.62 -21.76,-9.55 -35.36,-18.49 -33.99,-22.32 -52.36,30.32 -79.41,-8.57 -8.8,-12.63 -18.31,-14.14 -27.61,-27.26 -8.36,-11.78 -11.48,-26.92 -17.04,-39.55 -41.99,-2.92 -27.2,19.67 -55.09,16.57 -9.37,-9.47 -5.21,-10.3 -10.69,-17.29 -3.19,-4.08 -10.36,-6.65 -15.15,-13.31 -14.1,-19.57 5.51,-26.74 8.33,-39.06 -10.96,-9.28 -20.11,3.76 -42.11,-14.86 -22.85,-19.32 -5.77,-26.58 -3.18,-42.43 -16.64,-6.99 -28.92,29.34 -60.86,-25.08 -15.67,-26.66 -31.95,10.48 -69.26,-7.84 -19.76,-9.7 -6.68,-36.65 -6.13,-57.26 -6.96,18.34 -17.42,45.36 -45.74,36.47 -23.28,-7.33 -29.89,-28.54 -31.46,-56.28 -9.84,9.01 -12.32,36.7 -29.69,50.87 -17.95,14.65 -41.15,-0.29 -62.58,-5.02 -59.01,-13.06 -34.29,-58.23 -49.99,-108.66l-1.65 47.6c-1.06,28.18 11.04,43.89 -16.37,50.8 -0.38,-0.44 -1.03,-1.7 -1.23,-1.31 -0.18,0.38 -0.95,-0.99 -1.22,-1.25 -8.37,-9.04 -9.51,-22.55 -9.5,-35.38 0.05,-18.81 2.86,-36.25 3.12,-54.6 0.27,-18.29 -2.03,-39.23 -0.28,-56.44l-8.89 3.85c5.75,10.86 8.17,6.61 7.5,24.18 -39.74,35.65 -44.3,19.43 -34.4,46.7 6.92,19.04 2.37,46.12 2.96,55.75 10.03,8.12 22.84,8.73 34.85,15.82 2.24,35.06 -51.72,17.42 -62.78,-3.17 -8.19,-15.28 5.88,-38.11 -3.48,-62.06 -4.4,-11.25 -8.72,-9.48 -6.34,-26.63 1.68,-12.09 -11.02,-31.23 11.71,-31.31 4.72,-0.04 5.27,1.07 7.84,1.3 0.49,0.06 1.14,0.23 1.6,0.24 0.41,0.01 1.08,-0.05 1.44,-0.08 0.34,-0.02 1.07,-0.34 1.34,-0.38 0.27,-0.05 0.86,-0.38 1.31,-0.57 0.1,-0.34 0.31,-1.25 0.28,-1l-1.47 -4.83c-10.58,-27.07 20.51,-33.92 35.94,-46.66 -1.67,-10.87 -9.72,-18.42 -12.3,-33.95 -12.12,3.72 -22.45,11.71 -33.62,0.71 -5.18,-5.08 -2.22,-4.45 -7.6,-9.36 -5.54,24.29 7.54,30.45 -7.98,43.57 -5.7,2.3 -20.21,-5.79 -36.58,9.17 18.45,15.02 25.91,12.17 21.98,44.02 -3.26,26.34 -13.62,36.32 -16.09,54.36 9.97,10.93 18.2,11.67 23.29,29.36 19.19,66.82 -44.34,53.75 -107.74,94.9 -9.74,6.35 -22.07,18.73 -35.88,12.91 -23.73,-10.01 -16.13,-57.41 -16.2,-83.63 -0.05,-26.68 -5.68,-50.97 15.6,-59.91l-1.31 -16.58c17.39,-18.07 23.89,-0.35 45.45,0.08 -18.29,-22.83 -32.03,-15.31 -16.46,-46.08 -15.6,-0.22 -19.2,5.56 -35.43,4.05 -15.61,-14.71 -6.22,-29.99 2.07,-45.54l23.05 -40.22c-31.69,3.31 -31.69,43.55 -43.13,63.78 -17.03,30.15 -43.62,-16.17 -52.93,-25.01 -5.88,-5.59 -3.39,-3.77 -11.27,-6.41 7.37,35.53 38.39,43.19 38.96,55.79 0.5,11.53 -7.79,13.95 -17.97,15.16 5.04,6.28 8.26,8.45 7.65,20.83 27.4,-3.12 40.22,4.63 40.45,31.87 0.22,25.02 -0.17,49.41 -0.16,74.35 0.02,27.42 -7.47,53.88 -6.67,74.31 0.92,23.18 -19.69,35.32 -41.19,39.01 -22.6,3.85 -52.28,-0.29 -57.37,23.06 -8.77,40.28 -44.85,33.69 -70.54,51.04 -18.4,12.44 -16.47,25.23 -55.56,26.05 -19.35,0.41 -19.96,1.81 -35.6,6.52 -48.31,14.58 -78.98,44.05 -112.82,-6.91 -39.91,-60.19 -41.72,-191.76 -51.1,-276.99 -8.02,-72.82 -9.88,-146.46 -27.52,-217.45 -3.86,-15.57 -18.14,-53.29 -10.58,-66.84 22.42,0.99 47.98,127.98 50.39,142.78 9.06,55.42 15.71,119.06 19.8,175.82 7.04,-17.19 14.89,-169.2 14.96,-198.5 0.13,-42.28 -3.37,-81.95 -6.65,-122.37 -3.88,-47.78 -11.75,-63.1 -28.5,-101.14 -22.87,-51.89 -41.95,-84.82 -96.13,-99.41 -20.78,-5.62 -45.54,1.78 -41.8,-23.9 15.42,-10.48 34.53,-3.65 51.2,-1.79 15.47,1.74 2.71,2.12 8.05,-2.71 -16.77,-11.98 -42.72,-8.3 -65.5,-3.77 -1.39,21.77 -12.53,26.71 -31.3,34.17 -12.81,5.08 -38.28,16.18 -50.44,11.29 -7.8,-24.73 29.28,-32.95 50.86,-41.64l-2.53 -19.54c4.83,-4.08 7.22,-5.32 11.15,-8.79 -5.37,-14.72 -3.23,-14.64 4.64,-24.59 0.27,-0.34 0.74,-1.04 1.07,-1.58 -20.4,-59.25 -29.6,-50.79 -63.7,-77.95 -4.4,-3.52 -9.27,-7.22 -12.82,-11.31 -4.07,-4.68 -5.34,-9.44 -9.87,-13.83 -5.94,8.8 -13.02,17.47 -13.94,32.37 11.13,23.98 18.97,16.43 8.81,50.33 6,12.15 12.88,11.55 2.88,28.5 -3.78,6.41 -3.26,8.65 -3.09,17.43 0.58,30.07 27.95,13.19 32.46,7.8 8.48,-10.13 6.19,-17.4 25.46,-15.84 15.81,7.96 7.53,44.24 -40.34,53.59 0.01,13.12 -2.42,10.41 -3.68,20.05 0.2,0.14 3.17,2.47 3.66,2.84l5.76 4.27c-4.19,28.67 -3.6,16.77 -12.17,37.17 8.56,6.45 9.61,7.9 21.59,11.38 9.26,2.67 20.21,5.78 29.53,6.05 4.87,-8.77 53.08,-47.43 62.28,-27.56 8.02,17.32 -16.5,22.62 -25.06,30.75 -0.27,0.27 -0.76,0.88 -1.14,1.34 3.44,2.86 -2.34,-0.81 4.25,3.13 2.16,1.31 2.21,1.02 4.37,2.28 8.81,5.13 14.31,11.24 20.73,18.71 11.12,12.94 15.26,21.55 4.42,34.72 -25.84,2 -20.78,-25.1 -45.37,-31.08 -6.57,-1.62 -63.78,-12.54 -65.31,-12.49 -2.66,20.61 -11.89,28.42 -15.11,45.16 7.9,9.48 18.91,13.28 28.48,20.9 9.83,7.85 14.42,14.96 25.13,23.12 14.46,11.02 46.95,28.08 72,24.72 14.91,-13.16 22.61,-57.45 26.98,-82.43 2.54,-14.45 6.13,-31.75 7.73,-46.46 2.01,-18.44 -2.61,-37.48 17.29,-35.88 21.86,10.79 -10.69,147.01 -16.99,162.8 -14.86,37.27 -46.8,39.11 -81.76,24.26 -29.42,-12.48 -21.14,-18.57 -45.3,-1.25 16.65,9.31 7.73,42.24 6.27,56.7 -10.8,106.75 -26.33,177.58 -70.21,274.02 -6.68,14.71 -36.33,89.5 -37.18,101.16 11.65,13.24 28.76,25.34 38.11,41.75 10.71,18.75 0.2,7.99 18.44,21.06 18.43,13.19 15.25,47.14 -57.96,2.66 -15.01,-9.14 -38.06,-31.36 -54.19,-30.61 -23.18,57.28 31.32,61.42 39.01,74.25 20.27,33.86 -70.25,26.35 -88.71,24.37 0.75,15.01 0.98,13.48 -5.47,22.31 -29.89,2.48 -34.16,-56.06 -37.53,-77.95 -11.06,-72 -12.14,-96.92 -12.05,-159.95 0.03,-39.04 -5.94,-76.74 -5.3,-115.83 0.43,-25.77 -3.39,-97.64 -0.43,-115.83 -12.64,-8.61 -17.64,-6.16 -21.6,-25.3 -3.26,-15.65 1.61,-29.05 2.31,-44.4 -49.19,3.85 -17.41,-48.43 -10.17,-72.38 4.36,-14.33 6.71,-16.11 13.27,-26.28 -7.65,-28.37 -1.39,-13.44 0.65,-37.94 -25.67,-11.54 -37.77,-39.02 -36.09,-67.34 2.62,-44.02 0.04,-50.67 -10.31,-89.94 -7.46,-28.29 -13.18,-55.86 -20.97,-83.99 -9.73,-35.13 -12,-53.84 -6.57,-91.38 20.33,14.27 50.64,141.25 54.68,161.27 6.73,33.54 17.51,53.8 13.43,93.37 -1.99,19.23 -4.39,30.43 7.75,43.09 21.54,22.47 42.95,16.69 20.02,54.61 33.07,-8.19 19.67,-16.57 61.87,9.68 11.78,-39.7 21.41,-108.12 21.34,-150.07 -0.11,-56.73 -20.98,-146.04 -51.88,-172.74 -40.16,-34.65 -168.76,-36.45 -143.26,-70.42l56.73 9.17c-1.76,-4.88 -10.41,-6.11 -15.3,-8.07 -10.49,-4.24 -40.29,-16.93 -43.55,-24.08 -0.74,-9.38 0.54,-9.36 3.96,-14.51 18.25,-3.2 57.63,17.15 89.43,26.32 28.37,8.16 69.78,18.38 61.26,52.94 41.57,26.5 40.5,62.15 53.4,82.38 2.57,4.05 1.22,1.78 4.01,4.43 -2.08,-44.63 -26.06,-125.67 -50.98,-163.32l-32.87 -39.72c-63.09,-4.45 -124.31,4.49 -173.66,23.62 5.45,38.85 -12.43,22.58 -24.7,42.58 42.58,14.35 35.12,55.9 27.94,94.31 -1.05,5.53 -1.82,11.86 -4.58,17.43 -5.47,11.06 -3.53,2.07 -5.1,17.37 -2.24,21.82 -9.76,46.07 -20.24,66.16 -5.77,11.05 -12.33,15.14 -29.13,13.97 -7.06,-0.49 -12.75,-2.61 -19.66,-2.73 -9.47,-0.14 -11.2,3 -22.7,2.94 -3.54,-3.14 -4.45,-3.98 -7.45,-4.58 -2.33,-16.8 2.71,-22.48 17.34,-25.95 13.8,-3.27 25.72,2.1 38.94,2.09l8.01 -15.79c-15.92,-1.51 -20.13,0.26 -29.56,-7.76l-0.2 -11.49c13.67,-10.55 16.22,-5.59 34.02,-4.72l0.81 -7.87c-17.19,3.33 -16.92,8.39 -29.95,-2.55 -5.59,-10.39 6.53,-19.07 15.2,-20.54l11.57 -3.2c-7.65,-12.41 -17.31,-5.09 -27.3,-0.34 -13.36,6.38 -14.42,7.18 -15.17,23.96 -1.68,37.42 -15.79,27.75 -29.36,50.1 0.56,28.71 4.42,19.73 -6.37,45.15 -6.65,15.6 -6.45,28.7 -8.55,46.36 -2.32,19.76 -5.08,29.29 7,41.79 6.01,6.23 24.08,17.09 35.01,20.15 0.78,-31.01 3.71,-57.08 10.05,-86.41 5.88,-27.06 29.08,-35.51 58.15,-40.46 -1.7,15.99 -11,26.54 -20.25,35.08 -22.36,20.6 -15.78,114.79 -19.17,144.74 -7.54,66.49 -29.46,116.21 -29.51,189.28 -0.03,49.96 8.83,99.88 7.47,155.2l-3.96 80.8c-1.06,27.17 5.17,46.71 7.43,70.28 2.95,30.7 -17.45,35.32 -21.41,54.11 56.05,1.9 57.39,40.44 100.74,55.55 15.1,5.28 27.3,6.65 32.73,19.86 -8.7,18.73 -33.48,11.74 -51.05,4.9 -22.61,-8.8 -26.88,-19.12 -40.62,-29.61 -24.24,-1.32 -42.62,-0.06 -62.44,-10.25 -18.87,-9.72 -26.15,-27.66 -49.53,-26 -7.28,16.71 -7.35,17.29 -1.15,32.56 11.1,27.41 -28.35,16.84 -42.06,19.26 -8.2,1.43 -6.57,4.83 -17.35,5.39 -14.71,0.77 -25.67,-6.28 -39.32,-5.06 -11.82,1.07 -19.61,10.82 -36.7,5.65 -11.86,-3.61 -15.9,-14.04 -24.88,-19.2 -14.81,-8.45 -20.03,5.05 -34.21,3.39 -12.89,-1.51 -20.77,-10.26 -28.87,-15.3 -9.27,-2.12 -33.6,27.63 -83.59,11.02 -32.21,-10.69 -40.85,-42.87 -59.04,-45.66 -22.22,-3.43 -25.26,-1.15 -40.58,-12.75 -37.52,-28.34 -20.87,-46.99 -48.45,-56.8 -14.43,-5.12 -28.6,-8.76 -25.71,-26.23 13.11,-9.06 20.7,-3.46 35.42,1.33 42.5,13.83 22.71,25.49 45.07,49.21 8.47,8.96 15.43,15.14 32.71,16.21 32.84,2.01 38.5,23.27 55.61,38.25 9.98,8.74 21.56,11.78 38.39,11.34 16.37,-0.44 21.75,-9.06 35.21,-13.75 -1.91,-17.69 -13.31,-36.54 -19.81,-50.86 -8.56,-18.86 -10.8,-30.02 -21.55,-48.64 -31.92,-55.32 -23.69,-136.93 -16.8,-201.07 4.29,-40.41 -31.86,-231.93 -21.2,-242.56 14.85,-14.8 20.54,53.3 23.28,67.21 5.22,26.83 10.8,51.19 15.5,78.65 4.59,27.04 11.67,53.57 12.21,82.04 1.09,56.93 -17.04,125.49 3.78,181.5 7.33,19.67 18.12,33.83 25.44,53.41l6.16 9.19c-8.09,-80.1 -5.95,-48.4 6.25,-127.83 17.24,-112.38 -6.43,-229.1 -16.75,-341.03 -1.22,-13.29 -8.06,-24.7 -7.63,-37.25 0.6,-18.02 6.22,-21.72 1.21,-44.94 -9.22,-42.68 -43.81,-89.49 -88.32,-98.21 -23.95,-4.67 -59.3,-13.52 -83.44,-7.09 -21.54,5.75 -50.47,23.58 -71.63,21.78 -1.02,12.4 -1.65,24.95 -2.37,36.85 -0.96,15.66 -3.26,22.99 -19.95,21.76 -18.22,-8.6 0.83,-78.57 -11.46,-102.22 -0.89,-1.65 -2.41,-4.07 -4.5,-4.79 -9.61,-3.35 -9.25,4.48 -8.54,12.69 0.43,4.88 1.25,7.93 1.13,13.28 -0.19,9.09 -2.93,16.68 -5.22,23.91 -4.25,13.4 -11.77,33.22 -2.85,46.75 8.03,12.18 18.08,15.54 30.86,24.07 30.54,20.37 33.42,97.32 83.47,85.42 16.96,-4.04 52.4,-38.76 57.59,-54.34 -4.42,-15.76 -28.77,-34.04 -43.96,-42.26 -20.38,-11.02 -54.38,-7.61 -60.61,-26.3 24.26,-19.75 78.43,6.15 99.26,20.73 13.08,9.16 24.88,19.47 32.25,33.57 6.23,11.89 22.09,34.57 5.19,48.27 -9.76,0.79 -11.89,-2.39 -17.48,-5.77 -21.16,15.04 -39.11,59.91 -87.49,56.14 -19.29,-1.49 -21.62,-8.31 -34.61,-13.5 -0.27,55.7 2.09,114.64 -4.39,168.62 -2.49,20.67 -4.15,41.12 -6.48,61.38 -2.45,21.28 -6.48,40.56 -8.95,60.84 -7.61,62.56 -8.25,65.16 -2.91,127.02 2.83,32.62 2.1,92.94 -40.21,96.23l8.3 25.4c36.52,-7.43 21.94,11.74 53.26,19.34 15.98,3.89 16.44,3.9 29.27,10.03 14.17,6.74 16.86,-1.03 26.23,13.13 -1.45,9.17 -7.89,15.24 -17.56,16.43 -14.35,1.75 -18.77,-4.31 -27.74,-8.32 -8.16,-3.65 -19.84,-4.5 -29.29,-8.16 -12.45,-4.83 -14.11,-9.74 -23.5,-14.82 -10.19,4.18 -18.1,12.43 -32.06,8.53 -4.89,-1.37 -7.93,-4.37 -13.95,-5.11 -7.69,-0.94 -13.08,-0.1 -19.81,-2.78 -10.38,-4.14 -15.44,-10.82 -16.83,-24.38 -1.46,-14.37 -7.88,-19.03 -17.86,-24.92 -17.1,3.88 -12.25,14.01 -34.94,11.3 -17.46,-9.76 -9.18,-24.41 -32.78,-24.48 -16.92,22.46 -28.27,33.76 -60.94,27.99 -12.06,-2.15 -22.36,-7.92 -29.54,-14.4 -13.49,-12.18 -8.83,-16.08 -9.82,-36.7 -8.56,-7.15 -9.93,-8.64 -21.97,-12.65 -19.72,-6.58 -11.64,-3.36 -25.78,2.66 -20.65,8.81 -33.31,9.89 -45.5,26.23 -12.55,16.85 -1.13,65.09 -48.75,59.12 -20.06,-2.53 -52.53,19.52 -91.7,-0.38 -26.05,-13.23 -28.88,-2.94 -51.53,7.81 -13.42,6.37 -46.3,5.81 -61.15,-0.84 -37.38,-16.72 -19.82,-34.22 -24.2,-49.17 -3.9,-6.7 -15.34,-18.31 -22.05,-20.78 -17.54,-6.39 -44.89,19.74 -53.37,31.05 -8.72,11.65 -14.63,8.25 -29.49,13.95 -10.94,4.18 -18.2,10.83 -29.1,14.02 -21.49,6.22 -19.45,-7.97 -26.89,-12.97 -18.48,-12.42 -61.5,6.66 -77.57,2.61 -3.39,-17.79 25.33,-23.43 41.58,-26.56 28.79,-5.51 35.62,-0.71 60.35,4.8 9.38,-3.96 15.68,-8.51 25.46,-11.93 21.12,-7.38 25.45,-30.27 67.13,-43.8 24.59,-7.98 40.76,2.46 53.63,14.89 23.59,22.76 18.96,17.13 21.2,55.32 12.21,4.58 11.76,3.03 26.45,4.91 28.93,3.67 42.54,-25.04 75.82,-16.48 25.15,6.46 13.71,12.05 53.72,9.74 13.19,-0.75 15.32,-5.01 24.59,-7.62 12.06,-3.37 19.09,2.23 28.25,3.68 12.88,-16.77 8.15,-36.41 25.73,-47.77 7.81,-5.07 17.6,-5.69 26.46,-10.39 7.97,-4.19 14.26,-11.04 19.04,-18.02 7.18,-10.47 9.51,-10.87 24.7,-8.23 10.11,1.76 20.1,4.46 29.11,8.26 39.28,16.59 23.61,41.58 41.07,49.05 4.31,1.85 8.32,2.64 12.58,2.96 35.89,2.66 12.78,-33.08 56.77,-31 1.3,-21.66 -12.61,-18.91 -26.99,-27.35 -18.69,-10.97 -11.32,-23.39 -3.95,-35.87 -2.31,-7.98 -5.63,-10.97 -3.89,-21.88 7.3,-10.7 15.35,-9.75 19.75,-19.51 -4.63,-13.52 -10.1,-10.32 -21.1,-5.81 -11.91,4.88 -44.16,-8.09 -49.25,-18.33 -4.98,-10.04 -2.7,-20.9 1.51,-28.07 -20,-0.74 -55.44,19.31 -63.63,-23.29 -0.31,-1.51 3.8,1.68 -2.36,-7.18 -7.85,-11.28 -36.22,-11.93 -27,-40.65 3.43,-10.71 5.26,-2.23 4.9,-20.9 -4.98,4.22 -6.56,9.36 -12.75,12.71 -4.9,2.65 -12.43,3.6 -18.75,4.72 -23.5,4.2 -22.71,5.74 -36.75,-8.34 -18.34,-1.43 -36.86,3.72 -43.92,-11.07 -8.57,-17.94 7.73,-29.24 17.05,-35.7 -6.21,-3.3 -11.04,-4.62 -14.76,-10.14 -0.37,-0.56 -1.21,-2.33 -1.56,-2.86 -2.89,-4.4 -0.79,-1.47 -3.01,-3.92 -13.86,16.19 -3.64,25.31 -26.63,34 -19.19,7.28 -33.8,8.74 -43.24,-8.31 -1.74,-12.93 4.85,-57.37 9.14,-67.42 8.83,-20.51 14.91,-36.3 19.29,-59.36 4.37,-22.92 3.99,-44.92 8.52,-67.66 2.37,-11.91 0.09,-31.46 2.16,-37.64 8.59,-25.66 12.12,-30.83 41.46,-21.7 -9.1,-15.65 -38.66,-26.26 -2.53,-48.2 -2.5,-0.59 -57.25,-0.04 -28.6,-30.8 8.81,-9.45 30.19,-27.14 36.19,-37.5l-11.02 4.09c-0.45,0.19 -1.05,0.41 -1.52,0.61 -4.4,1.88 -9.09,4.17 -12.89,6.41 -26.25,15.61 -21.94,35.59 -34.74,39.26 -11.12,3.18 -17.06,-5.21 -27,-7.44 7,19.81 -1.54,18.54 -11.08,27.91 34.62,34.79 -27.84,33.69 -43.54,56.09 11.61,-3.79 35.56,-16.45 49.88,-16.18 24.13,0.43 18.51,27.54 18.56,49.88 0.1,48.87 2.76,79.03 -10.97,123.4 -5.59,18.03 -11.67,34.6 -12.35,55.57 -0.77,24.44 -0.05,46.77 -28.01,30.08 -9.88,4.79 -11.13,6.7 -27.38,5.41 3.03,25.64 -8.2,33.14 -20.57,24.86 -14.26,-9.54 0.47,-24.88 -27.15,-26.64 2.42,10.4 13.27,25.11 0.51,32.95 -12.48,7.67 -20.57,-5.23 -37.6,-4.61 -22.53,28.23 -12.51,16.12 -28.92,22.77 -2.01,0.81 -6.26,4.82 -9.68,6.8 -6.37,0.33 -9.64,-0.8 -15.25,0.03 -13.23,1.97 -9.45,6.29 -21.89,-3.86 -3.16,-2.56 -0.79,-0.85 -4.36,-2.88 -25.89,26.34 -18.05,19.78 -53.03,15.35 -7.02,17.75 -5.79,18.37 -4.08,37.68 1.04,11.58 -5.59,17.2 -15.14,19.25 -8.63,1.84 -11.35,-0.93 -12.39,8.55 -4,36.94 5.37,26.85 9.98,53.07 3.96,22.66 -14.01,33.26 -26.29,46.95 -4.91,5.48 -11.74,12.94 -17.52,17.28 -6.96,5.19 -15.4,9.9 -20.79,16.23 -29.47,34.38 35.32,61.92 -63.69,77.54 -46.48,7.34 -89.95,31.97 -113.87,31.21 -24.64,-0.81 -42.77,-6.88 -67.77,-6.95 -21.3,-0.07 -36.09,11.87 -55.12,17.04 -75.22,20.35 -93.3,-5.64 -130.59,-3.85 -32.84,1.6 -82.06,20.08 -98.4,-19.22 -4.63,-11.19 -1.79,-4.07 -8.45,-11.3 -13.22,-14.28 -13.1,-112.71 -13.1,-135.36l2.03 -87.38c1.27,-75.71 7.22,-151.5 6.69,-227.17l2.21 -113.62c-0.02,-48.37 -48.84,-129.92 -50.08,-205.77 -0.36,-21.81 -3.61,-57.42 -6.86,-78.73 -22.7,-0.93 -47.31,3.85 -69.92,6.31 -24.26,2.64 -47.28,4.15 -72.2,5.12 -42.31,1.64 -91.57,13.84 -135.34,19.18 -167.44,20.39 -379.57,59.35 -544.26,71.12 -71.49,5.12 -138.71,13.35 -208.71,24.4 -15.19,2.39 -56.61,11.18 -64.47,-3.75 5.34,-14.41 46.58,-13.21 60.88,-15.28 22.28,-3.23 43.27,-8.86 66.01,-11.8 92.22,-11.96 185.83,-20.59 277.62,-34.99 45.21,-7.1 91.18,-13.45 136.87,-19.28 92.48,-11.8 180.93,-27.33 273.22,-39.62 42.65,-5.69 94.38,-18.01 135.98,-19.69 50.23,-2 96.07,-10.75 144.43,-12.03 0.75,-14.15 10.96,-33.11 -6.59,-34.13 -3.09,-0.19 -9.44,0.49 -13.27,0.47 -102.92,-1 -201.34,30.53 -301.33,46.25 -46.93,7.41 -92.56,13.39 -139.08,21.63 -72.03,12.74 -143.71,17.55 -217.52,22.55 -120.29,8.19 -239.43,29.92 -358.76,42.74 -37.09,3.97 -74.24,3.73 -110.79,8.52 -6.19,0.81 -10.4,1.41 -17.45,1.95l-18.49 4.85c2.48,9.05 6.03,10.92 11.53,17.98 4.35,5.6 8.45,12.2 12.44,18.26 9.32,14.14 15.52,25.09 11.15,46.48 -7.76,37.94 -25.89,43.7 -58.68,58.57 -15.36,6.99 -19.5,15.82 -38.97,19.86 -23.61,4.93 -21.46,13.11 -37.9,20.67 -27.86,12.76 -65.08,13.58 -65.03,55.03l2.19 152.96c-0.08,49.39 -10.43,160.27 -30.84,204.53 -16.99,36.84 -39.24,17.75 -41.3,76.81 -2.77,79.67 -17.3,124.14 -102.89,133.56 -17.75,1.95 -38.83,1.11 -54.95,3.26 -21.91,2.93 -36.08,-2.11 -55.79,-2.37 -39.92,-0.52 -74.68,-5.57 -113.67,-5.99 -38.29,-0.39 -74.74,7.67 -111.42,7.39 -25.34,-0.25 -48.85,0.83 -74.38,-0.26 -7.56,-0.31 -61.38,-2.51 -52.98,-18.06 1.93,-2.23 -0.05,-1.86 3.53,-3.27 3.12,-1.27 4.56,-1.05 7.87,-1.29 4.66,-0.33 10.69,-0.42 15.43,-0.43 10.55,-0.05 19.77,1.55 30.6,1.38 69.45,-1.03 136.23,-14.09 205.38,-11.57 60.72,2.22 195.69,16.53 240.61,-8.65 48.47,-27.14 17.65,-112.52 48.18,-152.49 23.26,-30.47 27.02,-2.76 41.88,-80.08 13,-67.85 14.93,-141.13 14.96,-210.44l-2.18 -87.39c0.02,-24.51 6.29,-36.93 20.72,-48.58 32.04,-25.82 52.7,-23.08 69,-35.36 22.85,-17.23 34.06,-13.02 47.89,-21.67 42.64,-26.74 92.5,-31.05 46.11,-92.37 -30.65,-40.51 -33.4,-61.17 27.27,-69.77 4.72,-21.08 5.94,-42.4 7.09,-64.84 1.53,-30 11.56,-68.51 -0.56,-97.6 -15.63,-37.5 3.33,-48.27 44.02,-55.46 3.4,-12.31 11.13,-35.72 16.43,-46.68 6.26,-12.99 16.11,-28.6 36.26,-26.06 15.66,12.52 5.39,18.41 13.09,32.04 16.17,-5.19 7.99,-51.4 2.45,-67.56 -10.74,-31.32 13.41,-35.18 33.87,-44.13 55.53,-24.3 42.49,-47.72 67.68,-100.2 12.62,-26.33 33.63,-27.43 38.27,7.72 3.27,24.84 3.96,50.5 21.77,63.46 16.82,12.26 46.32,10.59 54.6,28.81 4.75,10.47 -0.9,23.77 -3.31,34.4 -4.33,19.04 -7.25,46.71 -1.06,66.32 24.9,-7.84 12.87,-47.15 20.61,-64.29 7.34,-16.26 44.02,-28.06 59.08,-11.59 6.04,25.89 -3.84,57.91 -1.21,83.02 16.93,16.2 29.73,18.71 36.25,46.78 6.74,28.98 -10.01,44.1 -10.51,73.69 17.3,-7.51 26.74,-20.9 39.01,-33.43 18.18,-18.62 35.18,18.7 50.17,-4.09 7.22,-10.95 0.75,-39.23 12.43,-59.48 10.58,-18.29 21.76,-21.84 48.37,-23.57 -4.42,-9.35 -22.28,-21.32 -16.38,-36.06 6.02,-15.06 24.7,-15.11 41.71,-14.99 14.18,-2.71 16.98,-44.65 70.95,-51.38l-0.24 -64.24c-16.44,0.51 -34.95,6.4 -32.4,-16.27 10.22,-10.36 14.65,-7.43 30.92,-11.97l0.92 -16.47c14.37,-10.53 24.64,-8.29 28.51,12.45l23.87 0.06c14.8,20.71 1.44,25.54 -21.39,27.37l-2.77 64.14c23.15,0.08 32.07,18.05 43.05,33.84 27.6,-2.64 41.75,-7.11 57.65,17.53l6.4 19.58c1.61,7.31 17.22,9.46 21.27,29.27 1.9,9.5 7.21,29.59 13.5,34.85 9.13,7.66 28.78,4.89 37.96,-1.22 8.79,-5.86 17.79,-19.06 33.53,-8.48 9.3,6.27 13.98,17.87 22.74,25.48 24.51,21.35 58.31,21.61 58.74,88.74l25.79 -3.33c2.51,-25.24 5.83,-15.37 13.71,-29.82 -6.29,-18.06 -39.15,-30.02 -25.21,-51.53 5.18,-7.98 11.02,-10.15 18.25,-23.12 24.3,-43.67 35.39,-43.77 66.33,-1.84 33.13,44.91 11.64,45.94 7.51,59.55 -0.17,15.82 10.47,24.81 18.22,35.01 24.78,2.1 46.12,-5.96 64.29,12.77 16.88,17.4 5.24,33.11 5.26,73.09 0.02,25.64 5.66,55.22 6.56,80.83 0.99,28.56 5.04,49.61 12.33,75.64 37.32,133.33 38.07,72.19 38.08,206.7 0.02,18.98 -2.8,37.85 -2.16,56.76 1.03,29.95 -2.05,59.69 -2.05,89.59l-2.21 80.83c-0.02,36.54 -3.65,76.69 -4.59,113.57 -1.23,48.23 -2.08,113.14 17.85,157.37 22.32,4.44 42.72,-1.57 63.21,-3.45 48.17,-4.39 51.29,19.27 123.07,5.77 53.05,-9.99 30.21,-29.69 113.26,-15.52 48.17,8.2 64.79,-12.17 109.31,-22.23 15.79,-3.57 45.93,-5.06 56.72,-13.19 -2.54,-69.87 18.4,-55.67 49.28,-89.96 32.96,-36.61 23.5,-15.65 12.75,-48.13 -3.36,-10.15 0,-19.93 0.27,-29.68 0.72,-25.35 1.23,-37.82 24.63,-43.69 1.14,-16.6 4.03,-32.65 12.15,-44.62 13.9,-20.51 23.62,-12.53 41.47,-9.82 13.74,2.07 6.18,-7.15 3.6,-15.17 -8.55,-26.19 6.46,-50 4.19,-78.32 -2.66,-33.16 -1.05,-78.05 -7.76,-107.8 -6.38,-28.31 -27.94,-59.3 -46.84,-68.89 -94.85,50.44 -52.66,37.95 -70.86,78.62 -9.32,20.77 -24.36,4.43 -31.65,-1.66 -10.87,-9.04 -18.31,-12.52 -21.45,-28.82 -11.12,-57.85 47.49,-70.98 58.46,-90.61 -19.75,-6.12 -30.52,2.19 -45.61,8.39 -20.41,8.41 -53.76,-16.53 23.77,-45.96 8.98,-3.41 14.06,-4.03 23.95,-6.26 9.02,-2.04 8.45,-6.13 16.57,-13.2 18.77,-0.29 22.39,5.09 38.07,8 12.78,-16.14 11.63,-36.54 28.66,-50.78 16.67,-13.93 42.26,-20.28 49.07,5.76 7.03,-2.72 7.28,-4.73 13.03,-6.13 5.93,-1.44 10.12,-0.25 17.71,-2.2 -0.69,-23.38 -51.99,-17.86 -49.32,-61.31 15.24,-17.18 40.1,-10.69 64.18,-4.36 15.92,4.19 31.01,9.39 43.34,18.25 6.78,4.87 5.37,6.4 12.5,9.68 34.83,-19.84 44.12,-28.12 96.13,-27.69 43.26,0.38 48.73,21.49 33.41,33.46 -15.03,11.74 -42.26,17.73 -52.66,31.74 10.83,6.2 10.9,3.22 18.95,12.86 1.53,28.01 -35.78,29.58 -53.85,41.13 16.46,1.17 20.38,1.46 34.48,4.41 9.8,-7.55 15.53,-13.91 30.82,-18.49 1.3,-12.69 5.26,-19.82 14.84,-24.31 12.32,-5.83 23.78,0.23 35.99,1.36 10.8,-25.39 65.94,-52.79 106.26,-52.39 34.4,0.34 35.29,24.33 13.61,39.69 -14.6,10.37 -38.37,24.51 -45.08,39.37 34.58,10.51 48.63,34.73 11.24,50.65 2.92,6.42 0.81,3.53 5.9,8.92l17.75 23.83c7.51,13.82 10.69,31.48 7,49.35 -18.32,23.31 -31.84,-7.21 -43.22,-17.27 -5.8,5.78 -7.45,10.39 -19.24,10.8 -8.3,31.07 -6.81,61.08 -14.03,92.78 -3.31,14.57 -7.22,25.92 -12.54,39.88 -8.06,21.11 -9.3,18.98 -9.22,46.35 14.71,-15.14 7.09,-17.79 35.16,-35.58 12.38,-7.85 31.54,-19.49 49.34,-20.74 -6.86,-25.3 6.75,-41.07 22.75,-50.81 18.4,-11.17 41.19,-13.08 65.77,-11.81 7.86,-4.8 11.15,-7.28 23.72,-9.47 -7.22,-40.14 -48.51,-19.71 -63.22,-43.85 -5.23,-14.35 10.12,-26.49 18.94,-33.49 14.03,-11.1 27.21,-4.43 46.77,-5.18 1.72,-2.13 1.22,-0.91 2.72,-4.22l7.29 -14.25c25.73,-36.4 96.58,-29.68 103.11,-4.26 5.9,22.94 -15.65,22.97 -31.64,28.37 23.5,13.37 33.6,18.16 47.27,39.08 27.23,41.75 -28.07,31.38 -39.53,31.71 3.62,7.06 8.76,9.34 8.56,20.35 -0.62,30.03 -45.78,18.83 -49.78,38.95 22.74,13.75 35.1,21.89 47.88,42.1 9.64,15.25 23.95,44.96 23.9,67.69 -0.05,20.46 -3.27,36.03 -25.81,32.77 -6.04,-3.5 -6.32,-3.77 -10.48,-9.44l-5.52 -7.67c-2.19,-2.33 -1.68,-1.62 -3.99,-3.4 -4.5,14.92 -13.87,17.04 -27.95,8.89 -11.36,-6.62 -15.76,-18.97 -30.7,-17.93 -6.03,8.52 -0.56,13.52 -9.29,19.37 -8.13,5.45 -16.14,0.48 -23.51,-1.53l-1.95 26.12c13.84,5.76 29.63,20.01 31.51,36.13 6.68,0.58 62.02,-15.14 68.86,14.93 3.25,14.26 -4.12,16.53 -8.8,23.54 26,7.98 34.03,-10.99 58.1,16.87 17.97,20.82 8.17,39.74 -7.26,53.67l0.71 24.04c11.87,10.77 20.4,10.11 28.35,27.54 8.14,17.84 -4.18,30.99 22.91,33.61 23.29,2.25 28.24,5.16 40.32,17.18 14.5,14.46 14.7,15.8 16.96,40.01l21.01 1.03c-6.15,-11.53 -12.75,-19.46 -12.54,-37.64 0.25,-20.07 11.65,-20.08 30.28,-21.34 20.14,-24.65 7.98,-69.6 6.29,-102.79 -1.63,-32.08 4.75,-79.96 9.95,-110.94 12.71,-75.71 17.72,-160.32 16.64,-240.55 -20.14,1.51 -37.07,-0.93 -57.32,0.96 -21.41,2.02 -34.03,-2.83 -48.6,-12.01 -10.33,-6.54 -24.83,-18.41 -26.79,-34.09 -3.55,-28.45 10.43,-25.78 33.2,-26.87 3.13,-19.13 -4,-28.04 8.01,-44.34 10.42,-14.13 18.31,-14.35 30.43,-24.12 -13.13,-40.35 -9.89,-34.18 2.58,-78.3 4.98,-17.5 -5.66,-27.47 2.51,-43.04 6.29,-12 17.42,-15.73 26.51,-22.63 -2.33,-31.16 -0.8,-28.83 11.67,-52.53 8.63,-16.38 -2.67,-22.74 19.6,-49.91 -4.65,-17.31 -0.61,-18.94 2.19,-34.93 -4.08,-5.65 -10.5,-8.36 -10.09,-17.53 0.38,-8.32 8.08,-12.17 12.96,-17.41 0.98,-24.48 -9.37,-26.45 -11,-43.92 -1.16,-12.66 11.64,-30.81 17.05,-39.19 4.69,-7.23 18.61,-29.15 25.1,-31.14 19.65,-6.07 21.73,18.1 27.42,27.12 11.78,-5.34 47.83,-43.61 49.62,19.37 15.1,-1.77 26.11,-8.3 42.17,-5.05 24.59,20.85 -11.1,67.88 -9.53,95.8 11.89,21.85 17.92,22.38 9.28,50.32 5.44,12.04 11.05,16 15.56,32.78 5.1,19.04 0.77,25.54 -2.45,42.36 49.92,24.33 55.8,37.7 78.66,91.98 14.3,34.03 52.36,77.48 43.29,126.12 -3.94,21.17 -4.97,12.27 1.5,32.51 4.92,15.36 12.23,95.41 14.38,114.65 8.8,78.88 16.4,163.08 6.35,242.45 -3.38,26.71 -11.29,47.6 -11.25,76.5 0.03,41.56 7.73,90.89 19.44,129.84 15.49,7.01 21.21,2.89 34.47,7.68 10.78,3.9 16.62,11.78 25.35,16.85 18.5,-0.64 19.97,-9.2 47.75,-3.86 19.05,3.64 25.34,0.39 46.08,-0.56 0.93,-21.41 7.41,-41.7 20.48,-49.3 21.21,-12.31 42.45,2.53 55.85,8.18 5.44,-23.08 22.26,-31.72 19.78,-51.98 -2.69,-22.11 -8.19,-43.31 -6.91,-67.85 2.75,-55.31 5.53,-111.12 1.76,-166.36 -4.88,-71.35 -8.36,-100.63 6.48,-173.15 7,-34.27 18.18,-75.59 17.3,-111.14 -22.69,-5.59 -46.79,-22.22 -58.75,-35.9 -18.72,-21.41 -12.34,-49.36 -8.56,-80.8 2.05,-17.14 4.72,-23.54 10.73,-37.08 7.92,-17.81 -4.85,-21.52 3.41,-39.98 16.12,-36.09 25.04,-2.01 30.45,-65.68 -15.2,-15.93 -16.9,-32.3 -10.89,-54.67 2.55,-9.5 0.81,-14.43 2.31,-23.92 5.06,-32.07 36.87,-31.57 70.15,-30 0.86,-15.83 8.04,-20.58 18.96,-26.34 0.46,-12 -1.29,-20.96 5.68,-29.34 10,-12.01 19.46,-2.81 17.85,-17.58 -2.93,0.73 -1.29,0.19 -3.99,1.23 -11.95,4.58 -30.74,16.77 -43.35,10.06 -11.9,-11.29 -11.54,-28.61 -5.88,-46.98 5.51,-17.98 15.4,-25.17 6.55,-44.91 -11.41,-5.24 -27.73,-5.03 -24.43,-23.11 1.38,-7.61 16.34,-20.18 21.72,-26.47 2.6,-25.9 -7.91,-24.68 -9.09,-37.29 -0.75,-8.2 2.93,-13.3 6.19,-17.94 9.6,-13.71 -0.28,-32.33 19.56,-50.18 5.84,-5.27 6.95,-3.27 12.17,-11.84 4.61,-7.58 4.2,-7.41 10.67,-13.53 0.56,-23.1 -0.14,-62.66 15.8,-73.37 19.07,-12.8 42.87,23.26 51.62,32.4 13.67,-0.78 32.37,-13.68 48.68,-16.18 24.57,-3.79 25.36,16.12 27.74,36.9 23.07,0.9 42.85,-5.76 50.49,15 7.4,20.12 3.62,41.76 3.47,63.64 11.45,18.99 16.83,43.1 7.98,68.52 -9.06,26.11 -22.01,30.34 -22.55,62.78l19.65 -0.42c1.46,3.52 10.91,11.94 14.13,16.82 18.91,28.76 28.84,47.27 9.59,63.99 -3.43,2.98 -2.33,1.95 -4.81,5.58 20.7,15.02 40.53,51.7 50.66,83.08 19.42,60.09 33.93,106.44 23.46,169.58 -4.31,25.93 -9.45,29.52 -8.99,57.37 0.98,59.22 -23.18,173.01 -38.46,231.16 -9.44,35.84 -15.19,75.01 -22.52,112.68 -7.33,37.65 -24.52,136.89 -25.19,175.48l1.77 96.16c0,17.59 10.32,128.76 21.42,134.19 11.74,5.76 29.97,4.73 42.17,3.42 -16.88,-22.04 -28.62,-33.73 -18.93,-71 8.61,-33.07 25.34,-34.65 57.7,-24.92 -5.05,-19.35 5.57,-36.61 12.21,-53.32 15.26,-38.28 22.63,-61.35 40.75,-98.83 7.93,-16.39 13.59,-33.83 19.49,-52.74 22.61,-72.67 42.32,-154.8 48.03,-232.47 -30.44,10.05 -61.48,25.81 -79.67,-5.94 -21.76,-37.93 -5.35,-53.7 -3.2,-69.58 0.67,-4.9 -3.57,-17.87 -4.41,-25.8 -15.53,-7.7 -20.19,-18.16 -31.21,-29.96 -50.19,-53.57 18.53,-57.67 28.29,-60.8 8.26,-2.66 15.02,-3.96 24.68,-5.57 6.4,-1.05 22.2,0.85 26.84,-1.7 -7.85,-5.79 -17.64,-7.03 -14.95,-21.31 1.41,-7.43 11.08,-17.07 14.53,-24.57 -13.17,-17.29 -19.97,-17 -19.89,-48.23 0.03,-13.05 2.2,-14.05 -0.95,-27.02 -2.17,-8.93 0.02,-16.27 2.76,-24.08 7.81,-22.43 -9.97,-16.7 -10.67,-40.66 -0.71,-24.6 24.67,-63.73 50.12,-65.96 4.52,-15.52 12.43,-40.92 22.21,-47.49 20.8,-13.93 28.82,17.05 35.09,29 21.63,-2.56 47.45,-29.38 52.25,14.08 43.8,-1.91 21.77,32.51 17.59,54.22 8.32,16.88 21.7,30.91 15.18,56.72 -4.5,17.77 -15.7,40.07 -27.1,49.45 24.3,2.49 42.27,-1.79 60.19,12.3 19.41,15.26 8.74,33.89 25.2,47.07 29.25,23.4 42.83,40.54 61.59,83.13 18.02,40.91 28.5,58.67 33.6,110.97 9.79,100.39 6.78,172.11 -1.97,271 -5.8,65.48 -10.65,153.15 -2.1,220.49 2.72,21.55 16.49,49.67 10.63,65.8 16.23,33.45 19.84,13.13 95.67,-8.21 15.9,-4.48 40.78,1.85 51.41,-2.99 6.17,-2.83 13.2,-14.44 33,-23.54 63.74,-29.26 27.21,-30.43 54.8,-56.07 27.79,-25.78 83.8,-8.2 86.8,-33.31l5.06 -27.28c2.56,-12.04 3.37,-24.9 2.82,-38.25 -1.15,-28.46 0.56,-55.85 -0.94,-84.21 -16.74,-0.85 -16.89,29.37 -29.44,39.68 -23.31,3.72 -16.12,-9.98 -30.59,-14.52 -15.01,8.54 -3.39,26.47 -20.18,29.35 -10.38,1.76 -25.77,-13.41 -29.32,-21.44 -3.33,-20.7 9.93,-34.93 18.16,-45 -26.03,-2.7 -26.48,-28.28 -16.19,-46.29 8.67,-15.21 27.42,-20.85 51.45,-22.58 -4.64,-17.42 -37.57,-61.72 -8.51,-73.9 24.28,-10.19 51.61,24.31 65.76,35.48 10.9,-16.45 9.05,-29.45 25.25,-44.24 9.06,-8.27 31.22,-19.95 49.1,-20.26 52.3,-0.89 -1.87,66.84 -7.13,85 68.38,1.72 36.92,43.06 35.33,46.72 20.35,17.56 33.52,46.27 -4.49,57.77 1.23,31.01 -18.03,22.01 -37.76,16.99 0.47,22 -2.23,62.47 0,78.27 5.81,0.26 41.59,-19.87 51.56,-24.19 20.87,-8.99 36.34,-10.25 55.34,-22.9 3.88,-38.41 -30.75,-23.96 -29.34,-53.72 1.05,-22.03 19.92,-31.4 19.12,-67.7 -21.59,-21.6 -22.09,5.89 -46.04,-12.65 -0.4,-12.25 3.14,-16.88 7.87,-24.8 -3.48,-6.82 -10.37,-10.07 -6.32,-20.73 5.74,-15.13 48.77,-20.18 64.16,-20.69 1.48,-10.67 1.07,-21.54 4.95,-29.79 4.76,-10.1 12.19,-12.33 17.78,-19.84 -62.9,-1.15 -1.7,-99.61 111.09,-62.08 5.84,-17.68 22.6,-34.53 38.35,-42.49 17.56,-8.92 46.56,-19.09 60.95,-0.91 4.28,22.04 -11.4,27.71 -21.14,39.18 12.5,11.75 30.11,7.04 43.09,29.65 14.35,24.95 -5.61,36.31 -21,44.8 5.57,14.03 18.05,14.82 27.06,47.5 0.2,0.71 0.75,2.76 0.98,3.41 1.9,5.05 1.46,2.98 2.45,4.56 9.54,-59.15 34.86,-35.33 69.53,-30.91 -5.33,-19.13 -51.07,-21.49 -36.57,-45.85 14.22,-23.93 48.91,-2.97 66.91,-2.18 -3.2,-18.49 -19.09,-31.81 -38.55,-35.08 -24,-4.05 -51.96,15.48 -53.15,-19.04 -3.15,4.61 -8.36,13.48 -10.2,18.95 -45.36,5.54 -9.52,-46.19 15.7,-58.56 30.06,-14.75 77.46,-5.12 41.63,29.78 30.19,3.85 52.09,16.54 63.61,35.4 15.14,24.79 15.69,61.56 -23.33,59.24 15.93,73.65 -36.37,41.15 -63.09,39l-3.4 16.24c16.29,-0.63 40.54,-2.62 49.5,10.81 0.16,0.27 0.35,0.48 0.37,0.91 0.12,3.49 0.2,7.28 5.21,13.15 3.7,4.31 8.64,9.06 12.11,12.21 8.02,-3.47 14.44,-3.42 21.93,-6.34 8.14,-3.2 10.3,-9.34 22.26,-4.83 13.43,5.07 20.28,19.31 36.64,23.28 -0.47,-36.89 -22.08,-31.53 -34.77,-51.28 -2.41,-19.6 11.68,-26.19 30.45,-25.86 19.12,0.3 28.59,6.49 42.73,12.34 -3.81,-11.45 -17.31,-26.63 -24.44,-35.01 -19.94,-23.43 -37.26,-9.01 -44.69,-19.12 -13.08,-17.81 29.69,-51.25 81.87,21.55 8.07,11.22 25.75,37.86 17.37,58.69 -10.18,25.38 -42.02,-0.82 -52.38,-4.71 6.13,10 11.43,20.88 12.35,34.04 1.19,16.54 -0.79,29.25 -10.07,38.11 -19.71,18.86 -51.22,-18.01 -64.16,-20.69 1.38,15.22 9.66,18.54 -2.8,33.96 -12.12,15.03 -14.71,5.06 -15.69,33.28 -0.91,25.97 -11.66,67.38 -11.09,85.18 18.07,0.17 36.41,-11.8 55.45,-3.86 15.43,6.44 16.61,24.38 28.64,37.19 17.46,-2.89 25.26,-11.88 45.93,2.44 22.62,15.67 4.22,32.95 5.04,45 25.31,3.54 29.72,-0.3 43.58,18.23 19.76,26.39 1.65,26.16 -0.84,44.26 17.31,6.57 59.83,-23.3 77.88,12.54 12.02,23.89 7.86,31.04 29.27,47.49 6.29,4.85 7.49,6.88 13.26,13.2 19.34,-4.13 20.7,-15.19 56.17,-5.36 29.45,8.15 10.19,16.62 47.08,20.64 24.03,2.64 32.04,11.89 54.13,13.47 127.64,9.01 140.05,12.5 252.18,-66.64 51.43,-36.29 101.05,-76.37 149.16,-116.9 78.45,-66.09 155.09,-135.66 229.56,-207.18 -14.87,-144.79 -22.05,-290.41 -19.6,-436.73 0.01,-0.51 0.02,-0.95 0.05,-1.49 14.17,-194.36 114.24,-324.77 260.69,-443.22 3.36,-2.73 7.21,-4.5 11.21,-5.35 135.5,-103.78 381.34,17.79 392.71,184.33 0.06,0.96 -1.21,0.25 -3.24,-1.44 16.42,171.91 -7.41,378.52 -126.98,511.81 -0.2,0.21 -0.38,0.41 -0.58,0.62 -38.59,40.33 -135.03,136.07 -246.59,239.73 37.36,195.91 83.36,390.83 132.57,583.93 2.53,9.86 -0.47,19.61 -8.07,26.38 -7.61,6.75 -17.66,8.57 -27.16,4.93 -33.92,-13.08 -67.25,-26.72 -99.75,-42.67zm-1975.86 -605.06c5.43,-6.23 9.42,-6.48 20.31,-6.58 -6.27,4.38 -11.74,5.56 -20.31,6.58zm614.46 5.81l1.23 -25.35c3.82,2.63 3.43,1.57 6.55,5.61 4.61,6.05 1.51,0.36 3.86,8.01l-11.64 11.72zm-71.55 -47.1c14.11,20.45 22.04,12.86 36.39,1.46l8.74 7.12c1.27,26.94 -11.24,126.93 -26.22,139.5 -13.51,-4.01 -10.99,-14.77 -11.85,-30.34 -1.86,-33.18 -5.84,-15.63 -5.81,-76.48 0,-16.63 -3.6,-23.15 -1.25,-41.26zm-68.05 146.03c-11.77,0.36 -25.15,-6.48 -37.62,-9.4 -26.18,-6.11 -19.09,-9.84 -26.21,-65.85 -1.68,-13.21 -7.66,-31.06 -6.8,-41.54 14.08,-13.89 18.79,-7.98 14.82,-37.19 12.26,2.42 27.85,12.65 38.58,-1l5.85 -11.09c16.17,10.12 27.56,33.31 49.78,19.79l-0.43 21.05c-19.34,-12.25 -19.94,9.71 -24.64,25.3 -3.8,12.55 -0.54,20.75 2.03,33.85 6.56,33.45 -4.3,44.97 -15.36,66.09zm-1242.62 -146.27l-0.05 -0.68 -0.05 -0.68 -0.07 -0.68 -0.06 -0.67 -0.06 -0.68 -0.08 -0.67 -0.07 -0.67 -0.07 -0.66 -0.07 -0.68 -0.08 -0.66 -0.08 -0.66 -0.07 -0.66 -0.08 -0.66 -0.08 -0.65 -0.08 -0.67 -0.09 -0.65 -0.08 -0.65 -0.09 -0.66 -0.08 -0.64 -0.08 -0.66 -0.08 -0.65 -0.08 -0.64 -0.09 -0.66 -0.08 -0.64 -0.08 -0.66 -0.08 -0.64 -0.08 -0.66 -0.07 -0.64 -0.09 -0.65 -0.07 -0.65 -0.07 -0.64 -0.07 -0.66 -0.07 -0.64 -0.06 -0.66 -0.06 -0.64 0 -0.01 -0.07 -0.64 -0.05 -0.66 -0.05 -0.65 -0.06 -0.66 -0.05 -0.65 -0.05 -0.65 0 -0.01 -0.05 -0.66 -0.05 -0.65 0 -0.01 -0.04 -0.65 -0.04 -0.67 -0.03 -0.66 -0.03 -0.66 0 -0.01 -0.02 -0.67 -0.02 -0.67 -0.02 -0.66 0 -0.01 -0.01 -0.67 0 -0.67 0 -0.01 0 -0.68 0.01 -0.68 0.01 -0.68 0.02 -0.68 0 -0.01 0.03 -0.68 0 -0.01 0.02 -0.68 0 -0.01 0.05 -0.69 0.03 -0.69 0 -0.01 0.05 -0.7 0.05 -0.7 0 -0.01 0.06 -0.7 0 -0.01 0.06 -0.7 10.15 1.99 0 0.01 -7.21 40.53zm-2.94 -42.52l0 -0.01 0 0.01zm-1202.06 -10.26c26.95,17.41 -9.86,38.2 -14.99,43.84 -4.5,4.96 -10.88,19.24 -19.95,20.29 -6.57,0.76 -17.4,-7.62 -30.82,-9.58 6.72,-9.62 20.76,-13.9 22.41,-26.67 2.02,-15.6 -11.4,-21.55 -25.1,-23.31 6.35,-14.49 15.29,-11.91 10.4,-34.22l33.34 -7.91c-7.69,6.1 -22.24,17.08 -14.86,33.06 7.5,16.23 26.05,5.44 39.57,4.5zm1189.18 -151.54c21.99,-0.81 23.74,-8.01 40.02,7 3.16,24.38 -5.29,44.02 -11.67,65.19 -17.93,59.71 -0.23,38.39 -29.34,47.6 -0.18,-16.17 7.6,-49.67 -4.95,-62.8 -4.78,-5 -9.04,-3.16 -15.2,-7.62 6.16,-22.87 8.92,-33.92 21.13,-49.37zm1187.59 64.61c9.84,-9.74 12.16,-40.82 38.4,-49.28 -3.46,7.54 -11.37,14.49 -12.75,20.75 -6.44,29.28 49.08,12.14 58.36,36.73 -11.2,9.45 -26.51,5.44 -39.89,10.51 -14.5,5.47 -13.41,21.66 -0.77,29.31 23.84,14.4 43.47,17.3 44.24,54.27 -17.14,-7.56 -21.93,-18.93 -48.81,-23.17 -9.71,-1.54 -22.52,-1.45 -30.93,1.36 -11.96,4.04 -11.96,9.44 -11.46,23.13 -14.56,14.37 -11.77,15.01 -10.76,39.83 -3.78,2.24 -2.9,2.07 -6.07,4.61l-6.13 4.18c-4,-10.74 -2.74,-7.32 -10.86,-12.8 -3.29,-2.25 -2.01,-1.48 -3.76,-3.32 19.32,-22.8 1.9,-26.5 -2.31,-48.8 9.79,-5.75 34.95,-23.99 23.18,-43.87 -11.36,-19.26 -35.09,-4.71 -51.51,0.42 0.71,-11.7 9.05,-23.85 2.8,-37.31 -5.73,-12.37 -18,-8.86 -27.36,-15.11 30.07,-4.76 47.82,-0.5 77.21,-1.47 10.35,12.64 5.64,10.5 19.17,10.04zm-2739.3 129.88c-0.87,-44.17 15.11,-100.11 18.48,-144.01 2.19,-28.42 4.94,-45.43 10.5,-71.07 7.55,-34.78 19.4,-24.82 53.06,-21.44 -2.04,16.93 -11.19,22.79 -9.08,46.95 1.19,13.73 11.75,33.36 29.21,23.95 10.97,-5.92 7.35,-24.59 20.96,-37.86 8.54,-8.31 23.72,-16.89 38.44,-19.04 0.74,93.91 4.08,74.24 -19.66,164.82 -16.82,-6.72 -40.54,-34.49 -56.59,-13.72 -2.42,15.36 9.9,33.38 14.96,45.98l-8.46 4.76c-3.57,1.49 -5.82,2.33 -11.09,1.94 -24.77,-1.81 -50.53,-15.37 -57.05,2.62 0.12,12.42 3.32,13.85 6.35,22.42 -19.11,2.97 -18.57,8.39 -29.65,15.4l-0.38 -21.7zm502.38 -184.2c-16.65,1.27 -27.41,5.59 -36.02,14.24 -4.3,4.33 -7.47,8.26 -6.95,15.97 0.19,2.83 1.7,7.28 3.08,9.7 0.25,0.43 2.71,3.91 2.72,3.92 2.16,3.42 0.71,0.7 2.91,5.11 -17.63,5.08 -34.74,13.67 -38.88,32.7 -11.92,54.61 16.17,35.85 25.07,38.57 16.89,10.95 35.96,30.37 41.78,55.3 -8.03,-5.07 -16.01,-17.89 -27.66,-21.31 -18.56,-5.43 -24.64,5.32 -27.31,20.29 -42.14,-3.59 -30.23,15.39 -50.55,15.51 20.54,-60.7 9.59,-41.3 -5.03,-71.58 13.12,-3 18.29,-2.46 24.73,-11.78 1.98,-15.29 -4.07,-18.77 -14.27,-24.96 11.7,-6.68 7.88,-5.96 14.6,-16.68 26.65,-6.8 37.94,-11.5 24.31,-43.65 -7.8,-18.36 -19.18,-32.27 -38.79,-38.48 57.23,-5.77 36.71,-11.02 50.99,-33.8 4.18,-5.85 9.71,-8.77 19.92,-9.58 -38.97,49.61 19.53,38.67 35.34,60.52zm1299.48 1.9c-8.85,10.54 -33.97,21.52 -52.28,21.33 -7.17,-10.47 -14.36,-27.05 -6.66,-44.22 12.47,-27.75 -8,-26.24 0.51,-39.17 11.32,15.47 -11.83,7.66 26.55,35.23 12.36,8.87 24.55,15.36 31.87,26.83zm-1187.92 -22.58c13.1,-10.23 31.33,2.32 30.18,-30.32 -0.72,-20.53 -1.55,-36.29 19.94,-37.85 6.19,9.15 8.59,24.17 10.03,36.19 2.02,17.2 -1.46,25.06 9.34,37.05l13.44 -0.48c15.09,-6.34 2.88,-52.08 1.79,-63.67 4.53,3.64 -0.26,-2.56 4.89,4.98 1.5,2.2 1.74,3.42 2.94,5.93l15.09 32.64c-13.08,6.42 -9.91,10.78 -9.12,31.24 -20.09,1.03 -33.8,-2.92 -55.22,-0.76 -20.14,2.04 -31.9,-3.98 -43.3,-14.96zm1081.72 -100.14c21.37,-3.22 45.19,-11.62 58.37,-10.35l12.51 21.54 -5.56 15.31c-15.3,1.44 -21.2,8.85 -37.21,5.77 -4.22,-3.07 -25.48,-25.88 -28.11,-32.27zm-1733.13 -21.15l0 0 0 0zm0 0l-0.49 0.19 -0.01 0 -0.49 0.19 0 0 -0.47 0.18 -0.44 0.17 -0.82 0.34 -0.01 0 -0.38 0.16 -0.37 0.16 0 0.01 -0.36 0.14 -0.33 0.15 -0.63 0.26 0 0.01 -0.57 0.24 0 0.01 -0.27 0.1 0 0.01 -0.25 0.1 0 0.01 -0.25 0.09 0 0.01 -0.23 0.08 0 0.01 -0.22 0.07 0 0.01 -0.21 0.07 -0.2 0.06 0 0.01 -0.19 0.06 0 0.01 -0.18 0.05 0 0.01 -0.17 0.04 -0.01 0.01 -0.16 0.05 0 0.01 -0.17 0.03 0 0.01 -0.16 0.04 -0.01 0 -0.16 0.03 0 0.01 -0.15 0.02 -0.01 0 -0.15 0.01 0 0.01 -0.15 0 -0.6 -0.02 0 0 -0.29 -0.05 -0.01 0 -0.15 -0.04 0 -0.01 -0.49 -0.14 -0.34 -0.14 -0.01 0 -0.17 -0.07 -0.18 -0.08 -0.01 0 -0.19 -0.09 -0.2 -0.09 -0.01 0 -0.21 -0.11 -0.23 -0.11 -0.23 -0.12 -0.25 -0.13 -0.01 0 -0.25 -0.12 0 -0.01 -0.27 -0.14 -0.59 -0.3 -0.31 -0.16 -0.32 -0.17 -0.35 -0.16 -0.36 -0.18 -0.38 -0.19 -0.01 0 -0.38 -0.19 -0.01 0 -0.4 -0.2 -0.01 0 -0.43 -0.21 -0.01 0 -0.44 -0.22 -0.01 0 -13.05 -5.2 -0.06 -0.15 -0.08 -0.11 0 0 -0.09 -0.11 -0.09 -0.08 -0.01 0 -0.09 -0.08 -0.12 -0.06 -0.23 -0.1 -0.12 -0.05 -0.01 0 -0.12 -0.04 -0.12 -0.05 -0.13 -0.04 -0.13 -0.05 -0.13 -0.04 -0.11 -0.06 -0.12 -0.05 2.18 -14.62 0.21 0.32 0.2 0.32 0.2 0.3 0.19 0.3 0.19 0.28 0.17 0.28 0.17 0.27 0.16 0.27 0.16 0.25 0.16 0.26 0.16 0.23 0.15 0.24 0.15 0.23 0.15 0.22 0.14 0.21 0.14 0.2 0.14 0.2 0.14 0.19 0.13 0.19 0.14 0.19 0.13 0.17 0.13 0.17 0.13 0.16 0.14 0.17 0.12 0.16 0.14 0.16 0.13 0.16 0 0.01 0.13 0.15 0.14 0.15 0.15 0.15 0.13 0.15 0.15 0.13 0 0.01 0.14 0.14 0.16 0.15 0.15 0.13 0.16 0.14 0.16 0.13 0.16 0.14 0.17 0.14 0.17 0.12 0 0.01 0.18 0.13 0 0.01 0.18 0.13 0 0.01 0.19 0.12 0 0.01 0.2 0.13 0 0.01 0.21 0.14 0.21 0.13 0.23 0.15 0.22 0.13 0 0.01 0.25 0.14 0 0.01 0.25 0.14 0.26 0.15 0 0.01 0.27 0.15 0 0 0.27 0.16 0.28 0.16 0.29 0.16 0 0.01 0.31 0.16 0.32 0.16 0 0.01 0.33 0.17 0.34 0.17 0 0.01 0.36 0.17 0 0.01 0.37 0.17 0 0.01 0.38 0.19 0.39 0.19 0 0.01 0.4 0.2 0 0.01 0.35 0.16 0 0.01 0.32 0.16 0 0 0.34 0.16 0 0.01 0.32 0.15 0.31 0.16 0 0.01 0.32 0.14 0.31 0.15 0 0.01 0.3 0.13 0 0.01 0.3 0.14 0.3 0.13 0.29 0.14 0.28 0.14 0.28 0.12 0.28 0.13 0.28 0.12 0.27 0.13 0.27 0.12 0.27 0.11 0.27 0.12 0.26 0.11 0.26 0.12 0.27 0.11 0.25 0.11 0 0.01 0.26 0.11 0.25 0.1 0.25 0.11 0.25 0.11 0 0.01 0.25 0.1 0 0.01 0.24 0.11 0.24 0.11 0.24 0.12 0.24 0.11 0.24 0.11 0.23 0.12 0.24 0.12 0.23 0.12 0.24 0.13 0.23 0.11 0.01 0 0.22 0.13 0 0.01 0.24 0.13 0.23 0.12 0.23 0.14 0.23 0.15 0.01 0 0.23 0.13 0 0.01 0.22 0.15 0.01 0 0.23 0.14 0.24 0.16 0.23 0.16 0.24 0.16 0.24 0.16 0.23 0.16 0 0.01 0.24 0.16 0.01 0 0.23 0.18 0.24 0.18 0.01 0 0.24 0.19 0 0 0.24 0.19 0.01 0 0.24 0.2 0.01 0 0.24 0.2 0.01 0 0.25 0.22 0 0 0.25 0.21 0.01 0 0.24 0.23 0.01 0 0.26 0.23 0.01 0 0.25 0.24 0.01 0 0.26 0.25zm24.34 -21.21c5.12,-11.67 15.26,-26.47 -2.18,-46.17 -5.16,-5.86 -5.07,-3.49 -9.61,-11.13 9.39,1.41 17.48,4.59 25.4,8.56 26.59,13.31 -0.38,28.16 10.89,46 4.38,6.9 14.19,9.36 21.14,2.87 6.18,-5.76 9.33,-54.87 74.76,-56.77 -4.81,6.38 -6.59,5.81 -13.36,11.6 -20.09,17.1 -19.47,24 -15.29,45.54 -16.69,5.37 -39.21,16.19 -41.76,32.61 -4.06,26.09 21.33,30.91 42.85,30.23 -3.96,6.74 -6.98,8.01 -12.15,15.45 -28.01,0.18 -31.64,-4.95 -51.36,11.94 -13.23,11.35 -14.44,28.27 -18.83,48.84 -7.65,35.75 -6.87,56.22 -12.24,89.88 -2.98,18.62 -1.15,20.62 -8.86,27.72 -4.91,-31.49 -0.69,-134.81 -17.94,-152.87l-8.76 0.09c-11.74,9.82 -3.61,32.67 -1.28,49.9 2.68,19.85 0.28,34.78 -2.58,53.54l-10.6 -38.78c-8.44,-25.21 -44.17,-71.58 -62.34,-75.72 -15.3,-3.46 -50.36,21.05 -62.62,27.9 -44.37,24.79 -31.23,44.69 -41.14,48.99 -4.69,-25.52 14.56,-41.24 27.63,-51.68 20.9,-16.74 45.89,-15.16 50.41,-27.08 -0.05,-16.61 -9.27,-20.68 -20.95,-24.48l6.47 -6.34c2.63,-1.8 3.11,-1.68 5.57,-3.11 27.51,5.73 19.64,25.22 46.05,21.95 15.72,-7.49 -0.63,-30.29 -0.72,-32.36 2.33,-12.01 12.86,-40.8 22.2,-45.64 -1.57,24.9 -10.12,54.23 24.26,52.42 18.39,21.28 21.43,5.56 34.11,-2.68 11.96,-7.78 26.87,2.96 44.83,1.06 20.57,-23.5 -6.56,-42.49 -21.98,-52.27zm745.14 -37.88c-1.36,-11.37 -1.8,-9.13 4.8,-14.66 4.31,-3.58 5.95,-4.68 9.8,-7.61 7.62,-5.77 13.73,-10.61 21.1,-15.88 28.35,-20.25 49.04,-23.23 86.46,-25.08 21.69,-1.08 56.9,21.61 65.3,44.88 -103.16,-22.2 -92.77,-28.22 -187.46,18.35zm570.06 -142.09c-9.12,-8.41 -8.18,-15.04 -4.16,-27.84 2.42,-7.76 3.17,-28.74 5.9,-31.23 8.74,-7.87 55.99,1.26 64.52,4.49 5.99,17.04 2.64,30.76 0.39,50.15 -10.75,-1.2 -14.05,-13.02 -34.02,-8.26 -12.87,3.06 -21.99,9.86 -32.63,12.7zm508.84 -36.96c-15.38,-15.47 -2.4,-24.44 5.15,-37.04 5.99,5.02 11.78,14.88 19.78,16.4 10.13,1.99 20.18,-4.73 30.45,-6.45 2.01,16.82 4.4,20.86 20.36,24.14 -0.11,10.8 -7.91,13.63 -5.45,26.85 3.06,16.46 28.22,24.1 11.11,59.59l-6.85 8.61c-18.48,-31.32 -14.6,-44.72 -42.8,-68.95 -9.79,-8.41 -21.71,-13.06 -31.75,-23.15zm-2698.17 -111.19c7.35,6.11 17.29,19.77 20.67,30.56 -4.73,11.09 -11.55,14.89 -9.07,32.45 1.59,11.41 8.07,20.25 12.04,29.14l-33.84 3.2c32.21,-28.21 3.54,-43.16 -9.57,-65.11l19.78 -30.23zm1632.38 159.62c-11.49,18.83 11.03,24.45 27.86,58.85 -18.9,10.95 -43.15,32.95 -47.74,34.68 -37.36,-44.56 -4.45,-62.35 0.21,-78.04 2.92,-9.93 -1.54,-14.4 4.87,-23.92 10.11,-15.04 33.77,-7.43 27.1,-28.34 -1.65,-5.16 -8.71,-8.88 -13.62,-13.89 0.46,-8.69 2.47,-11.01 3.1,-17.61 0.81,-8.52 -2.34,-11.61 -1.84,-17.18 1.09,-11.61 7.64,-2.94 4.14,-30.77 -1.89,-15.24 -8.37,-23.3 -9.18,-30.73 -0.77,-6.92 2.37,-10.3 5.05,-14.97 4.61,-7.98 2.93,-6.99 8.58,-11.58 21.16,25.88 22.96,17.13 47.45,3.75 6,37.4 16.1,28.47 46.61,25.43 -2.13,17.46 -9.08,32.08 -13.94,47.53 -9.73,30.96 3.9,24.15 10.56,43.81 6.02,17.78 -17.11,11.22 6.58,45.77 15.75,22.92 6.31,34.87 2.77,46.62 -12.7,2.34 -23.5,2.89 -36.18,5.05 -38.84,6.68 -31.49,-52.32 -72.39,-44.47zm740.45 -189.26c14.26,-10.73 60.97,-24.21 83.64,-25.69 3.28,7.05 9.49,14.76 10.37,24.24l-94 1.46zm-2635.31 -0.51c1.94,3.84 4.79,17.42 7.15,23.24 9.41,23.33 15.23,39.13 50.04,41.42 23.9,1.62 31.35,-7.68 45.78,-13.51 7.56,7.35 10.86,13.09 18.88,19.95 25.29,21.62 38.79,7.43 49.63,68.54 -79.12,19.25 -317.56,59.25 -409.09,66.47 -22.21,1.74 -51.3,1.99 -72.72,4.68l-74.69 5.27c9.12,-23.57 7.65,-40.87 23.61,-61.12 7.15,-9.07 14.03,-11.71 22.73,-18.63 8.73,-6.97 14.46,-14.2 22.14,-18.95 22.5,7.18 40.22,5.03 53.6,-9.54 15.89,-17.33 10.81,-29.97 14.43,-55.57 4.25,-29.83 24.56,-15.6 46.19,-23.17 20.8,-7.27 10.44,-34.93 3.59,-48.61 29.47,-1.31 102.91,2.88 100.79,-27.66 -13.97,-11.78 -37.4,-3.03 -59.27,-4.07 10.08,-24.38 60.95,-24.69 61.35,-24.54 7.41,6.42 20.9,28.21 24.7,30.3 10.38,5.72 31.04,-1.75 44.56,-0.22 11.5,5.22 0.31,20.08 9.37,32.02 5.48,7.21 13.74,6.72 17.24,13.72zm-659.79 -71.61c57.32,-19.5 68.85,-39.72 87.11,-87 2.4,3.05 0.12,-2.37 3.73,6.22 5.86,14.05 4.9,22.96 22.82,38.42 18.83,16.29 36.35,15.75 46.22,22.06 -2.42,24.88 -19.49,80.58 3.36,107.95 21.97,26.29 51.44,1.57 62.36,-26.25 11.33,-28.8 0.49,-35.77 8.38,-46.67 1.24,1.93 1.47,0.54 2.27,4.94 2.26,12.48 -8.01,53 -1.22,66.7 9.32,18.86 33.15,17.41 35.23,44.9 0.68,9.21 -9.83,35.53 -13.19,69.57 -1.37,13.57 -1.91,22.07 0.39,36.3 1.23,7.54 -3.31,21.2 -3.29,33.92 0,11.57 2.28,9.27 6.77,18.11 -50.03,8.5 -116.65,19.87 -167.44,22.51 12.54,-30.05 -0.74,-72.99 23.16,-121.88 3.76,-7.69 3.38,-7.74 10.27,-10.52 8.41,5.8 4.23,5.2 10.69,12.43 4.25,4.71 7.31,6.34 15.32,5.8 31.69,-40.56 -81.03,-112.86 -81.5,85.21 -0.04,17.79 -1.15,21.48 9.35,30.43 -59.24,11.39 -135.3,16.82 -198.05,19.79 2.33,-30.66 7,-62.57 9.69,-93.19 6.86,-78.33 -6.66,-60.78 -8.74,-87.59 51.96,-9.42 45.26,-10.65 103.43,-10.74 15.62,-0.04 34.72,-3.34 50.59,-4.86 54.73,-5.26 105.53,8.43 132.13,-23.48 -13.78,-10.29 -40.33,-5.98 -59.24,-6.28 -0.21,-39.75 19.27,-141.1 -25.02,-137.9 -19.99,1.46 -38.2,21.71 -44.72,39.57 -3.97,10.81 -17.06,62.89 -3.52,68.59 20.35,1.67 15.32,-25.54 19.4,-43.51 3.86,-17.08 11.53,-34.64 28.66,-35.23 4.7,19.43 -2.62,82.14 -3.39,107.91 -41.43,0.37 -48.05,2.41 -83.92,5.69 -9.76,0.89 -19.67,-0.58 -28.54,-0.47l-36.46 3.23c1.03,-5.97 6.89,-21.64 10.29,-28.63 6.66,9.16 12.14,20.88 30.67,19.67 14.21,-0.95 24.13,-12.17 28.06,-22.42 14.43,-37.52 0.79,-63.74 -2.12,-83.28zm3200.83 -146.82c14.81,-8.37 22.45,-4.94 13.34,-25.81 -4.88,-11.17 -1.07,-30.08 1.56,-40.17 15.66,7.33 16.08,30.23 37.83,29.49 15.65,-0.54 33.39,-17.18 46.83,-14.43l3.14 22.73c-13.7,2.25 -21.87,5.48 -25.74,17.95 15.74,13.45 16.67,7.22 38.92,11.45 32.58,6.23 29.32,29.57 34.43,37.88 4.29,7.03 24.64,21.38 13.84,54.03 -14.38,-12.55 -8.28,-18.64 -31.98,-31.61 -38.75,-21.2 -82.7,-7.07 -118.64,-35.19 -7.18,-5.63 -10.41,-11.21 -20.32,-7.42 -12.63,8.17 5.97,43.13 70.04,54.22 18.08,3.11 37.72,4.56 53.47,12.48 12.45,6.25 22.75,21.12 28.28,35.73 -5.1,15.18 -6.08,31.09 -5.03,49.63 -28.01,5.94 -70.72,25.31 -89.5,45.62 -9.04,9.74 -10.06,13.38 -27.57,15.2l-0.94 -15.3c11.97,-8.71 23.67,-11.91 34.64,-22.13 13.68,-12.75 -1.16,-32.92 -17.65,-22.16 -6.66,4.34 -8.87,7.37 -16.62,11.67 -5.63,3.14 -13.34,5.8 -18.62,9.66 -8.48,6.18 -1.99,11.66 -35.99,20.48 2.04,-16.7 16.95,-37.41 16.57,-45.71 -0.37,-7.58 -5.08,-7.92 -6.25,-24.25 -0.92,-12.82 -5.92,-10.79 -13.35,-17.6 6.32,-10.24 11.62,-11.34 10.82,-29.01l7.57 5.05c9.82,8.01 8.92,5.01 24.51,6.27 2.87,4.11 4.72,4.33 7.29,10.16 13.08,29.6 34.98,37.83 41.53,22.78 5.22,-12.05 -2.85,-16.92 -7.03,-22.04 -7.18,-8.81 -0.94,-12.92 -12.43,-20.45 -5.52,-3.64 -14.46,-6.92 -20.11,-10.73 -6.46,-4.38 -8.67,-11.22 -19.01,-14.16 -11.35,-3.22 -18.01,2.1 -24.24,6.75l-5.81 -15.78c3.66,-6.41 7.81,-7.12 8.2,-17.3 0.31,-8.27 -2.44,-15.1 1.43,-23 4.07,-8.3 8.36,-4.35 14.19,-9.73 3.61,-3.31 5.43,-10.51 8.38,-15.25zm3180.63 362.86c-27.95,-64.05 -110.59,-104.39 -173.24,-118.22 -43.31,-9.56 -93.14,-11.21 -137.32,1.87 -21.11,94.49 -17.75,207.74 -13.7,278.7 3.96,69.53 11.2,139.52 20.54,209.25 68.68,-73.47 135.42,-149.31 197.7,-227.55 33.86,-42.52 72.35,-92.51 106.02,-144.05zm-519.12 160.53c14.25,-195.64 120.77,-319.29 250.92,-424.53 -80.6,80.64 -112.91,271.58 -58.69,660.23 -20.99,22.19 -42.17,44.16 -63.45,65.94 -36.64,37.5 -73.89,74.75 -111.75,111.53 -13.11,-135.61 -19.38,-273.15 -17.04,-413.16zm237.87 505.77c31.6,163.1 74.33,351.66 129.77,569.25 -39.18,-15.07 -78.61,-31.14 -119.25,-52.76 -38.63,61.35 -65.21,127.36 -81.45,197.34 -46.81,-180.37 -87.27,-362.57 -116.71,-547.92 61.63,-51.7 126.42,-109.5 187.63,-165.92z"/>
  <path class="fil1" d="M862.35 313.18c16.45,0 29.32,3.92 38.65,11.78 9.31,7.85 13.98,18.64 13.98,32.39 0,13.74 -4.67,24.51 -13.98,32.29 -9.33,7.79 -22.2,11.68 -38.65,11.68l-34.6 0 0 40.68 -13.62 0 0 -128.82 48.22 0zm-0.37 76.18c12.76,0 22.52,-2.79 29.26,-8.38 6.75,-5.58 10.11,-13.46 10.11,-23.64 0,-10.42 -3.36,-18.43 -10.11,-24.02 -6.75,-5.58 -16.5,-8.37 -29.26,-8.37l-34.24 0 0 64.41 34.24 0zm225.92 52.64l-29.45 -41.41c-3.3,0.38 -6.74,0.55 -10.3,0.55l-34.58 0 0 40.87 -13.62 0 0 -128.82 48.21 0c16.44,0 29.33,3.92 38.64,11.78 9.34,7.85 14,18.64 14,32.39 0,10.06 -2.55,18.55 -7.65,25.5 -5.09,6.92 -12.35,11.92 -21.81,14.98l31.47 44.18 -14.91 0zm-40.11 -52.45c12.75,0 22.5,-2.82 29.25,-8.47 6.76,-5.64 10.13,-13.56 10.13,-23.74 0,-10.42 -3.37,-18.43 -10.13,-24.02 -6.75,-5.58 -16.5,-8.37 -29.25,-8.37l-34.23 0 0 64.6 34.23 0zm231.81 40.65l0 11.79 -91.09 0 0 -128.82 88.32 0 0 11.78 -74.71 0 0 45.83 66.61 0 0 11.58 -66.61 0 0 47.84 77.47 0zm101.16 -105.25l0 50.6 66.61 0 0 11.79 -66.61 0 0 54.66 -13.62 0 0 -128.82 88.33 0 0 11.78 -74.71 0zm249.47 105.25l0 11.79 -91.09 0 0 -128.82 88.32 0 0 11.78 -74.71 0 0 45.83 66.61 0 0 11.58 -66.61 0 0 47.84 77.47 0zm87.55 -117.03l13.62 0 0 128.82 -13.62 0 0 -128.82zm136.12 11.78l-45.28 0 0 -11.78 104.16 0 0 11.78 -45.26 0 0 117.05 -13.62 0 0 -117.05zm185.43 118.15c-16.69,0 -29.69,-4.79 -39.02,-14.37 -9.31,-9.55 -13.97,-23.49 -13.97,-41.77l0 -73.78 13.61 0 0 73.23c0,14.98 3.37,26.13 10.12,33.49 6.75,7.36 16.5,11.05 29.26,11.05 12.87,0 22.69,-3.69 29.44,-11.05 6.75,-7.36 10.12,-18.51 10.12,-33.49l0 -73.23 13.26 0 0 73.78c0,18.29 -4.62,32.22 -13.9,41.77 -9.26,9.58 -22.22,14.37 -38.92,14.37zm237.33 -1.1l-29.43 -41.41c-3.32,0.38 -6.76,0.55 -10.31,0.55l-34.59 0 0 40.87 -13.62 0 0 -128.82 48.22 0c16.45,0 29.32,3.92 38.65,11.78 9.32,7.85 13.97,18.64 13.97,32.39 0,10.06 -2.55,18.55 -7.64,25.5 -5.09,6.92 -12.36,11.92 -21.81,14.98l31.48 44.18 -14.92 0zm-40.11 -52.45c12.75,0 22.52,-2.82 29.25,-8.47 6.76,-5.64 10.13,-13.56 10.13,-23.74 0,-10.42 -3.37,-18.43 -10.13,-24.02 -6.74,-5.58 -16.5,-8.37 -29.25,-8.37l-34.22 0 0 64.6 34.22 0zm221.5 18.02l-71.77 0 -15.46 34.43 -14.17 0 58.9 -128.82 13.42 0 58.89 128.82 -14.37 0 -15.46 -34.43zm-4.97 -11.03l-30.91 -69.19 -30.9 69.19 61.82 0z"/>
  <path class="fil2" d="M1054.76 1259.19c9.54,12.14 19.68,23.8 30.35,34.94 59.85,62.44 136.84,108.83 224.16,132 128.32,34.06 258.27,13.51 364.66,-47.25l-0.08 -0.15c94.1,-53.83 169.91,-139.11 209.96,-245.84 2.22,-5.9 0.99,-12.1 -3.3,-16.68 -4.29,-4.58 -10.4,-6.24 -16.42,-4.44 -33.06,9.91 -68.63,14.87 -106.72,14.87 -61.16,0 -116.01,-12.77 -164.58,-38.31 -48.57,-25.56 -86.53,-60.98 -113.86,-106.32 -27.34,-45.33 -41.01,-96.77 -41.01,-154.32 0,-57.56 13.67,-109 41.01,-154.33 27.33,-45.33 65.29,-80.76 113.86,-106.31 48.57,-25.54 103.42,-38.32 164.58,-38.32 59.73,0 113.27,12.19 160.64,36.54l0 -11.53c0,-8.86 7.25,-16.12 16.12,-16.12l125.49 0c8.89,0 16.12,7.25 16.12,16.12l0 273.94 0 111.03c0,39.48 2.69,168.95 -35.01,264.24 -55.33,139.85 -156.28,251.68 -280.86,322.94l-0.34 0c-144.61,82.72 -320.92,110.82 -494.62,64.71 -118.33,-31.41 -222.82,-94.4 -304.15,-179.27 -26.11,-27.25 -49.84,-56.74 -70.84,-88.15 -1.93,-2.88 -2.2,-6.3 -0.73,-9.45 1.46,-3.14 4.23,-5.14 7.69,-5.55 49.97,-5.7 99.14,-22.61 145.16,-51.22 4.2,-2.61 9.64,-1.67 12.72,2.23zm702.61 -270.69c43.17,0 78.6,-14.57 106.31,-43.71 27.7,-29.15 41.54,-68.18 41.54,-117.09 0,-48.93 -13.84,-87.96 -41.54,-117.11 -27.71,-29.14 -63.13,-43.7 -106.31,-43.7 -43.17,0 -78.79,14.57 -106.84,43.7 -28.06,29.15 -42.1,68.18 -42.1,117.11 0,48.91 14.04,87.95 42.1,117.09 28.05,29.15 63.67,43.71 106.84,43.71z"/>
  <path class="fil2" d="M2311.69 584.25c15.62,-13.84 33.84,-25.16 54.66,-33.93 29.82,-12.55 63.61,-19.62 101.37,-21.22 4.55,-0.21 8.54,1.3 11.85,4.46 3.28,3.15 4.96,7.08 4.96,11.65l0 121.62c0,4.63 -1.73,8.61 -5.11,11.78 -3.36,3.16 -7.5,3.63 -12.07,4.32 -153.56,23.07 -174.93,164.48 -174.93,289.45l0 129.52c0,8.87 -7.23,16.12 -16.12,16.12l-136.11 0c-8.87,0 -16.12,-7.24 -16.12,-16.12l0 -548.39c0,-8.88 7.25,-16.12 16.12,-16.12l128.57 0c8.87,0 16.12,7.24 16.12,16.12l0 18.69c0,6.48 3.59,12.04 9.51,14.7 5.92,2.66 12.45,1.67 17.3,-2.63z"/>
  <path class="fil2" d="M2559.88 650.55c29.56,-60.19 76.59,-97.04 129.57,-114.08 38.69,-12.42 79.51,-13.86 118.27,-5.81 37.71,7.86 73.91,24.69 104.48,49.11 52.18,41.7 88.4,105.02 88.4,182.93l0 338.06c0,8.89 -7.25,16.13 -16.12,16.13l-344.8 0c-77.59,0 -137.84,-19.82 -181.02,-50.31 -27.37,-19.35 -47.85,-42.93 -61.64,-68.81 -14.4,-26.99 -21.46,-55.84 -21.46,-84.54 0,-40.22 13.65,-80.44 40.07,-115.16 4.94,-6.49 10.34,-12.63 16.12,-18.4 47.4,-47.37 111.42,-61.23 176.57,-52.96 55.12,7.01 111.75,30.71 156.52,62.34 7.12,5.04 14.05,10.34 20.68,15.84 3.62,3 5.59,6.97 5.81,11.66 0.2,4.69 -1.38,8.82 -4.7,12.14l-87.39 87.51c-5.78,5.8 -14.83,6.35 -21.3,1.36 -2.23,-1.74 -4.54,-3.46 -6.94,-5.15 -24.94,-17.61 -55.12,-30.63 -83.21,-34.21 -18.06,-2.28 -33.69,-0.55 -41.71,7.45 -0.75,0.74 -1.56,1.69 -2.44,2.85 -5.92,7.77 -8.98,16.41 -8.98,24.73 0,5.23 1.12,10.17 3.42,14.49 2.9,5.46 7.67,10.74 14.42,15.51 17.49,12.35 45.96,20.39 87.17,20.39l185.69 0c8.88,0 16.12,-7.25 16.12,-16.13l0 -184.78c0,-28.1 -12.54,-50.53 -30.61,-64.97 -10.86,-8.68 -23.59,-14.63 -36.72,-17.37 -12.07,-2.51 -23.97,-2.31 -34.37,1.03 -12.74,4.09 -24.7,13.53 -33.86,29.32 -4.01,6.89 -12.26,9.82 -19.7,6.96l-117.62 -44.95c-4.4,-1.68 -7.54,-4.78 -9.26,-9.16 -1.71,-4.37 -1.54,-8.79 0.52,-13z"/>
  <path class="fil2" d="M1161.16 528.73c71.96,0 130.05,21.58 174.3,64.76 44.25,43.15 66.37,107.2 66.37,192.1l0 316.27c0,8.89 -7.23,16.14 -16.12,16.14l-136.11 0c-8.87,0 -16.12,-7.25 -16.12,-16.14l0 -290.36c0,-46.06 -10.07,-80.4 -30.22,-103.07 -20.14,-22.66 -49.29,-34 -87.41,-34 -42.46,0 -76.28,13.14 -101.44,39.4 -25.19,26.25 -37.79,65.29 -37.79,117.1l0 172.17c0,2.91 -1.14,5.44 -3.38,7.33 -0.19,0.17 -0.41,0.37 -0.62,0.54l0.16 0.16c-41.09,34.89 -87.49,50.34 -132.79,47.79 -8.09,-0.45 -16.06,-1.49 -23.91,-3.02 -4.57,-0.9 -7.82,-4.83 -7.82,-9.49l0 -492.93c0,-8.88 7.25,-16.12 16.12,-16.12l128.58 0c8.87,0 16.12,7.24 16.12,16.12l0 15.03c0,6.32 3.38,11.72 9.06,14.49 5.67,2.77 12.02,2.11 16.99,-1.79 16.8,-13.13 35.8,-23.98 57.05,-32.51 33.08,-13.31 69.43,-19.98 108.99,-19.98z"/>
  <path class="fil2" d="M1.44 1095.33l312.69 -704.38c2.65,-5.96 8.21,-9.58 14.74,-9.58l151.69 0c6.53,0 12.1,3.64 14.75,9.6l309.85 700.32c2.01,4.53 5.76,7.54 10.62,8.49 7.94,1.57 16.01,2.63 24.2,3.08 45.3,2.56 91.69,-12.9 132.79,-47.79l-0.16 -0.16c3.44,-2.92 6.79,-5.92 10.02,-8.96 5.7,-5.37 14.6,-5.33 20.26,0.07l100.15 95.37c2.99,2.85 4.52,6.41 4.56,10.56 0.04,4.14 -1.45,7.72 -4.41,10.62 -7.2,7.07 -14.41,13.66 -21.61,19.81l-0.33 -0.02c-75.58,64.26 -163.21,92.64 -250.58,87.68 -109.51,-6.19 -204.43,-62.75 -274.33,-144.94 -47.47,-55.81 -103.34,-92.63 -162.75,-112.9 -53.11,-18.1 -109.71,-23.09 -166.22,-16.7 -5.34,0.6 -9.64,3.75 -11.81,8.68l-46.19 104.23c-2.65,5.97 -8.23,9.61 -14.74,9.61l-138.47 0c-5.61,0 -10.46,-2.63 -13.51,-7.34 -3.06,-4.72 -3.49,-10.19 -1.22,-15.34zm510.45 -243.4l-98.95 -226.52c-2.62,-5.98 -8.2,-9.64 -14.74,-9.65 -6.54,-0.03 -12.13,3.61 -14.79,9.59l-80.09 180.76c-2,4.52 -1.69,9.29 0.84,13.54 2.52,4.23 6.6,6.76 11.53,7.12 44.61,3.4 88.96,12.23 132.14,26.97 15.02,5.13 29.89,10.98 44.53,17.53 5.66,2.55 12,1.39 16.39,-2.98 4.42,-4.38 5.64,-10.67 3.15,-16.36z"/>
  <path class="fil3" d="M2164.35 1303.81c-6.22,0 -12,-1.01 -17.35,-3.05 -5.33,-2.04 -9.96,-4.94 -13.88,-8.7 -3.91,-3.76 -6.98,-8.19 -9.16,-13.25 -2.2,-5.08 -3.28,-10.64 -3.28,-16.71 0,-6.08 1.08,-11.64 3.28,-16.72 2.18,-5.06 5.26,-9.48 9.21,-13.24 3.96,-3.76 8.59,-6.68 13.89,-8.7 5.31,-2.04 11.11,-3.06 17.4,-3.06 7,0 13.32,1.2 18.96,3.63 5.65,2.43 10.38,5.98 14.24,10.67l-12 11.05c-2.77,-3.14 -5.83,-5.5 -9.21,-7.09 -3.38,-1.57 -7.08,-2.35 -11.07,-2.35 -3.76,0 -7.22,0.61 -10.37,1.84 -3.15,1.23 -5.88,2.99 -8.19,5.3 -2.31,2.3 -4.09,5.04 -5.37,8.19 -1.26,3.14 -1.89,6.65 -1.89,10.48 0,3.84 0.62,7.33 1.89,10.48 1.27,3.15 3.06,5.88 5.37,8.19 2.31,2.32 5.04,4.08 8.19,5.31 3.15,1.23 6.6,1.83 10.37,1.83 3.99,0 7.69,-0.78 11.07,-2.36 3.38,-1.57 6.45,-3.96 9.21,-7.2l12 11.06c-3.85,4.7 -8.59,8.26 -14.24,10.72 -5.64,2.45 -12,3.68 -19.07,3.68zm70.87 -0.45c-6.68,-0.09 -12.56,-1.49 -17.63,-4.21 -5.08,-2.72 -9.07,-6.47 -12,-11.24 -2.91,-4.76 -4.38,-10.25 -4.38,-16.46 -0.06,-6.24 1.38,-11.74 4.38,-16.55 2.99,-4.81 7.03,-8.57 12.11,-11.29 5.07,-2.73 10.86,-4.05 17.39,-3.98 6.62,-0.06 12.5,1.25 17.64,3.98 5.15,2.72 9.16,6.48 12.03,11.29 2.88,4.81 4.32,10.31 4.32,16.55 0.07,6.14 -1.34,11.61 -4.27,16.41 -2.92,4.81 -6.94,8.58 -12.09,11.3 -5.15,2.72 -11,4.12 -17.53,4.21zm0 -14.75c2.99,0 5.7,-0.71 8.08,-2.09 2.38,-1.38 4.26,-3.36 5.64,-5.92 1.38,-2.58 2.07,-5.64 2.07,-9.16 0,-3.63 -0.69,-6.68 -2.07,-9.23 -1.38,-2.54 -3.26,-4.49 -5.64,-5.87 -2.38,-1.38 -5.11,-2.09 -8.2,-2.09 -2.92,0 -5.56,0.71 -7.94,2.09 -2.38,1.38 -4.29,3.33 -5.7,5.87 -1.43,2.55 -2.14,5.6 -2.14,9.23 0,3.52 0.71,6.57 2.14,9.16 1.41,2.56 3.3,4.56 5.63,5.99 2.35,1.43 5.06,2.1 8.13,2.02zm45.98 13.82l0 -61.99 17.18 0 0 17.17 -3.24 -5.19c2.24,-4.15 5.42,-7.33 9.57,-9.57 4.15,-2.23 8.87,-3.33 14.17,-3.33 4.93,0 9.31,0.98 13.19,2.93 3.88,1.96 6.94,4.95 9.17,8.99 2.23,4.03 3.34,9.21 3.34,15.5l0 35.49 -17.97 0 0 -32.73c0,-5 -1.09,-8.67 -3.29,-11.07 -2.19,-2.38 -5.27,-3.56 -9.28,-3.56 -2.85,0 -5.4,0.6 -7.67,1.79 -2.26,1.19 -4.03,3.02 -5.3,5.47 -1.25,2.46 -1.9,5.61 -1.9,9.46l0 30.65 -17.97 0zm100.48 0.93c-5.29,0 -10.38,-0.63 -15.27,-1.9 -4.87,-1.26 -8.73,-2.86 -11.57,-4.79l6 -12.91c2.84,1.77 6.21,3.21 10.08,4.32 3.88,1.12 7.7,1.68 11.47,1.68 4.15,0 7.09,-0.5 8.81,-1.5 1.72,-1 2.6,-2.38 2.6,-4.15 0,-1.46 -0.68,-2.55 -2.03,-3.29 -1.34,-0.71 -3.12,-1.27 -5.35,-1.66 -2.23,-0.38 -4.68,-0.78 -7.33,-1.16 -2.65,-0.38 -5.32,-0.9 -8,-1.55 -2.69,-0.66 -5.15,-1.63 -7.37,-2.94 -2.24,-1.31 -4.03,-3.09 -5.36,-5.31 -1.35,-2.22 -2.03,-5.1 -2.03,-8.64 0,-3.92 1.14,-7.36 3.42,-10.37 2.26,-2.99 5.54,-5.37 9.85,-7.09 4.29,-1.72 9.44,-2.59 15.44,-2.59 4.22,0 8.52,0.46 12.91,1.38 4.38,0.92 8.03,2.27 10.93,4.04l-5.99 12.79c-2.99,-1.77 -6.01,-2.99 -9.04,-3.64 -3.04,-0.65 -5.98,-0.97 -8.82,-0.97 -3.99,0 -6.91,0.53 -8.75,1.62 -1.86,1.06 -2.77,2.44 -2.77,4.15 0,1.53 0.67,2.67 2.01,3.44 1.34,0.78 3.13,1.39 5.36,1.85 2.23,0.47 4.66,0.87 7.32,1.21 2.66,0.36 5.32,0.87 8.01,1.56 2.68,0.7 5.12,1.67 7.32,2.94 2.18,1.26 3.96,3 5.35,5.18 1.38,2.2 2.09,5.05 2.09,8.59 0,3.84 -1.16,7.24 -3.47,10.19 -2.29,2.97 -5.61,5.29 -9.95,6.98 -4.35,1.69 -9.62,2.55 -15.86,2.55zm65.7 0c-7.3,0 -12.99,-1.88 -17.07,-5.59 -4.07,-3.73 -6.11,-9.28 -6.11,-16.66l0 -54.39 17.99 0 0 54.16c0,2.61 0.68,4.63 2.06,6.04 1.38,1.43 3.27,2.14 5.65,2.14 2.85,0 5.26,-0.77 7.26,-2.32l4.84 12.68c-1.84,1.31 -4.05,2.28 -6.63,2.94 -2.56,0.65 -5.25,0.99 -8,0.99zm-32.73 -49.11l0 -13.82 42.98 0 0 13.82 -42.98 0zm57.5 48.17l0 -61.99 17.16 0 0 17.52 -2.42 -5.08c1.85,-4.38 4.8,-7.7 8.88,-9.96 4.07,-2.27 9.03,-3.4 14.86,-3.4l0 16.6c-0.77,-0.09 -1.46,-0.15 -2.07,-0.17 -0.61,-0.04 -1.27,-0.05 -1.97,-0.05 -4.92,0 -8.88,1.4 -11.92,4.2 -3.04,2.79 -4.55,7.16 -4.55,13.08l0 29.26 -17.97 0zm75.82 0.93c-5.15,0 -9.72,-1 -13.76,-3 -4.03,-2 -7.17,-5.05 -9.39,-9.17 -2.23,-4.11 -3.34,-9.36 -3.34,-15.73l0 -35.02 17.97 0 0 32.39c0,5.14 1.09,8.93 3.29,11.34 2.19,2.43 5.28,3.64 9.28,3.64 2.77,0 5.22,-0.6 7.37,-1.78 2.15,-1.2 3.85,-3.04 5.08,-5.54 1.22,-2.49 1.83,-5.63 1.83,-9.39l0 -30.65 17.98 0 0 61.99 -17.05 0 0 -17.06 3.1 4.97c-2.07,4.29 -5.13,7.54 -9.16,9.73 -4.03,2.18 -8.44,3.29 -13.2,3.29zm53.25 -0.93l-0.24 -61.99 17.86 0.12 0.12 61.87 -17.74 0zm8.75 -70.63c-3.31,0 -5.99,-0.97 -8.08,-2.89 -2.06,-1.9 -3.1,-4.29 -3.1,-7.13 0,-2.85 1.04,-5.23 3.1,-7.14 2.09,-1.92 4.76,-2.89 8.08,-2.89 3.31,0 5.99,0.92 8.07,2.71 2.07,1.81 3.11,4.14 3.11,6.97 0,3 -1.03,5.48 -3.06,7.44 -2.03,1.97 -4.74,2.95 -8.12,2.95zm25.69 70.63l0 -61.99 17.17 0 0 17.17 -3.21 -5.19c2.22,-4.15 5.41,-7.33 9.56,-9.57 4.14,-2.23 8.87,-3.33 14.17,-3.33 4.92,0 9.32,0.98 13.2,2.93 3.88,1.96 6.93,4.95 9.16,8.99 2.23,4.03 3.35,9.21 3.35,15.5l0 35.49 -17.98 0 0 -32.73c0,-5 -1.1,-8.67 -3.28,-11.07 -2.2,-2.38 -5.29,-3.56 -9.28,-3.56 -2.84,0 -5.39,0.6 -7.65,1.79 -2.27,1.19 -4.04,3.02 -5.31,5.47 -1.27,2.46 -1.9,5.61 -1.9,9.46l0 30.65 -17.98 0zm106.71 0.93c-5.83,0 -11.09,-1.33 -15.79,-3.98 -4.69,-2.66 -8.4,-6.36 -11.13,-11.13 -2.71,-4.76 -4.08,-10.37 -4.08,-16.81 0,-6.55 1.37,-12.18 4.08,-16.96 2.73,-4.76 6.44,-8.44 11.13,-11.05 4.7,-2.61 9.95,-3.92 15.79,-3.92 5.23,0 9.8,1.15 13.73,3.45 3.92,2.31 6.94,5.8 9.09,10.49 2.15,4.68 3.22,10.68 3.22,17.98 0,7.22 -1.03,13.19 -3.1,17.91 -2.07,4.72 -5.05,8.25 -8.93,10.54 -3.88,2.31 -8.54,3.47 -14.01,3.47zm3.11 -14.75c2.92,0 5.58,-0.71 7.96,-2.09 2.38,-1.38 4.28,-3.36 5.7,-5.92 1.41,-2.58 2.12,-5.64 2.12,-9.16 0,-3.63 -0.71,-6.68 -2.12,-9.23 -1.43,-2.54 -3.32,-4.49 -5.7,-5.87 -2.38,-1.38 -5.04,-2.09 -7.96,-2.09 -2.99,0 -5.68,0.71 -8.06,2.09 -2.38,1.38 -4.29,3.33 -5.7,5.87 -1.42,2.55 -2.14,5.6 -2.14,9.23 0,3.52 0.72,6.57 2.14,9.16 1.41,2.56 3.32,4.54 5.7,5.92 2.38,1.38 5.06,2.09 8.06,2.09zm16.25 13.82l0 -12.67 0.35 -18.44 -1.16 -18.31 0 -36.09 17.99 0 0 85.51 -17.18 0zm63.26 0.93c-6.68,-0.09 -12.56,-1.49 -17.63,-4.21 -5.07,-2.72 -9.07,-6.47 -12,-11.24 -2.9,-4.76 -4.38,-10.25 -4.38,-16.46 -0.06,-6.24 1.38,-11.74 4.38,-16.55 3.01,-4.81 7.03,-8.57 12.11,-11.29 5.07,-2.73 10.86,-4.05 17.39,-3.98 6.61,-0.06 12.5,1.25 17.64,3.98 5.14,2.72 9.16,6.48 12.03,11.29 2.88,4.81 4.32,10.31 4.32,16.55 0.07,6.14 -1.34,11.61 -4.26,16.41 -2.92,4.81 -6.96,8.58 -12.1,11.3 -5.15,2.72 -11,4.12 -17.53,4.21zm0 -14.75c2.99,0 5.7,-0.71 8.08,-2.09 2.38,-1.38 4.27,-3.36 5.65,-5.92 1.38,-2.58 2.06,-5.64 2.06,-9.16 0,-3.63 -0.68,-6.68 -2.06,-9.23 -1.38,-2.54 -3.27,-4.49 -5.65,-5.87 -2.38,-1.38 -5.11,-2.09 -8.2,-2.09 -2.9,0 -5.56,0.71 -7.94,2.09 -2.38,1.38 -4.29,3.33 -5.7,5.87 -1.42,2.55 -2.14,5.6 -2.14,9.23 0,3.52 0.72,6.57 2.14,9.16 1.41,2.56 3.3,4.56 5.65,5.99 2.33,1.43 5.05,2.1 8.11,2.02zm-671.04 149.66c-6.68,-0.07 -12.56,-1.47 -17.63,-4.21 -5.07,-2.72 -9.06,-6.46 -12,-11.23 -2.92,-4.76 -4.38,-10.26 -4.38,-16.48 -0.06,-6.22 1.38,-11.74 4.38,-16.54 3,-4.8 7.03,-8.56 12.11,-11.3 5.06,-2.73 10.86,-4.05 17.4,-3.96 6.6,-0.08 12.48,1.24 17.63,3.96 5.15,2.74 9.17,6.5 12.05,11.3 2.88,4.8 4.32,10.32 4.32,16.54 0.06,6.15 -1.35,11.63 -4.27,16.43 -2.92,4.8 -6.96,8.56 -12.1,11.28 -5.15,2.74 -10.98,4.14 -17.52,4.21zm0 -14.75c2.99,0 5.7,-0.69 8.08,-2.07 2.38,-1.38 4.27,-3.36 5.65,-5.94 1.38,-2.56 2.06,-5.61 2.06,-9.16 0,-3.61 -0.68,-6.68 -2.06,-9.21 -1.38,-2.54 -3.27,-4.5 -5.65,-5.89 -2.38,-1.38 -5.12,-2.07 -8.19,-2.07 -2.92,0 -5.58,0.69 -7.96,2.07 -2.38,1.38 -4.29,3.35 -5.7,5.89 -1.41,2.53 -2.12,5.6 -2.12,9.21 0,3.54 0.71,6.59 2.12,9.16 1.42,2.58 3.31,4.58 5.65,6.01 2.34,1.41 5.05,2.08 8.12,2.01zm82.63 14.75c-5.22,0 -9.8,-1.14 -13.71,-3.45 -3.92,-2.31 -6.97,-5.81 -9.17,-10.54 -2.2,-4.73 -3.28,-10.71 -3.28,-17.93 0,-7.3 1.03,-13.29 3.1,-17.98 2.07,-4.68 5.08,-8.17 8.98,-10.48 3.92,-2.32 8.62,-3.45 14.06,-3.45 5.84,0 11.08,1.31 15.73,3.96 4.64,2.65 8.34,6.35 11.06,11.12 2.73,4.76 4.1,10.37 4.1,16.83 0,6.54 -1.37,12.18 -4.1,16.95 -2.72,4.76 -6.42,8.45 -11.06,11.06 -4.65,2.61 -9.89,3.91 -15.73,3.91zm-36.64 21.44l0 -84.37 17.18 0 0 12.68 -0.36 18.43 1.15 18.33 0 34.92 -17.97 0zm33.53 -36.2c2.99,0 5.67,-0.69 8.02,-2.07 2.33,-1.38 4.22,-3.36 5.64,-5.94 1.42,-2.56 2.12,-5.61 2.12,-9.16 0,-3.61 -0.71,-6.68 -2.12,-9.21 -1.42,-2.54 -3.31,-4.5 -5.64,-5.89 -2.35,-1.38 -5.03,-2.07 -8.02,-2.07 -2.99,0 -5.69,0.69 -8.07,2.07 -2.38,1.38 -4.27,3.35 -5.65,5.89 -1.38,2.53 -2.06,5.6 -2.06,9.21 0,3.54 0.68,6.59 2.06,9.16 1.38,2.58 3.27,4.56 5.65,5.94 2.38,1.38 5.08,2.07 8.07,2.07zm75.49 14.75c-6.68,-0.07 -12.56,-1.47 -17.63,-4.21 -5.08,-2.72 -9.07,-6.46 -12,-11.23 -2.91,-4.76 -4.38,-10.26 -4.38,-16.48 -0.07,-6.22 1.38,-11.74 4.38,-16.54 2.99,-4.8 7.03,-8.56 12.11,-11.3 5.05,-2.73 10.86,-4.05 17.39,-3.96 6.61,-0.08 12.48,1.24 17.64,3.96 5.14,2.74 9.16,6.5 12.04,11.3 2.88,4.8 4.31,10.32 4.31,16.54 0.07,6.15 -1.34,11.63 -4.26,16.43 -2.93,4.8 -6.96,8.56 -12.1,11.28 -5.16,2.74 -11,4.14 -17.53,4.21zm0 -14.75c2.99,0 5.7,-0.69 8.08,-2.07 2.38,-1.38 4.26,-3.36 5.64,-5.94 1.38,-2.56 2.07,-5.61 2.07,-9.16 0,-3.61 -0.69,-6.68 -2.07,-9.21 -1.38,-2.54 -3.26,-4.5 -5.64,-5.89 -2.38,-1.38 -5.11,-2.07 -8.2,-2.07 -2.92,0 -5.56,0.69 -7.94,2.07 -2.38,1.38 -4.29,3.35 -5.7,5.89 -1.43,2.53 -2.13,5.6 -2.13,9.21 0,3.54 0.71,6.59 2.13,9.16 1.41,2.58 3.3,4.58 5.63,6.01 2.35,1.41 5.06,2.08 8.13,2.01zm45.97 13.84l0 -62.01 17.19 0 0 17.52 -2.43 -5.06c1.84,-4.38 4.81,-7.7 8.86,-9.96 4.08,-2.27 9.03,-3.4 14.88,-3.4l0 16.58c-0.77,-0.07 -1.47,-0.13 -2.09,-0.17 -0.6,-0.04 -1.26,-0.05 -1.95,-0.05 -4.92,0 -8.9,1.4 -11.93,4.2 -3.04,2.81 -4.55,7.16 -4.55,13.08l0 29.28 -17.98 0zm76.75 0.92c-7.29,0 -12.97,-1.86 -17.04,-5.59 -4.07,-3.73 -6.12,-9.27 -6.12,-16.64l0 -54.41 17.98 0 0 54.18c0,2.61 0.68,4.61 2.06,6.04 1.38,1.43 3.27,2.12 5.65,2.12 2.86,0 5.26,-0.77 7.26,-2.29l4.85 12.67c-1.86,1.3 -4.06,2.28 -6.64,2.94 -2.56,0.65 -5.25,0.97 -8.01,0.97zm-32.73 -49.09l0 -13.84 42.99 0 0 13.84 -42.99 0zm83.66 49.09c-5.15,0 -9.72,-1 -13.76,-2.99 -4.03,-2.01 -7.17,-5.05 -9.39,-9.16 -2.23,-4.11 -3.34,-9.36 -3.34,-15.73l0 -35.04 17.97 0 0 32.39c0,5.16 1.09,8.93 3.29,11.35 2.19,2.43 5.28,3.64 9.28,3.64 2.77,0 5.22,-0.6 7.37,-1.79 2.15,-1.18 3.85,-3.04 5.08,-5.53 1.22,-2.5 1.83,-5.62 1.83,-9.39l0 -30.67 17.99 0 0 62.01 -17.06 0 0 -17.05 3.1 4.94c-2.07,4.3 -5.12,7.55 -9.16,9.73 -4.03,2.2 -8.44,3.29 -13.2,3.29zm53.03 -0.92l0 -62.01 17.17 0 0 17.17 -3.24 -5.17c2.24,-4.15 5.42,-7.34 9.57,-9.57 4.15,-2.23 8.87,-3.33 14.17,-3.33 4.93,0 9.31,0.96 13.19,2.93 3.89,1.96 6.94,4.95 9.17,8.99 2.22,4.04 3.33,9.19 3.33,15.5l0 35.49 -17.97 0 0 -32.73c0,-4.99 -1.09,-8.69 -3.29,-11.07 -2.19,-2.38 -5.27,-3.56 -9.28,-3.56 -2.85,0 -5.4,0.59 -7.67,1.79 -2.26,1.18 -4.02,3 -5.29,5.47 -1.26,2.46 -1.9,5.61 -1.9,9.44l0 30.67 -17.97 0zm79.85 0l-0.23 -62.01 17.86 0.12 0.11 61.89 -17.74 0zm8.75 -70.65c-3.31,0 -5.99,-0.95 -8.07,-2.88 -2.07,-1.92 -3.11,-4.3 -3.11,-7.14 0,-2.84 1.04,-5.22 3.11,-7.15 2.08,-1.92 4.76,-2.88 8.07,-2.88 3.31,0 5.99,0.9 8.08,2.71 2.06,1.79 3.11,4.12 3.11,6.97 0,3 -1.03,5.48 -3.06,7.44 -2.03,1.95 -4.75,2.93 -8.13,2.93zm52.33 71.57c-5.85,0 -11.12,-1.33 -15.79,-3.96 -4.7,-2.66 -8.41,-6.36 -11.13,-11.13 -2.73,-4.76 -4.09,-10.38 -4.09,-16.83 0,-6.53 1.36,-12.18 4.09,-16.94 2.72,-4.76 6.43,-8.44 11.13,-11.07 4.67,-2.61 9.93,-3.9 15.79,-3.9 5.21,0 9.79,1.14 13.7,3.45 3.92,2.31 6.96,5.8 9.12,10.48 2.15,4.7 3.21,10.69 3.21,17.98 0,7.22 -1.03,13.19 -3.1,17.93 -2.07,4.72 -5.05,8.23 -8.93,10.54 -3.88,2.31 -8.56,3.45 -14,3.45zm3.1 -14.75c2.92,0 5.58,-0.69 7.96,-2.07 2.38,-1.38 4.29,-3.36 5.7,-5.94 1.41,-2.56 2.12,-5.61 2.12,-9.16 0,-3.61 -0.71,-6.68 -2.12,-9.21 -1.42,-2.54 -3.32,-4.5 -5.7,-5.89 -2.38,-1.38 -5.04,-2.07 -7.96,-2.07 -2.99,0 -5.69,0.69 -8.07,2.07 -2.39,1.38 -4.29,3.35 -5.7,5.89 -1.42,2.53 -2.12,5.6 -2.12,9.21 0,3.54 0.71,6.59 2.12,9.16 1.42,2.58 3.31,4.56 5.7,5.94 2.38,1.38 5.07,2.07 8.07,2.07zm16.24 13.84l0 -12.67 0.36 -18.44 -1.15 -18.33 0 -36.06 17.97 0 0 85.5 -17.17 0zm71.81 0l0 -12.1 -1.16 -2.66 0 -21.66c0,-3.83 -1.16,-6.83 -3.51,-8.98 -2.35,-2.15 -5.94,-3.22 -10.78,-3.22 -3.31,0 -6.55,0.52 -9.74,1.56 -3.18,1.03 -5.89,2.44 -8.11,4.2l-6.46 -12.56c3.38,-2.38 7.45,-4.23 12.21,-5.53 4.76,-1.31 9.6,-1.95 14.52,-1.95 9.44,0 16.78,2.23 22,6.67 5.23,4.47 7.84,11.41 7.84,20.87l0 35.38 -16.82 0zm-18.9 0.92c-4.85,0 -9,-0.81 -12.44,-2.47 -3.47,-1.65 -6.13,-3.9 -7.97,-6.74 -1.84,-2.84 -2.77,-6.03 -2.77,-9.58 0,-3.67 0.92,-6.91 2.71,-9.68 1.81,-2.77 4.68,-4.94 8.59,-6.5 3.92,-1.58 9.02,-2.37 15.33,-2.37l16.48 0 0 10.48 -14.53 0c-4.22,0 -7.11,0.7 -8.7,2.08 -1.57,1.39 -2.35,3.11 -2.35,5.19 0,2.3 0.9,4.12 2.71,5.47 1.79,1.36 4.29,2.02 7.44,2.02 2.99,0 5.69,-0.71 8.07,-2.12 2.38,-1.43 4.11,-3.53 5.17,-6.29l2.77 8.3c-1.31,3.99 -3.69,7.02 -7.14,9.09 -3.45,2.09 -7.91,3.11 -13.36,3.11zm79.05 0c-5.83,0 -11.1,-1.33 -15.79,-3.96 -4.67,-2.66 -8.38,-6.36 -11.12,-11.13 -2.73,-4.76 -4.09,-10.38 -4.09,-16.83 0,-6.53 1.36,-12.18 4.09,-16.94 2.74,-4.76 6.45,-8.44 11.12,-11.07 4.7,-2.61 9.96,-3.9 15.79,-3.9 5.23,0 9.79,1.14 13.72,3.45 3.92,2.31 6.96,5.8 9.1,10.48 2.15,4.7 3.23,10.69 3.23,17.98 0,7.22 -1.03,13.19 -3.12,17.93 -2.07,4.72 -5.05,8.23 -8.93,10.54 -3.88,2.31 -8.54,3.45 -14,3.45zm3.1 -14.75c2.92,0 5.58,-0.69 7.96,-2.07 2.38,-1.38 4.29,-3.36 5.7,-5.94 1.43,-2.56 2.14,-5.61 2.14,-9.16 0,-3.61 -0.71,-6.68 -2.14,-9.21 -1.42,-2.54 -3.32,-4.5 -5.7,-5.89 -2.38,-1.38 -5.04,-2.07 -7.96,-2.07 -2.99,0 -5.68,0.69 -8.06,2.07 -2.38,1.38 -4.29,3.35 -5.7,5.89 -1.43,2.53 -2.13,5.6 -2.13,9.21 0,3.54 0.71,6.59 2.13,9.16 1.42,2.58 3.32,4.56 5.7,5.94 2.38,1.38 5.06,2.07 8.06,2.07zm16.26 13.84l0 -12.67 0.34 -18.44 -1.15 -18.33 0 -36.06 17.98 0 0 85.5 -17.17 0zm64.53 0.92c-7.06,0 -13.27,-1.37 -18.62,-4.14 -5.33,-2.77 -9.47,-6.56 -12.39,-11.35 -2.9,-4.8 -4.38,-10.27 -4.38,-16.43 0,-6.22 1.44,-11.74 4.32,-16.54 2.89,-4.8 6.83,-8.56 11.82,-11.3 4.99,-2.73 10.64,-4.07 16.94,-4.07 6.06,0 11.54,1.28 16.42,3.85 4.87,2.58 8.74,6.26 11.58,11.07 2.85,4.81 4.26,10.54 4.26,17.22 0,0.7 -0.03,1.48 -0.11,2.37 -0.07,0.88 -0.15,1.71 -0.24,2.46l-50.34 0 0 -10.48 40.89 0 -6.9 3.11c0,-3.22 -0.65,-6.03 -1.97,-8.41 -1.29,-2.38 -3.1,-4.23 -5.41,-5.58 -2.3,-1.36 -5,-2.02 -8.06,-2.02 -3.09,0 -5.8,0.67 -8.13,2.02 -2.33,1.35 -4.17,3.22 -5.48,5.65 -1.3,2.41 -1.95,5.27 -1.95,8.58l0 2.76c0,3.38 0.74,6.35 2.23,8.95 1.5,2.56 3.63,4.53 6.35,5.87 2.72,1.34 5.93,2.01 9.62,2.01 3.3,0 6.21,-0.5 8.71,-1.5 2.49,-1 4.77,-2.5 6.85,-4.5l9.56 10.37c-2.84,3.23 -6.42,5.7 -10.7,7.44 -4.31,1.73 -9.28,2.58 -14.88,2.58zm62.8 0c-5.29,0 -10.38,-0.63 -15.26,-1.9 -4.87,-1.26 -8.74,-2.86 -11.57,-4.77l5.99 -12.91c2.84,1.77 6.21,3.21 10.08,4.32 3.88,1.12 7.7,1.68 11.46,1.68 4.16,0 7.09,-0.5 8.81,-1.5 1.73,-1 2.6,-2.38 2.6,-4.15 0,-1.46 -0.67,-2.55 -2.01,-3.29 -1.35,-0.73 -3.13,-1.29 -5.36,-1.68 -2.23,-0.38 -4.68,-0.76 -7.32,-1.14 -2.66,-0.38 -5.32,-0.92 -8.01,-1.57 -2.68,-0.64 -5.16,-1.63 -7.37,-2.94 -2.23,-1.29 -4.03,-3.07 -5.37,-5.29 -1.34,-2.23 -2.01,-5.12 -2.01,-8.64 0,-3.91 1.13,-7.38 3.4,-10.37 2.27,-3 5.55,-5.36 9.85,-7.09 4.3,-1.73 9.46,-2.58 15.45,-2.58 4.22,0 8.52,0.46 12.91,1.36 4.37,0.92 8.02,2.27 10.94,4.04l-6 12.79c-2.99,-1.77 -6.01,-2.97 -9.05,-3.62 -3.03,-0.66 -5.98,-0.99 -8.81,-0.99 -3.99,0 -6.91,0.54 -8.75,1.61 -1.86,1.08 -2.77,2.46 -2.77,4.15 0,1.55 0.68,2.69 2.01,3.46 1.35,0.76 3.14,1.37 5.37,1.85 2.22,0.45 4.66,0.85 7.31,1.21 2.66,0.34 5.32,0.85 8.02,1.56 2.67,0.68 5.12,1.67 7.32,2.94 2.18,1.26 3.97,2.99 5.36,5.18 1.38,2.18 2.07,5.05 2.07,8.59 0,3.84 -1.15,7.23 -3.45,10.19 -2.31,2.96 -5.63,5.27 -9.96,6.98 -4.36,1.68 -9.62,2.53 -15.86,2.53z"/>
 </g>
</svg>
