<?xml version="1.0"?><svg width="373.1412" height="409.41437" xmlns="http://www.w3.org/2000/svg">
 <title>Purple Awareness Ribbon</title>
 <defs>
  <linearGradient y2="0" x2="1" y1="0" x1="0" id="svg_2">
   <stop offset="0.410156" stop-color="#835daf"/>
   <stop offset="1" stop-opacity="0.996094" stop-color="#3f007f"/>
  </linearGradient>
  <linearGradient y2="0" x2="0" y1="0" x1="1" id="svg_12">
   <stop offset="0.054688" stop-opacity="0.996094" stop-color="#3f007f"/>
   <stop offset="0.679688" stop-color="#835daf"/>
  </linearGradient>
 </defs>
 <metadata id="metadata7">image/svg+xml</metadata>
 <g>
  <title>Layer 1</title>
  <g id="layer1">
   <path fill="url(#svg_2)" stroke="#ffffff" stroke-width="2" id="path2822-3" d="m151.036636,14.727615c25.248016,-10.862976 49.058411,-12.878815 83.902618,-2.032562c4.07019,4.166367 -3.577209,48.008972 -3.577209,48.008972c-30.696442,-14.181931 -48.263062,-17.126266 -78.959534,3.312714c0,0 -12.59552,-39.275726 -1.365875,-49.289124z"/>
   <path fill="url(#svg_2)" stroke="#ffffff" stroke-width="2" id="path2822" d="m148.884338,15.616158c15.829269,-18.318222 83.554489,-16.482956 100.389465,-3.10936c16.834991,13.373596 27.66214,100.13797 -4.280136,73.442833c-31.942291,-26.695137 -57.746735,-26.199303 -94.475067,5.067696c0,0 -17.463531,-57.082947 -1.634262,-75.401169z"/>
   <path id="svg_7" fill="url(#svg_12)" stroke="#ffffff" stroke-width="2" d="m253.847717,21.384773c0,0 -4.317352,-35.72126 22.636383,63.322998c26.954346,99.044502 -137.336044,313.351494 -154.052917,313.351494l-81.177078,-33.148987c180.919479,-160.792999 217.232101,-316.381504 212.593613,-343.525505z"/>
   <path fill="url(#svg_2)" stroke="#ffffff" stroke-width="2" id="path2820-0" d="m144.968002,29.9925c0,0 4.906998,-35.72126 -25.728004,63.322998c-30.635696,99.044502 156.09301,313.351494 175.09301,313.351494l68.307983,-56.148987c-162.438995,-98.792999 -222.944992,-293.381504 -217.672989,-320.525505z"/>
  </g>
 </g>
</svg>