<?xml version="1.0" encoding="UTF-8"?>
<!DOCTYPE svg PUBLIC "-//W3C//DTD SVG 1.1//EN" "http://www.w3.org/Graphics/SVG/1.1/DTD/svg11.dtd">
<!-- Creator: CorelDRAW (Versão de avaliação) -->
<svg xmlns="http://www.w3.org/2000/svg" xml:space="preserve" version="1.1" style="shape-rendering:geometricPrecision; text-rendering:geometricPrecision; image-rendering:optimizeQuality; fill-rule:evenodd; clip-rule:evenodd"
viewBox="0 0 26775.99 5420.51"
 xmlns:xlink="http://www.w3.org/1999/xlink"
 xmlns:xodm="http://www.corel.com/coreldraw/odm/2003">
 <defs>
  <style type="text/css">
   <![CDATA[
    .fil7 {fill:none}
    .fil6 {fill:#2D2A2B}
    .fil8 {fill:#2D2A2B;fill-rule:nonzero}
    .fil4 {fill:#007DC4;fill-rule:nonzero}
    .fil5 {fill:#2C459B;fill-rule:nonzero}
    .fil0 {fill:#2D2A2B;fill-rule:nonzero}
    .fil1 {fill:#65C085;fill-rule:nonzero}
    .fil3 {fill:#F5842A;fill-rule:nonzero}
    .fil2 {fill:#FEBF20;fill-rule:nonzero}
   ]]>
  </style>
 </defs>
 <g id="Camada_x0020_1">
  <metadata id="CorelCorpID_0Corel-Layer"/>
  <g id="_515923680">
   <path class="fil0" d="M2933.22 1000.49c55.89,0 99.7,13.4 131.5,40.1 31.7,26.69 47.56,63.47 47.56,110.1 0,46.74 -15.9,83.4 -47.56,109.87 -31.77,26.46 -75.51,39.78 -131.5,39.78l-117.69 0 0 138.36 -46.32 0 0 -438.1 164.02 0 0 -0.12zm-1.28 259.14c43.42,0 76.55,-9.44 99.49,-28.44 22.95,-19.01 34.49,-45.78 34.49,-80.39 0,-35.4 -11.54,-62.73 -34.49,-81.62 -22.94,-19.01 -56.07,-28.45 -99.49,-28.45l-116.42 0 0 219.05 116.42 0 0 -0.16zm768.37 179.04l-100.12 -140.84c-11.22,1.24 -22.95,1.85 -35.1,1.85l-117.69 0 0 138.98 -46.32 0 0 -438.1 164.02 0c55.87,0 99.68,13.39 131.5,40.09 31.7,26.7 47.56,63.47 47.56,110.1 0,34.17 -8.62,63.16 -25.97,86.73 -17.33,23.56 -42.07,40.6 -74.15,51l106.97 150.28 -50.7 0 0 -0.11zm-136.35 -178.34c43.42,0 76.55,-9.67 99.5,-28.87 22.95,-19.11 34.49,-46.13 34.49,-80.69 0,-35.41 -11.42,-62.73 -34.49,-81.62 -22.95,-19.01 -56.08,-28.45 -99.5,-28.45l-116.4 0 0 219.67 116.4 0 0 -0.05zm788.38 138.36l0 40.09 -309.81 0 0 -438.1 300.47 0 0 40.1 -254.15 0 0 155.88 226.64 0 0 39.47 -226.64 0 0 162.74 263.48 0 0 -0.19zm344.09 -358.02l0 172.1 226.63 0 0 40.09 -226.63 0 0 185.92 -46.32 0 0 -438.1 300.47 0 0 40.1 -254.15 0 0 -0.12zm848.55 358.02l0 40.09 -309.8 0 0 -438.1 300.47 0 0 40.1 -254.15 0 0 155.88 226.63 0 0 39.47 -226.63 0 0 162.74 263.47 0 0 -0.19zm297.77 -398.11l46.32 0 0 438.1 -46.32 0 0 -438.1zm463.02 40.09l-154.03 0 0 -40.09 354.27 0 0 40.09 -153.91 0 0 398.11 -46.32 0 0 -398.11zm630.74 401.83c-56.69,0 -100.97,-16.29 -132.63,-48.8 -31.77,-32.5 -47.56,-79.87 -47.56,-142.07l0 -250.94 46.32 0 0 249.16c0,50.89 11.54,88.91 34.49,113.94 22.95,25.04 56.08,37.51 99.5,37.51 43.85,0 77.17,-12.46 100.12,-37.51 22.95,-25.03 34.48,-63.04 34.48,-113.94l0 -249.16 45.08 0 0 250.94c0,62.24 -15.78,109.57 -47.25,142.07 -31.46,32.51 -75.61,48.8 -132.43,48.8l-0.12 0zm807.3 -3.72l-100.12 -140.82c-11.22,1.23 -22.95,1.85 -34.99,1.85l-117.69 0 0 138.97 -46.32 0 0 -438.1 164.02 0c55.89,0 99.7,13.4 131.39,40.1 31.7,26.7 47.56,63.47 47.56,110.1 0,34.17 -8.64,63.15 -25.97,86.73 -17.33,23.56 -42.07,40.6 -74.15,51l107.08 150.28 -50.7 0 -0.11 -0.12zm-136.51 -178.33c43.42,0 76.55,-9.67 99.5,-28.87 22.95,-19.11 34.37,-46.13 34.37,-80.69 0,-35.41 -11.42,-62.73 -34.37,-81.62 -22.95,-19.01 -56.2,-28.45 -99.5,-28.45l-116.4 0 0 219.66 116.4 0 0 -0.04zm753.43 61.26l-244.15 0 -52.55 117.03 -48.19 0 200.36 -438.1 45.71 0 200.34 438.1 -48.8 0 -52.55 -117.03 -0.16 0zm-16.95 -37.46l-105.11 -235.35 -105.11 235.35 210.3 0 -0.08 0z"/>
   <path class="fil1" d="M3587.61 4218.16c32.51,41.22 66.99,80.93 103.33,118.82 203.57,212.38 465.5,370.17 762.45,448.96 436.44,115.91 878.43,45.9 1240.29,-160.76l-0.31 -0.51c320.09,-183.09 577.89,-473.2 714.15,-836.17 7.47,-20.04 3.32,-41.14 -11.22,-56.69 -14.56,-15.67 -35.29,-21.29 -55.77,-15.17 -112.39,33.74 -233.48,50.58 -362.98,50.58 -208.02,0 -394.67,-43.42 -559.81,-130.35 -165.15,-86.92 -294.24,-207.4 -387.29,-361.54 -92.96,-154.22 -139.48,-329.15 -139.48,-524.9 0,-195.8 46.52,-370.79 139.48,-524.9 92.96,-154.22 222.07,-274.71 387.29,-361.54 165.13,-86.92 351.79,-130.35 559.81,-130.35 203.13,0 385.23,41.44 546.42,124.22l0 -39.17c0,-30.22 24.61,-54.84 54.84,-54.84l426.86 0c30.23,0 54.84,24.62 54.84,54.84l0 931.73 0 377.64c0,134.29 9.13,574.67 -119,898.71 -188.28,475.68 -531.56,856.02 -955.3,1098.41l-1.15 0c-491.89,281.36 -1091.56,376.91 -1682.44,220.1 -402.46,-106.78 -757.89,-321.14 -1034.56,-609.78 -88.82,-92.65 -169.51,-192.96 -240.95,-299.74 -6.54,-9.86 -7.47,-21.4 -2.48,-32.08 4.99,-10.68 14.43,-17.57 26.16,-18.89 170.02,-19.31 337.25,-76.85 493.74,-174.26 14.33,-8.95 32.83,-5.62 43.3,7.58l-0.23 0.04zm2389.85 -920.69c146.87,0 267.35,-49.54 361.54,-148.61 94.2,-99.08 141.34,-231.94 141.34,-398.32 0,-166.37 -47.14,-299.23 -141.34,-398.3 -94.2,-99.07 -214.79,-148.61 -361.54,-148.61 -146.86,0 -267.96,49.54 -363.4,148.61 -95.44,99.07 -143.23,231.93 -143.23,398.3 0,166.37 47.67,299.13 143.23,398.32 95.44,99.07 216.53,148.61 363.4,148.61z"/>
   <path class="fil2" d="M7862.93 1922.47c53.06,-47.06 115.11,-85.56 185.92,-115.41 101.36,-42.69 216.34,-66.8 344.82,-72.29 15.48,-0.61 29.07,4.45 40.3,15.17 11.22,10.68 16.83,24.12 16.83,39.55l0 413.68c0,15.67 -5.92,29.29 -17.33,39.97 -11.54,10.8 -25.55,12.35 -41.03,14.75 -522.3,78.53 -595.02,559.39 -595.02,984.48l0 440.56c0,30.23 -24.62,54.84 -54.84,54.84l-462.9 0c-30.23,0 -54.84,-24.61 -54.84,-54.84l0 -1865.22c0,-30.23 24.61,-54.84 54.84,-54.84l437.24 0c30.22,0 54.84,24.61 54.84,54.84l0 63.55c0,22.13 12.26,41.02 32.38,50.08 20.17,9.01 42.38,5.61 58.91,-8.94l-0.12 0.07z"/>
   <path class="fil3" d="M8707 2148.06c100.54,-204.73 260.49,-330.09 440.68,-388.02 131.59,-42.26 270.44,-47.25 402.25,-19.74 128.27,26.7 251.33,84.02 355.31,167 177.49,141.76 300.67,357.17 300.67,622.23l0 1149.84c0,30.23 -24.61,54.84 -54.83,54.84l-1172.69 0c-263.89,0 -468.93,-67.41 -615.68,-171.17 -93.15,-65.75 -162.74,-146.02 -209.69,-233.99 -49.03,-91.91 -72.91,-189.94 -72.91,-287.58 0,-136.77 46.44,-273.58 136.26,-391.65 16.84,-22.15 35.22,-43 54.84,-62.62 161.19,-161.07 379,-208.25 600.52,-180.07 187.46,23.81 380.12,104.38 532.48,212.08 24.19,17.14 47.68,35.1 70.32,53.79 12.27,10.18 19.01,23.69 19.74,39.67 0.73,15.97 -4.68,29.92 -15.99,41.33l-297.26 297.65c-19.62,19.62 -50.46,21.59 -72.49,4.56 -7.58,-5.92 -15.48,-11.72 -23.69,-17.45 -84.76,-59.9 -187.46,-104.17 -282.9,-116.33 -61.49,-7.77 -114.67,-1.85 -141.88,25.36 -2.59,2.59 -5.3,5.8 -8.31,9.67 -20.17,26.48 -30.54,55.89 -30.54,84.13 0,17.77 3.84,34.61 11.64,49.34 9.88,18.5 26.16,36.46 49.04,52.76 59.52,41.95 156.31,69.28 296.53,69.28l631.56 0c30.22,0 54.84,-24.62 54.84,-54.84l0 -628.47c0,-95.67 -42.69,-171.87 -104.08,-221.02 -36.95,-29.5 -80.19,-49.85 -124.85,-59.1 -41.02,-8.52 -81.54,-7.89 -116.84,3.52 -43.3,13.93 -84.01,46.01 -115.17,99.7 -13.63,23.49 -41.64,33.32 -67,23.69l-400.05 -152.88c-14.94,-5.73 -25.66,-16.29 -31.46,-31.14 -5.81,-14.87 -5.3,-29.92 1.78,-44.24l-0.19 -0.11z"/>
   <path class="fil4" d="M3949.57 1733.65c244.71,0 442.36,73.34 592.83,220.29 150.51,146.75 225.78,364.64 225.78,653.38l0 1075.77c0,30.23 -24.62,54.84 -54.84,54.84l-462.9 0c-30.23,0 -54.84,-24.61 -54.84,-54.84l0 -987.61c0,-156.62 -34.29,-273.46 -102.72,-350.63 -68.54,-77.05 -167.61,-115.6 -297.33,-115.6 -144.36,0 -259.45,44.66 -345.03,133.99 -85.68,89.32 -128.48,222.06 -128.48,398.3l0 585.58c0,9.98 -3.95,18.5 -11.54,25.03 -0.73,0.63 -1.35,1.24 -2.08,1.86l0.49 0.61c-139.78,118.62 -297.56,171.26 -451.68,162.55 -27.51,-1.55 -54.64,-5.06 -81.3,-10.3 -15.6,-3.02 -26.58,-16.41 -26.58,-32.31l0 -1676.61c0,-30.22 24.61,-54.84 54.83,-54.84l437.24 0c30.23,0 54.84,24.62 54.84,54.84l0 51.09c0,21.52 11.54,39.9 30.85,49.34 19.31,9.37 40.83,7.16 57.85,-6.11 57.13,-44.66 121.83,-81.54 194.02,-110.61 112.58,-45.28 236.19,-67.93 370.79,-67.93l-0.2 -0.11z"/>
   <path class="fil5" d="M4.96 3660.86l1063.53 -2395.84c9.02,-20.24 27.94,-32.63 50.16,-32.63l515.96 0c22.21,0 41.14,12.35 50.15,32.63l1053.86 2382.04c6.86,15.36 19.63,25.66 36.15,28.87 27.02,5.3 54.42,8.83 82.24,10.49 154.15,8.71 311.89,-43.93 451.68,-162.55l-0.51 -0.61c11.66,-9.98 23.07,-20.16 34.05,-30.42 19.44,-18.27 49.66,-18.19 68.85,0.19l340.65 324.35c10.18,9.76 15.36,21.83 15.59,35.95 0.12,14.12 -4.99,26.28 -15.05,36.15 -24.42,24 -49.04,46.52 -73.53,67.3l-1.17 -0.12c-257.05,218.63 -555.13,315.1 -852.27,298.27 -372.45,-21.1 -695.34,-213.44 -933.08,-492.94 -161.5,-189.87 -351.56,-315.03 -553.58,-383.99 -180.62,-61.56 -373.15,-78.53 -565.3,-56.81 -18.19,2.09 -32.82,12.77 -40.21,29.5l-157.04 354.58c-8.95,20.35 -27.94,32.62 -50.16,32.62l-470.91 0c-19.11,0 -35.52,-8.94 -46.01,-24.92 -10.38,-15.99 -11.85,-34.68 -4.15,-52.13l0.08 0.04zm1736.11 -827.89l-336.62 -770.41c-8.94,-20.37 -27.93,-32.83 -50.15,-32.83 -22.22,-0.11 -41.33,12.27 -50.27,32.62l-272.42 614.85c-6.74,15.36 -5.8,31.58 2.79,46.01 8.62,14.43 22.45,22.95 39.17,24.3 151.75,11.54 302.64,41.64 449.5,91.72 51.09,17.45 101.67,37.28 151.45,59.6 19.31,8.62 40.83,4.68 55.77,-10.18 15.05,-14.87 19.11,-36.34 10.6,-55.66l0.19 -0.04z"/>
  </g>
  <rect class="fil6" x="11723.85" y="1120.65" width="127.95" height="2613.55"/>
  <rect class="fil7" x="5526.48" width="1186.8" height="508.61"/>
  <path class="fil8" d="M13195.9 2336.67l0 -853.76 340.89 0c75.01,0 139.25,11.99 192.72,36.18 53.66,23.78 94.92,58.14 123.59,103.46 29.07,45.13 43.5,99 43.5,161.41 0,61.79 -14.42,115.26 -43.5,160.18 -28.67,45.13 -69.92,79.69 -123.59,103.68 -53.47,23.99 -117.7,35.98 -192.72,35.98l-264.66 0 61.6 -65.46 0 318.34 -137.83 0zm137.83 -303.7l-61.6 -68.91 260 0c74.2,0 130.3,-15.65 168.11,-46.95 38.22,-31.52 57.33,-76.02 57.33,-133.15 0,-57.93 -19.11,-102.45 -57.33,-133.96 -37.81,-31.52 -93.91,-47.37 -168.11,-47.37l-260 0 61.6 -69.11 0 499.45zm998.29 310.81c-65.46,0 -124,-14.22 -175.43,-42.47 -51.22,-28.46 -91.67,-67.7 -121.55,-117.7 -29.48,-50.21 -44.31,-107.53 -44.31,-171.56 0,-64.85 14.83,-122.18 44.71,-171.77 29.89,-49.6 70.54,-88.63 121.57,-117.09 51.03,-28.26 109.37,-42.49 175.02,-42.49 65.65,0 124.2,14.23 175.62,42.49 51.64,28.46 92.09,67.49 121.57,117.09 29.47,49.39 44.11,106.72 44.11,171.77 0,64.43 -14.64,121.55 -44.11,171.56 -29.07,50 -69.72,89.24 -121.57,117.7 -51.83,28.26 -110.38,42.47 -175.62,42.47zm0 -116.07c39.84,0 75.21,-8.73 106.31,-26.22 31.1,-17.48 55.69,-42.49 73.58,-75 18.09,-32.73 27.04,-70.95 27.04,-114.44 0,-43.71 -8.95,-81.73 -27.04,-114.05 -17.89,-32.32 -42.49,-57.11 -73.58,-74.6 -31.11,-17.68 -66.27,-26.62 -105.7,-26.62 -39.65,0 -75.01,8.94 -106.12,26.62 -30.89,17.49 -55.49,42.28 -73.99,74.6 -18.3,32.32 -27.44,70.33 -27.44,114.05 0,43.5 9.14,81.71 27.44,114.44 18.5,32.51 43.1,57.52 73.99,75 31.11,17.49 66.27,26.22 105.51,26.22zm497.02 108.96l0 -648.45 126.85 0 0 175.23 -13.22 -50.62c18.5,-43.3 48.79,-76.02 90.66,-98.59 41.87,-22.36 93.72,-33.55 155.72,-33.55l0 129.49c-5.69,-0.82 -10.98,-1.42 -15.65,-1.83 -4.68,-0.41 -9.56,-0.61 -14.64,-0.61 -60.37,0 -108.35,17.89 -143.92,53.47 -35.17,35.16 -52.86,87.61 -52.86,156.93l0 318.53 -132.94 0zm756.59 7.11c-68.1,0 -120.94,-17.68 -158.15,-53.25 -37.19,-35.77 -55.69,-88.02 -55.69,-156.93l0 -588.07 132.74 0 0 584.21c0,32.73 8.34,58.14 25,76.23 16.88,17.89 40.86,26.84 71.77,26.84 35.16,0 64.44,-9.36 88.22,-28.26l39.84 95.53c-17.89,14.64 -39.64,25.61 -65.26,32.94 -25.61,7.11 -51.83,10.77 -78.47,10.77zm-322.59 -547.01l0 -108.55 422.62 0 0 108.55 -422.62 0zm977.15 539.9l0 -134.36 -6.1 -26.63 0 -232.14c0,-46.35 -14.03,-82.53 -42.28,-108.55 -27.85,-26.22 -69.92,-39.44 -126.23,-39.44 -37.6,0 -74.2,5.89 -110.17,17.89 -35.58,11.8 -66.06,27.86 -91.28,48.38l-54.48 -99.19c33.95,-26.84 74.81,-47.17 122.37,-61.19 47.37,-13.82 97.17,-20.74 149,-20.74 90.87,0 161.41,22.16 211.21,66.47 50,44.11 75.01,112.22 75.01,203.89l0 385.61 -127.05 0zm-206.32 7.11c-48.99,0 -91.69,-7.93 -128.07,-23.99 -36.58,-16.46 -64.84,-39.23 -84.96,-68.3 -19.73,-29.47 -29.69,-62.8 -29.69,-100.01 0,-35.77 8.54,-68.1 25.62,-96.76 17.07,-29.06 45.12,-52.24 83.95,-69.72 39.02,-17.48 91.07,-26.22 155.91,-26.22l196.98 0 0 95.55 -190.88 0c-55.49,0 -92.49,9.14 -111.39,27.23 -18.91,18.09 -28.26,39.64 -28.26,65.05 0,29.47 11.79,52.84 35.37,70.13 23.78,17.07 56.51,25.61 98.18,25.61 40.86,0 77.25,-8.95 108.96,-26.84 31.91,-18.09 54.68,-44.71 68.51,-79.88l24.19 91.67c-15.45,37 -42.28,65.67 -80.7,86.2 -38.01,20.12 -85.98,30.28 -143.71,30.28zm540.51 -7.11l0 -904.99 132.94 0 0 904.99 -132.94 0zm950.93 7.11c-63.62,0 -120.34,-13.82 -170.34,-41.26 -49.8,-27.64 -88.83,-66.27 -117.5,-115.86 -28.45,-49.61 -42.68,-107.74 -42.68,-174.22 0,-66.66 14.23,-124.81 42.68,-174.2 28.67,-49.6 67.7,-88.22 117.5,-115.86 50,-27.85 106.72,-41.68 170.34,-41.68 53.67,0 102.45,11.99 146.15,35.99 44.12,23.99 79.49,60.37 105.71,109.36 26.43,48.59 39.64,110.79 39.64,186.4 0,74.6 -12.8,136.6 -38.42,185.8 -25.61,48.99 -60.37,85.57 -104.48,109.56 -43.91,23.99 -93.5,35.98 -148.59,35.98zm10.78 -116.07c39.23,0 74.2,-8.73 105.1,-26.22 31.1,-17.48 55.9,-42.49 74.2,-75 18.49,-32.73 27.64,-70.74 27.64,-114.05 0,-44.11 -9.15,-82.12 -27.64,-114.44 -18.3,-32.32 -43.1,-57.11 -74.2,-74.6 -30.9,-17.68 -65.87,-26.62 -105.1,-26.62 -39.24,0 -74.4,8.94 -105.51,26.62 -30.89,17.49 -55.49,42.28 -73.99,74.6 -18.3,32.32 -27.44,70.33 -27.44,114.44 0,43.3 9.14,81.32 27.44,114.05 18.5,32.51 43.1,57.52 73.99,75 31.11,17.49 66.27,26.22 105.51,26.22zm210.59 108.96l0 -164.04 6.1 -161.41 -12.2 -161.41 0 -418.14 133.15 0 0 904.99 -127.05 0zm740.13 0l0 -134.36 -6.1 -26.63 0 -232.14c0,-46.35 -14.03,-82.53 -42.28,-108.55 -27.85,-26.22 -69.92,-39.44 -126.23,-39.44 -37.6,0 -74.2,5.89 -110.17,17.89 -35.58,11.8 -66.06,27.86 -91.28,48.38l-54.48 -99.19c33.95,-26.84 74.81,-47.17 122.37,-61.19 47.37,-13.82 97.17,-20.74 149,-20.74 90.87,0 161.41,22.16 211.21,66.47 50,44.11 75.01,112.22 75.01,203.89l0 385.61 -127.05 0zm-206.32 7.11c-48.99,0 -91.69,-7.93 -128.07,-23.99 -36.58,-16.46 -64.84,-39.23 -84.96,-68.3 -19.73,-29.47 -29.69,-62.8 -29.69,-100.01 0,-35.77 8.54,-68.1 25.62,-96.76 17.07,-29.06 45.12,-52.24 83.95,-69.72 39.02,-17.48 91.07,-26.22 155.91,-26.22l196.98 0 0 95.55 -190.88 0c-55.49,0 -92.49,9.14 -111.39,27.23 -18.91,18.09 -28.26,39.64 -28.26,65.05 0,29.47 11.79,52.84 35.37,70.13 23.78,17.07 56.51,25.61 98.18,25.61 40.86,0 77.25,-8.95 108.96,-26.84 31.91,-18.09 54.68,-44.71 68.51,-79.88l24.19 91.67c-15.45,37 -42.28,65.67 -80.7,86.2 -38.01,20.12 -85.98,30.28 -143.71,30.28z"/>
  <path class="fil8" d="M13507.17 3726.69l0 -786.04 -311.28 0 0 -244.98 934.31 0 0 244.98 -311.02 0 0 786.04 -312.01 0zm725.16 0l0 -1031.02 468.13 0c153.43,0 270.77,34.37 352.27,103.34 81.5,68.49 122.25,162.02 122.25,280.34 0,78.8 -18.9,146.56 -56.46,203.27 -37.55,56.7 -91.07,100.41 -160.3,130.6 -68.97,29.94 -150.96,44.92 -245.97,44.92l-306.61 0 138.69 -129.85 0 398.41 -312.01 0zm629.91 0l-255.06 -375.34 331.41 0 257.75 375.34 -334.09 0zm-317.9 -364.3l-138.69 -142.62 287.7 0c56.22,0 98.19,-12.52 125.45,-37.57 27.49,-24.79 41.24,-59.16 41.24,-102.86 0,-43.45 -13.75,-77.56 -41.24,-102.37 -27.26,-25.03 -69.23,-37.55 -125.45,-37.55l-287.7 0 138.69 -143.11 0 566.07zm661.08 364.3l453.65 -1031.02 307.1 0 453.9 1031.02 -323.3 0 -347.6 -880.3 122.25 0 -347.86 880.3 -318.14 0zm256.04 -193.2l79.79 -227.55 492.93 0 80.27 227.55 -652.98 0zm1031.77 193.2l0 -1031.02 256.53 0 552.08 665.25 -120.53 0 0 -665.25 305.38 0 0 1031.02 -256.77 0 -551.84 -665.25 120.29 0 0 665.25 -305.14 0zm1555.12 21.6c-85.18,0 -167.17,-10.31 -246.21,-30.69 -78.8,-20.38 -143.36,-46.65 -193.44,-79.3l101.62 -229.77c47.62,29.46 101.63,53.26 162.02,71.43 60.64,18.18 120.05,27.26 178.72,27.26 37.81,0 67.75,-2.95 90.09,-8.84 22.59,-6.13 39.03,-14.98 49.34,-26.02 10.31,-11.05 15.47,-23.82 15.47,-38.79 0,-21.59 -10.55,-38.78 -31.67,-51.3 -20.86,-12.76 -48.36,-23.31 -82.96,-31.42 -34.37,-8.35 -71.93,-16.94 -112.93,-25.53 -40.99,-8.6 -82.23,-19.88 -123.72,-33.39 -41.49,-13.5 -79.54,-31.66 -113.66,-54 -34.11,-22.34 -61.85,-51.56 -82.96,-88.14 -20.87,-36.33 -31.43,-81.99 -31.43,-136.97 0,-62.11 17.19,-118.57 51.56,-169.63 34.61,-51.3 86.16,-92.3 155.14,-122.98 68.99,-30.69 155.39,-46.14 258.74,-46.14 67.75,0 134.77,7.36 201.05,22.34 66.03,14.98 125.2,37.55 177.48,68l-94.99 228.3c-49.84,-26.03 -98.69,-45.42 -146.56,-58.18 -47.86,-13.02 -94.51,-19.39 -139.92,-19.39 -37.55,0 -67.75,3.68 -90.58,11.04 -22.59,7.61 -38.79,17.43 -48.85,29.95 -9.83,12.27 -14.74,26.02 -14.74,40.99 0,20.87 10.31,37.31 31.18,49.58 21.11,12.28 48.85,22.34 82.98,30.19 34.61,7.61 72.66,15.71 114.14,24.06 41.49,8.35 82.72,19.39 123.73,33.14 40.99,13.51 78.55,31.18 112.92,53.52 34.61,22.1 62.11,51.3 82.98,87.39 21.11,36.09 31.66,81.02 31.66,134.77 0,61.12 -17.43,117.34 -52.29,168.65 -34.37,51.06 -85.91,92.3 -154.9,123.48 -68.48,30.93 -154.9,46.4 -258.98,46.4zm589.41 -21.6l0 -1031.02 479.92 0c95.01,0 177,15.46 245.97,46.4 69.23,30.93 122.74,75.36 160.3,133.04 37.57,57.69 56.46,125.69 56.46,204.24 0,78.8 -18.9,146.8 -56.46,204 -37.55,57.2 -91.07,101.63 -160.3,133.05 -68.97,31.18 -150.96,46.64 -245.97,46.64l-306.61 0 138.69 -134.76 0 398.41 -312.01 0zm312.01 -364.3l-138.69 -143.11 287.7 0c56.22,0 98.19,-12.28 125.45,-37.07 27.49,-24.79 41.24,-59.16 41.24,-102.86 0,-43.45 -13.75,-77.56 -41.24,-102.37 -27.26,-25.03 -69.23,-37.55 -125.45,-37.55l-287.7 0 138.69 -143.11 0 566.07zm590.38 364.3l453.65 -1031.02 307.1 0 453.9 1031.02 -323.3 0 -347.6 -880.3 122.25 0 -347.86 880.3 -318.14 0zm256.04 -193.2l79.79 -227.55 492.93 0 80.27 227.55 -652.98 0zm1031.77 193.2l0 -1031.02 468.13 0c153.43,0 270.77,34.37 352.27,103.34 81.5,68.49 122.25,162.02 122.25,280.34 0,78.8 -18.9,146.56 -56.46,203.27 -37.55,56.7 -91.07,100.41 -160.3,130.6 -68.97,29.94 -150.96,44.92 -245.97,44.92l-306.61 0 138.69 -129.85 0 398.41 -312.01 0zm629.91 0l-255.06 -375.34 331.41 0 257.75 375.34 -334.09 0zm-317.9 -364.3l-138.69 -142.62 287.7 0c56.22,0 98.19,-12.52 125.45,-37.57 27.49,-24.79 41.24,-59.16 41.24,-102.86 0,-43.45 -13.75,-77.56 -41.24,-102.37 -27.26,-25.03 -69.23,-37.55 -125.45,-37.55l-287.7 0 138.69 -143.11 0 566.07zm780.88 364.3l0 -1031.02 818.68 0 0 239.09 -511.34 0 0 552.83 530.73 0 0 239.1 -838.07 0zm285.74 -408.48l0 -229.03 471.83 0 0 229.03 -471.83 0zm-194.41 -706.25l190.49 -228.3 256.77 0 190.49 228.3 -193.68 0 -207.43 -186.57 164.22 0 -207.19 186.57 -193.68 0zm898.46 1114.73l0 -1031.02 256.53 0 552.08 665.25 -120.53 0 0 -665.25 305.38 0 0 1031.02 -256.77 0 -551.84 -665.25 120.29 0 0 665.25 -305.14 0zm1705.86 21.6c-81.51,0 -157.11,-13.02 -226.58,-38.79 -69.48,-26.26 -129.87,-63.33 -181.17,-111.2 -51.06,-48.12 -90.83,-104.82 -119.06,-170.37 -27.98,-65.55 -41.98,-137.72 -41.98,-217 0,-78.8 14,-150.98 41.98,-216.27 28.23,-65.55 68,-122.25 119.06,-170.13 51.3,-48.36 111.69,-85.42 181.17,-111.2 69.47,-26.27 145.32,-39.27 227.06,-39.27 97.22,0 183.88,16.94 260.21,51.05 76.35,33.89 139.68,82.98 190.01,147.54l-197.87 177.98c-32.15,-38.79 -67.75,-68.73 -106.78,-89.6 -38.78,-21.11 -81.99,-31.67 -129.85,-31.67 -40.26,0 -76.84,6.63 -109.98,19.88 -32.9,13.26 -61.37,32.41 -85.18,57.2 -23.82,24.8 -42.23,54.5 -55.49,89.11 -13,34.86 -19.63,73.4 -19.63,115.38 0,42.46 6.63,81.26 19.63,115.86 13.26,34.62 31.67,64.56 55.49,89.6 23.81,24.79 52.28,43.69 85.18,56.7 33.14,13.02 69.72,19.39 109.98,19.39 47.86,0 91.07,-10.31 129.85,-31.18 39.03,-20.86 74.63,-50.81 106.78,-89.84l197.87 177.98c-50.33,63.57 -113.66,112.68 -190.01,147.28 -76.34,34.37 -163.25,51.56 -260.69,51.56zm559.45 -21.6l0 -1031.02 312.01 0 0 1031.02 -312.01 0zm385.41 0l453.65 -1031.02 307.1 0 453.9 1031.02 -323.3 0 -347.6 -880.3 122.25 0 -347.86 880.3 -318.14 0zm256.04 -193.2l79.79 -227.55 492.93 0 80.27 227.55 -652.98 0z"/>
 </g>
</svg>
